<svg id="visual" viewBox="0 0 960 240" width="960" height="240" xmlns="http://www.w3.org/2000/svg" xmlns:xlink="http://www.w3.org/1999/xlink" version="1.1"><path d="M0 101L20 102.2C40 103.3 80 105.7 120 96.7C160 87.7 200 67.3 240 60C280 52.7 320 58.3 360 68.8C400 79.3 440 94.7 480 99.8C520 105 560 100 600 95.8C640 91.7 680 88.3 720 92C760 95.7 800 106.3 840 104C880 101.7 920 86.3 940 78.7L960 71L960 241L940 241C920 241 880 241 840 241C800 241 760 241 720 241C680 241 640 241 600 241C560 241 520 241 480 241C440 241 400 241 360 241C320 241 280 241 240 241C200 241 160 241 120 241C80 241 40 241 20 241L0 241Z" fill="#609f85"></path><path d="M0 166L20 163C40 160 80 154 120 141.7C160 129.3 200 110.7 240 105.8C280 101 320 110 360 111.7C400 113.3 440 107.7 480 113C520 118.3 560 134.7 600 143.5C640 152.3 680 153.7 720 150.3C760 147 800 139 840 135C880 131 920 131 940 131L960 131L960 241L940 241C920 241 880 241 840 241C800 241 760 241 720 241C680 241 640 241 600 241C560 241 520 241 480 241C440 241 400 241 360 241C320 241 280 241 240 241C200 241 160 241 120 241C80 241 40 241 20 241L0 241Z" fill="#407f64"></path><path d="M0 190L20 190.5C40 191 80 192 120 188.5C160 185 200 177 240 172.8C280 168.7 320 168.3 360 173C400 177.7 440 187.3 480 194.3C520 201.3 560 205.7 600 205.3C640 205 680 200 720 189.5C760 179 800 163 840 165.2C880 167.3 920 187.7 940 197.8L960 208L960 241L940 241C920 241 880 241 840 241C800 241 760 241 720 241C680 241 640 241 600 241C560 241 520 241 480 241C440 241 400 241 360 241C320 241 280 241 240 241C200 241 160 241 120 241C80 241 40 241 20 241L0 241Z" fill="#206045"></path></svg>