<svg xmlns="http://www.w3.org/2000/svg" xmlns:xlink="http://www.w3.org/1999/xlink" width="525" zoomAndPan="magnify" viewBox="0 0 393.75 393.74999" height="525" preserveAspectRatio="xMidYMid meet" version="1.0"><defs><clipPath id="e51a351dd9"><path d="M 151 17.761719 L 276 17.761719 L 276 38 L 151 38 Z M 151 17.761719 " clip-rule="nonzero"/></clipPath><clipPath id="f1ddc06caf"><path d="M 283 115 L 391.636719 115 L 391.636719 229 L 283 229 Z M 283 115 " clip-rule="nonzero"/></clipPath><clipPath id="a37f2f4054"><path d="M 1.886719 187 L 111 187 L 111 260 L 1.886719 260 Z M 1.886719 187 " clip-rule="nonzero"/></clipPath><clipPath id="db5e0f4857"><path d="M 1.886719 155 L 111 155 L 111 191 L 1.886719 191 Z M 1.886719 155 " clip-rule="nonzero"/></clipPath><clipPath id="e76733becd"><path d="M 200 210 L 302 210 L 302 379.035156 L 200 379.035156 Z M 200 210 " clip-rule="nonzero"/></clipPath><clipPath id="e8b21fc5bf"><path d="M 143 245 L 236 245 L 236 379.035156 L 143 379.035156 Z M 143 245 " clip-rule="nonzero"/></clipPath></defs><path fill="#252525" d="M 139.511719 368.988281 C 139.316406 368.988281 139.113281 368.957031 138.914062 368.886719 C 132.625 366.652344 126.390625 364.039062 120.382812 361.117188 C 119.492188 360.683594 119.125 359.613281 119.554688 358.726562 C 119.988281 357.839844 121.058594 357.46875 121.945312 357.902344 C 127.835938 360.765625 133.945312 363.328125 140.109375 365.515625 C 141.042969 365.847656 141.527344 366.867188 141.199219 367.800781 C 140.9375 368.53125 140.25 368.988281 139.511719 368.988281 Z M 103.785156 351.609375 C 103.457031 351.609375 103.125 351.519531 102.828125 351.332031 C 97.191406 347.761719 91.6875 343.835938 86.472656 339.65625 C 85.703125 339.039062 85.578125 337.914062 86.195312 337.144531 C 86.8125 336.375 87.9375 336.25 88.707031 336.867188 C 93.820312 340.960938 99.214844 344.8125 104.742188 348.308594 C 105.578125 348.835938 105.824219 349.941406 105.296875 350.777344 C 104.957031 351.3125 104.375 351.609375 103.785156 351.609375 Z M 72.773438 326.773438 C 72.316406 326.773438 71.855469 326.601562 71.507812 326.25 C 66.789062 321.527344 62.28125 316.488281 58.113281 311.273438 C 57.496094 310.503906 57.621094 309.378906 58.394531 308.761719 C 59.164062 308.144531 60.289062 308.269531 60.90625 309.042969 C 64.992188 314.152344 69.410156 319.09375 74.039062 323.722656 C 74.734375 324.421875 74.734375 325.554688 74.035156 326.25 C 73.6875 326.601562 73.230469 326.773438 72.773438 326.773438 Z M 47.96875 295.742188 C 47.378906 295.742188 46.796875 295.449219 46.457031 294.910156 C 42.886719 289.261719 39.601562 283.355469 36.6875 277.351562 C 36.253906 276.464844 36.625 275.394531 37.515625 274.964844 C 38.402344 274.53125 39.472656 274.902344 39.902344 275.789062 C 42.761719 281.671875 45.980469 287.464844 49.480469 293 C 50.007812 293.835938 49.757812 294.941406 48.925781 295.46875 C 48.628906 295.65625 48.296875 295.742188 47.96875 295.742188 Z M 47.96875 295.742188 " fill-opacity="1" fill-rule="nonzero"/><path fill="#252525" d="M 307.804688 342.65625 C 307.265625 342.65625 306.734375 342.414062 306.382812 341.953125 C 305.785156 341.167969 305.933594 340.042969 306.71875 339.445312 C 311.546875 335.761719 316.238281 331.785156 320.667969 327.625 C 321.386719 326.949219 322.519531 326.984375 323.195312 327.703125 C 323.871094 328.421875 323.835938 329.554688 323.117188 330.230469 C 318.601562 334.476562 313.8125 338.53125 308.890625 342.289062 C 308.566406 342.535156 308.183594 342.65625 307.804688 342.65625 Z M 334.679688 317.394531 C 334.265625 317.394531 333.851562 317.25 333.511719 316.957031 C 332.765625 316.3125 332.683594 315.183594 333.332031 314.4375 C 337.308594 309.84375 341.09375 304.992188 344.574219 300.019531 C 345.140625 299.210938 346.257812 299.015625 347.066406 299.582031 C 347.875 300.148438 348.070312 301.261719 347.503906 302.070312 C 343.953125 307.144531 340.09375 312.089844 336.035156 316.777344 C 335.679688 317.1875 335.183594 317.394531 334.679688 317.394531 Z M 355.839844 287.179688 C 355.546875 287.179688 355.246094 287.109375 354.972656 286.957031 C 354.109375 286.476562 353.796875 285.386719 354.277344 284.523438 C 357.234375 279.210938 359.941406 273.6875 362.328125 268.109375 C 362.71875 267.199219 363.769531 266.78125 364.675781 267.167969 C 365.585938 267.554688 366.003906 268.605469 365.617188 269.515625 C 363.183594 275.207031 360.417969 280.84375 357.402344 286.261719 C 357.078125 286.851562 356.46875 287.179688 355.839844 287.179688 Z M 370.34375 253.265625 C 370.167969 253.265625 369.992188 253.238281 369.816406 253.183594 C 368.871094 252.890625 368.34375 251.890625 368.636719 250.949219 C 370.429688 245.148438 371.941406 239.183594 373.125 233.222656 C 373.316406 232.253906 374.257812 231.625 375.226562 231.816406 C 376.195312 232.011719 376.824219 232.953125 376.632812 233.921875 C 375.421875 240.003906 373.882812 246.085938 372.050781 252.003906 C 371.8125 252.773438 371.105469 253.265625 370.34375 253.265625 Z M 370.34375 253.265625 " fill-opacity="1" fill-rule="nonzero"/><g clip-path="url(#e51a351dd9)"><path fill="#252525" d="M 273.980469 37.597656 C 273.730469 37.597656 273.476562 37.542969 273.234375 37.433594 C 267.960938 35.011719 262.511719 32.828125 257.03125 30.941406 C 256.097656 30.621094 255.597656 29.601562 255.921875 28.667969 C 256.242188 27.734375 257.261719 27.238281 258.191406 27.558594 C 263.785156 29.484375 269.347656 31.710938 274.726562 34.183594 C 275.625 34.59375 276.019531 35.65625 275.605469 36.554688 C 275.304688 37.210938 274.65625 37.597656 273.980469 37.597656 Z M 153.34375 27.316406 C 152.554688 27.316406 151.832031 26.789062 151.617188 25.988281 C 151.363281 25.03125 151.933594 24.054688 152.886719 23.800781 C 158.601562 22.285156 164.460938 21.035156 170.308594 20.09375 C 171.28125 19.933594 172.199219 20.597656 172.359375 21.570312 C 172.515625 22.546875 171.851562 23.464844 170.878906 23.621094 C 165.148438 24.546875 159.40625 25.769531 153.804688 27.257812 C 153.652344 27.296875 153.496094 27.316406 153.34375 27.316406 Z M 240.671875 26.136719 C 240.535156 26.136719 240.398438 26.121094 240.261719 26.085938 C 234.621094 24.753906 228.847656 23.691406 223.089844 22.917969 C 222.113281 22.789062 221.425781 21.890625 221.554688 20.910156 C 221.6875 19.929688 222.585938 19.246094 223.566406 19.375 C 229.4375 20.160156 235.332031 21.25 241.082031 22.609375 C 242.042969 22.835938 242.636719 23.796875 242.410156 24.757812 C 242.21875 25.582031 241.484375 26.136719 240.671875 26.136719 Z M 188.117188 21.691406 C 187.179688 21.691406 186.394531 20.960938 186.332031 20.015625 C 186.273438 19.03125 187.023438 18.179688 188.007812 18.121094 C 191.765625 17.886719 195.585938 17.769531 199.363281 17.769531 C 201.507812 17.769531 203.679688 17.808594 205.816406 17.882812 C 206.804688 17.917969 207.574219 18.746094 207.539062 19.730469 C 207.503906 20.71875 206.675781 21.488281 205.691406 21.457031 C 203.59375 21.382812 201.464844 21.34375 199.363281 21.34375 C 195.660156 21.34375 191.914062 21.460938 188.230469 21.6875 C 188.191406 21.691406 188.152344 21.691406 188.117188 21.691406 Z M 188.117188 21.691406 " fill-opacity="1" fill-rule="nonzero"/></g><path fill="#819098" d="M 330.75 198.503906 C 330.75 200.65625 330.699219 202.804688 330.59375 204.953125 C 330.488281 207.101562 330.328125 209.242188 330.117188 211.382812 C 329.90625 213.523438 329.644531 215.65625 329.328125 217.785156 C 329.011719 219.910156 328.644531 222.027344 328.226562 224.136719 C 327.808594 226.246094 327.335938 228.34375 326.8125 230.429688 C 326.289062 232.515625 325.71875 234.585938 325.09375 236.644531 C 324.46875 238.703125 323.792969 240.746094 323.070312 242.769531 C 322.347656 244.792969 321.574219 246.800781 320.75 248.785156 C 319.925781 250.773438 319.054688 252.738281 318.136719 254.679688 C 317.21875 256.625 316.25 258.546875 315.238281 260.441406 C 314.222656 262.335938 313.164062 264.207031 312.058594 266.050781 C 310.953125 267.898438 309.804688 269.710938 308.609375 271.5 C 307.414062 273.289062 306.175781 275.046875 304.894531 276.773438 C 303.613281 278.5 302.292969 280.195312 300.925781 281.855469 C 299.5625 283.519531 298.160156 285.148438 296.714844 286.738281 C 295.269531 288.332031 293.789062 289.890625 292.269531 291.410156 C 290.746094 292.929688 289.191406 294.414062 287.597656 295.855469 C 286.003906 297.300781 284.378906 298.707031 282.714844 300.070312 C 281.050781 301.433594 279.359375 302.757812 277.632812 304.035156 C 275.902344 305.316406 274.144531 306.554688 272.359375 307.75 C 270.570312 308.945312 268.753906 310.09375 266.910156 311.199219 C 265.066406 312.304688 263.195312 313.367188 261.300781 314.378906 C 259.402344 315.390625 257.484375 316.359375 255.539062 317.277344 C 253.59375 318.199219 251.628906 319.070312 249.644531 319.890625 C 247.65625 320.714844 245.652344 321.488281 243.625 322.210938 C 241.601562 322.9375 239.5625 323.609375 237.503906 324.234375 C 235.445312 324.859375 233.375 325.433594 231.289062 325.957031 C 229.203125 326.476562 227.105469 326.949219 224.996094 327.367188 C 222.886719 327.789062 220.769531 328.15625 218.640625 328.472656 C 216.515625 328.785156 214.382812 329.050781 212.242188 329.261719 C 210.101562 329.472656 207.957031 329.628906 205.8125 329.734375 C 203.664062 329.839844 201.515625 329.894531 199.363281 329.894531 C 197.214844 329.894531 195.066406 329.839844 192.917969 329.734375 C 190.769531 329.628906 188.625 329.472656 186.484375 329.261719 C 184.34375 329.050781 182.210938 328.785156 180.085938 328.472656 C 177.957031 328.15625 175.839844 327.789062 173.730469 327.367188 C 171.621094 326.949219 169.523438 326.476562 167.4375 325.957031 C 165.351562 325.433594 163.28125 324.859375 161.222656 324.234375 C 159.167969 323.609375 157.125 322.9375 155.101562 322.210938 C 153.074219 321.488281 151.070312 320.714844 149.082031 319.890625 C 147.097656 319.070312 145.132812 318.199219 143.1875 317.277344 C 141.246094 316.359375 139.324219 315.390625 137.429688 314.378906 C 135.53125 313.367188 133.660156 312.304688 131.816406 311.199219 C 129.972656 310.09375 128.15625 308.945312 126.367188 307.75 C 124.582031 306.554688 122.824219 305.316406 121.097656 304.035156 C 119.371094 302.757812 117.675781 301.433594 116.011719 300.070312 C 114.351562 298.707031 112.722656 297.300781 111.128906 295.855469 C 109.535156 294.414062 107.980469 292.929688 106.457031 291.410156 C 104.9375 289.890625 103.457031 288.332031 102.011719 286.738281 C 100.566406 285.148438 99.164062 283.519531 97.800781 281.855469 C 96.4375 280.195312 95.113281 278.5 93.832031 276.773438 C 92.550781 275.046875 91.3125 273.289062 90.121094 271.5 C 88.925781 269.710938 87.773438 267.898438 86.667969 266.050781 C 85.5625 264.207031 84.503906 262.335938 83.492188 260.441406 C 82.476562 258.546875 81.511719 256.625 80.589844 254.679688 C 79.671875 252.738281 78.800781 250.773438 77.976562 248.785156 C 77.15625 246.800781 76.382812 244.792969 75.65625 242.769531 C 74.933594 240.746094 74.257812 238.703125 73.632812 236.644531 C 73.007812 234.585938 72.4375 232.515625 71.914062 230.429688 C 71.390625 228.34375 70.921875 226.246094 70.5 224.136719 C 70.082031 222.027344 69.714844 219.910156 69.398438 217.785156 C 69.082031 215.65625 68.820312 213.523438 68.609375 211.382812 C 68.398438 209.242188 68.238281 207.101562 68.132812 204.953125 C 68.027344 202.804688 67.976562 200.65625 67.976562 198.503906 C 67.976562 196.355469 68.027344 194.207031 68.132812 192.058594 C 68.238281 189.910156 68.398438 187.765625 68.609375 185.628906 C 68.820312 183.488281 69.082031 181.355469 69.398438 179.226562 C 69.714844 177.101562 70.082031 174.980469 70.5 172.875 C 70.921875 170.765625 71.390625 168.667969 71.914062 166.582031 C 72.4375 164.496094 73.007812 162.421875 73.632812 160.367188 C 74.257812 158.308594 74.933594 156.265625 75.65625 154.242188 C 76.382812 152.21875 77.15625 150.210938 77.976562 148.226562 C 78.800781 146.238281 79.671875 144.273438 80.589844 142.332031 C 81.511719 140.386719 82.476562 138.464844 83.492188 136.570312 C 84.503906 134.675781 85.5625 132.804688 86.667969 130.960938 C 87.773438 129.113281 88.925781 127.296875 90.121094 125.511719 C 91.3125 123.722656 92.550781 121.964844 93.832031 120.238281 C 95.113281 118.511719 96.4375 116.816406 97.800781 115.15625 C 99.164062 113.492188 100.566406 111.863281 102.011719 110.269531 C 103.457031 108.679688 104.9375 107.121094 106.457031 105.601562 C 107.980469 104.082031 109.535156 102.597656 111.128906 101.152344 C 112.722656 99.710938 114.351562 98.304688 116.011719 96.941406 C 117.675781 95.578125 119.371094 94.253906 121.097656 92.972656 C 122.824219 91.695312 124.582031 90.457031 126.367188 89.261719 C 128.15625 88.066406 129.972656 86.917969 131.816406 85.8125 C 133.660156 84.707031 135.53125 83.644531 137.429688 82.632812 C 139.324219 81.617188 141.246094 80.652344 143.1875 79.734375 C 145.132812 78.8125 147.097656 77.941406 149.082031 77.121094 C 151.070312 76.296875 153.074219 75.523438 155.101562 74.800781 C 157.125 74.074219 159.167969 73.398438 161.222656 72.777344 C 163.28125 72.152344 165.351562 71.578125 167.4375 71.054688 C 169.523438 70.535156 171.621094 70.0625 173.730469 69.644531 C 175.839844 69.222656 177.957031 68.855469 180.085938 68.539062 C 182.210938 68.226562 184.34375 67.960938 186.484375 67.75 C 188.625 67.539062 190.769531 67.382812 192.917969 67.277344 C 195.066406 67.171875 197.214844 67.117188 199.363281 67.117188 C 201.515625 67.117188 203.664062 67.171875 205.808594 67.277344 C 207.957031 67.382812 210.101562 67.539062 212.242188 67.75 C 214.382812 67.960938 216.515625 68.226562 218.640625 68.539062 C 220.769531 68.855469 222.886719 69.222656 224.996094 69.644531 C 227.105469 70.0625 229.203125 70.535156 231.289062 71.054688 C 233.375 71.578125 235.445312 72.152344 237.503906 72.777344 C 239.5625 73.398438 241.601562 74.074219 243.625 74.800781 C 245.652344 75.523438 247.65625 76.296875 249.644531 77.121094 C 251.628906 77.941406 253.59375 78.8125 255.539062 79.734375 C 257.484375 80.652344 259.402344 81.617188 261.300781 82.632812 C 263.195312 83.644531 265.066406 84.707031 266.910156 85.8125 C 268.753906 86.917969 270.570312 88.066406 272.359375 89.261719 C 274.144531 90.457031 275.902344 91.695312 277.628906 92.972656 C 279.359375 94.253906 281.050781 95.578125 282.714844 96.941406 C 284.375 98.304688 286.003906 99.710938 287.597656 101.152344 C 289.191406 102.597656 290.746094 104.082031 292.269531 105.601562 C 293.789062 107.121094 295.269531 108.679688 296.714844 110.273438 C 298.160156 111.863281 299.5625 113.492188 300.925781 115.15625 C 302.292969 116.816406 303.613281 118.511719 304.894531 120.238281 C 306.175781 121.964844 307.414062 123.722656 308.609375 125.511719 C 309.800781 127.296875 310.953125 129.113281 312.058594 130.960938 C 313.164062 132.804688 314.222656 134.675781 315.238281 136.570312 C 316.25 138.464844 317.21875 140.386719 318.136719 142.332031 C 319.054688 144.273438 319.925781 146.238281 320.75 148.226562 C 321.574219 150.210938 322.347656 152.21875 323.070312 154.242188 C 323.792969 156.265625 324.46875 158.308594 325.09375 160.367188 C 325.71875 162.421875 326.289062 164.496094 326.8125 166.582031 C 327.335938 168.667969 327.808594 170.765625 328.226562 172.875 C 328.644531 174.980469 329.011719 177.101562 329.328125 179.226562 C 329.644531 181.355469 329.90625 183.488281 330.117188 185.628906 C 330.328125 187.765625 330.488281 189.910156 330.59375 192.058594 C 330.699219 194.207031 330.75 196.355469 330.75 198.503906 Z M 330.75 198.503906 " fill-opacity="1" fill-rule="nonzero"/><path fill="#998066" d="M 340.425781 173.304688 L 251.089844 173.304688 L 251.089844 194.316406 C 251.089844 195.628906 249.601562 196.386719 248.542969 195.613281 L 191.511719 154.175781 C 189.699219 152.855469 189.699219 150.148438 191.511719 148.828125 L 248.542969 107.386719 C 249.601562 106.617188 251.089844 107.375 251.089844 108.6875 L 251.089844 129.699219 L 340.425781 129.699219 Z M 340.425781 173.304688 " fill-opacity="1" fill-rule="nonzero"/><path fill="#252525" d="M 249.484375 197.710938 C 248.78125 197.710938 248.082031 197.492188 247.492188 197.0625 L 190.460938 155.621094 C 189.128906 154.652344 188.363281 153.152344 188.363281 151.5 C 188.363281 149.851562 189.128906 148.351562 190.460938 147.382812 L 247.492188 105.941406 C 248.527344 105.1875 249.882812 105.082031 251.027344 105.664062 C 252.167969 106.246094 252.878906 107.402344 252.878906 108.6875 L 252.878906 127.910156 L 340.425781 127.910156 C 340.902344 127.910156 341.355469 128.097656 341.691406 128.433594 C 342.027344 128.769531 342.214844 129.226562 342.214844 129.699219 L 342.214844 173.304688 C 342.214844 174.292969 341.414062 175.09375 340.425781 175.09375 L 252.878906 175.09375 L 252.878906 194.316406 C 252.878906 195.597656 252.167969 196.757812 251.027344 197.339844 C 250.535156 197.589844 250.007812 197.710938 249.484375 197.710938 Z M 249.304688 109.042969 L 192.566406 150.273438 C 192.167969 150.5625 191.9375 151.011719 191.9375 151.5 C 191.9375 151.992188 192.167969 152.441406 192.566406 152.730469 L 249.304688 193.957031 L 249.304688 173.304688 C 249.304688 172.316406 250.105469 171.515625 251.089844 171.515625 L 338.636719 171.515625 L 338.636719 131.488281 L 251.089844 131.488281 C 250.617188 131.488281 250.164062 131.296875 249.828125 130.964844 C 249.492188 130.628906 249.304688 130.171875 249.304688 129.699219 Z M 249.304688 109.042969 " fill-opacity="1" fill-rule="nonzero"/><path fill="#998066" d="M 215.234375 50.921875 L 304.570312 50.921875 L 304.570312 29.910156 C 304.570312 28.597656 306.058594 27.839844 307.117188 28.609375 L 364.148438 70.050781 C 365.964844 71.371094 365.964844 74.078125 364.148438 75.398438 L 307.117188 116.835938 C 306.058594 117.609375 304.570312 116.851562 304.570312 115.539062 L 304.570312 94.527344 L 215.234375 94.527344 Z M 215.234375 50.921875 " fill-opacity="1" fill-rule="nonzero"/><path fill="#252525" d="M 306.175781 118.933594 C 305.652344 118.933594 305.125 118.8125 304.632812 118.5625 C 303.492188 117.980469 302.78125 116.820312 302.78125 115.539062 L 302.78125 96.3125 L 215.234375 96.3125 C 214.246094 96.3125 213.445312 95.511719 213.445312 94.527344 L 213.445312 50.921875 C 213.445312 50.445312 213.632812 49.992188 213.96875 49.65625 C 214.304688 49.320312 214.757812 49.132812 215.234375 49.132812 L 302.78125 49.132812 L 302.78125 29.910156 C 302.78125 28.625 303.492188 27.46875 304.632812 26.886719 C 305.777344 26.300781 307.132812 26.410156 308.167969 27.164062 L 365.199219 68.601562 C 366.53125 69.570312 367.296875 71.074219 367.296875 72.722656 C 367.296875 74.371094 366.53125 75.875 365.199219 76.84375 L 308.167969 118.285156 C 307.578125 118.714844 306.878906 118.933594 306.175781 118.933594 Z M 304.570312 92.738281 C 305.042969 92.738281 305.496094 92.925781 305.832031 93.261719 C 306.167969 93.597656 306.355469 94.050781 306.355469 94.527344 L 306.355469 115.179688 L 363.097656 73.949219 C 363.492188 73.660156 363.722656 73.214844 363.722656 72.722656 C 363.722656 72.230469 363.492188 71.785156 363.09375 71.496094 L 306.355469 30.265625 L 306.355469 50.921875 C 306.355469 51.910156 305.554688 52.707031 304.570312 52.707031 L 217.023438 52.707031 L 217.023438 92.738281 Z M 217.023438 94.527344 Z M 217.023438 94.527344 " fill-opacity="1" fill-rule="nonzero"/><path fill="#5c7a8a" d="M 379.730469 171.949219 C 379.730469 169.304688 379.457031 166.722656 378.988281 164.210938 L 389.605469 155.605469 C 388.433594 151.882812 386.871094 148.226562 384.839844 144.703125 C 382.804688 141.179688 380.414062 138 377.777344 135.125 L 365.011719 140.019531 C 361.105469 136.667969 356.574219 134.039062 351.621094 132.292969 L 349.476562 118.785156 C 345.664062 117.9375 341.714844 117.457031 337.648438 117.457031 C 333.582031 117.457031 329.636719 117.9375 325.820312 118.785156 L 323.679688 132.292969 C 318.722656 134.039062 314.191406 136.667969 310.285156 140.019531 L 297.519531 135.125 C 294.882812 138 292.492188 141.179688 290.460938 144.703125 C 288.425781 148.226562 286.867188 151.882812 285.691406 155.605469 L 296.308594 164.210938 C 295.84375 166.722656 295.566406 169.304688 295.566406 171.949219 C 295.566406 174.59375 295.84375 177.175781 296.308594 179.6875 L 285.691406 188.289062 C 286.867188 192.011719 288.425781 195.671875 290.460938 199.195312 C 292.492188 202.714844 294.882812 205.894531 297.519531 208.773438 L 310.285156 203.878906 C 314.191406 207.230469 318.722656 209.855469 323.679688 211.601562 L 325.820312 225.113281 C 329.636719 225.957031 333.582031 226.4375 337.648438 226.4375 C 341.714844 226.4375 345.664062 225.957031 349.476562 225.113281 L 351.621094 211.601562 C 356.574219 209.855469 361.105469 207.230469 365.011719 203.878906 L 377.777344 208.773438 C 380.417969 205.894531 382.804688 202.714844 384.839844 199.195312 C 386.871094 195.671875 388.433594 192.011719 389.605469 188.289062 L 378.988281 179.6875 C 379.457031 177.175781 379.730469 174.59375 379.730469 171.949219 Z M 379.730469 171.949219 " fill-opacity="1" fill-rule="nonzero"/><g clip-path="url(#f1ddc06caf)"><path fill="#252525" d="M 337.648438 228.226562 C 333.640625 228.226562 329.535156 227.765625 325.433594 226.859375 C 324.71875 226.703125 324.171875 226.121094 324.054688 225.394531 L 322.078125 212.921875 C 317.652344 211.242188 313.582031 208.890625 309.945312 205.921875 L 298.160156 210.441406 C 297.472656 210.707031 296.695312 210.523438 296.199219 209.980469 C 293.367188 206.890625 290.917969 203.5625 288.910156 200.089844 C 286.902344 196.609375 285.246094 192.820312 283.988281 188.828125 C 283.765625 188.128906 283.996094 187.363281 284.566406 186.902344 L 294.367188 178.957031 C 293.976562 176.566406 293.78125 174.214844 293.78125 171.949219 C 293.78125 169.683594 293.976562 167.332031 294.367188 164.941406 L 284.566406 156.996094 C 283.996094 156.535156 283.765625 155.769531 283.988281 155.070312 C 285.242188 151.082031 286.898438 147.292969 288.910156 143.808594 C 290.917969 140.332031 293.371094 137.003906 296.199219 133.917969 C 296.695312 133.375 297.472656 133.191406 298.160156 133.457031 L 309.945312 137.976562 C 313.585938 135.003906 317.65625 132.652344 322.078125 130.976562 L 324.054688 118.503906 C 324.171875 117.777344 324.71875 117.195312 325.433594 117.039062 C 329.523438 116.132812 333.632812 115.671875 337.648438 115.671875 C 341.664062 115.671875 345.773438 116.128906 349.863281 117.039062 C 350.578125 117.195312 351.125 117.777344 351.242188 118.503906 L 353.222656 130.976562 C 357.640625 132.652344 361.714844 135.003906 365.351562 137.976562 L 377.140625 133.457031 C 377.824219 133.191406 378.601562 133.375 379.097656 133.917969 C 381.925781 137.003906 384.378906 140.332031 386.386719 143.808594 C 388.394531 147.289062 390.050781 151.074219 391.3125 155.070312 C 391.53125 155.769531 391.300781 156.535156 390.730469 156.996094 L 380.929688 164.941406 C 381.320312 167.332031 381.519531 169.683594 381.519531 171.949219 C 381.519531 174.214844 381.320312 176.566406 380.929688 178.957031 L 390.730469 186.902344 C 391.300781 187.363281 391.53125 188.128906 391.3125 188.828125 C 390.050781 192.824219 388.394531 196.613281 386.390625 200.089844 C 384.378906 203.566406 381.925781 206.894531 379.097656 209.980469 C 378.601562 210.523438 377.824219 210.707031 377.136719 210.441406 L 365.355469 205.921875 C 361.714844 208.894531 357.644531 211.242188 353.222656 212.921875 L 351.242188 225.394531 C 351.125 226.121094 350.578125 226.703125 349.863281 226.859375 C 345.765625 227.765625 341.65625 228.226562 337.648438 228.226562 Z M 327.394531 223.617188 C 330.84375 224.304688 334.289062 224.652344 337.648438 224.652344 C 341.011719 224.652344 344.453125 224.304688 347.902344 223.617188 L 349.855469 211.324219 C 349.957031 210.675781 350.40625 210.136719 351.027344 209.917969 C 355.757812 208.246094 360.074219 205.757812 363.847656 202.519531 C 364.347656 202.09375 365.039062 201.972656 365.652344 202.207031 L 377.269531 206.664062 C 379.582031 204.023438 381.605469 201.214844 383.292969 198.300781 C 384.972656 195.386719 386.394531 192.230469 387.523438 188.90625 L 377.863281 181.074219 C 377.351562 180.660156 377.109375 180.003906 377.230469 179.359375 C 377.710938 176.785156 377.941406 174.363281 377.941406 171.949219 C 377.941406 169.535156 377.710938 167.113281 377.230469 164.539062 C 377.109375 163.894531 377.351562 163.234375 377.863281 162.824219 L 387.523438 154.992188 C 386.398438 151.671875 384.976562 148.515625 383.292969 145.597656 C 381.605469 142.679688 379.582031 139.871094 377.269531 137.234375 L 365.652344 141.691406 C 365.039062 141.925781 364.34375 141.804688 363.847656 141.378906 C 360.070312 138.136719 355.757812 135.648438 351.027344 133.980469 C 350.40625 133.761719 349.957031 133.222656 349.855469 132.574219 L 347.902344 120.28125 C 344.460938 119.59375 341.019531 119.246094 337.648438 119.246094 C 334.28125 119.246094 330.835938 119.59375 327.394531 120.28125 L 325.445312 132.574219 C 325.339844 133.222656 324.890625 133.761719 324.273438 133.980469 C 319.542969 135.648438 315.226562 138.136719 311.449219 141.378906 C 310.953125 141.804688 310.261719 141.925781 309.644531 141.691406 L 298.027344 137.234375 C 295.710938 139.871094 293.691406 142.679688 292.007812 145.597656 C 290.320312 148.519531 288.898438 151.675781 287.773438 154.992188 L 297.433594 162.824219 C 297.945312 163.234375 298.1875 163.894531 298.066406 164.539062 C 297.589844 167.113281 297.355469 169.535156 297.355469 171.949219 C 297.355469 174.359375 297.589844 176.785156 298.066406 179.359375 C 298.1875 180.003906 297.945312 180.660156 297.433594 181.074219 L 287.773438 188.90625 C 288.902344 192.226562 290.320312 195.378906 292.007812 198.300781 C 293.691406 201.214844 295.710938 204.023438 298.027344 206.664062 L 309.644531 202.207031 C 310.261719 201.972656 310.953125 202.09375 311.449219 202.519531 C 315.222656 205.757812 319.539062 208.246094 324.273438 209.917969 C 324.890625 210.136719 325.339844 210.675781 325.445312 211.324219 Z M 327.394531 223.617188 " fill-opacity="1" fill-rule="nonzero"/></g><path fill="#ffffff" d="M 354.269531 155.324219 C 354.8125 155.871094 355.328125 156.441406 355.816406 157.035156 C 356.304688 157.628906 356.765625 158.246094 357.191406 158.886719 C 357.621094 159.527344 358.015625 160.1875 358.378906 160.867188 C 358.742188 161.546875 359.070312 162.242188 359.363281 162.953125 C 359.660156 163.664062 359.917969 164.386719 360.140625 165.125 C 360.363281 165.863281 360.550781 166.609375 360.703125 167.363281 C 360.851562 168.117188 360.964844 168.878906 361.039062 169.644531 C 361.117188 170.410156 361.152344 171.179688 361.152344 171.949219 C 361.152344 172.71875 361.117188 173.488281 361.039062 174.253906 C 360.964844 175.019531 360.851562 175.78125 360.703125 176.535156 C 360.550781 177.292969 360.367188 178.039062 360.140625 178.773438 C 359.917969 179.511719 359.660156 180.234375 359.363281 180.945312 C 359.070312 181.65625 358.742188 182.351562 358.378906 183.03125 C 358.015625 183.710938 357.621094 184.371094 357.191406 185.011719 C 356.765625 185.652344 356.304688 186.269531 355.816406 186.863281 C 355.328125 187.460938 354.8125 188.03125 354.269531 188.574219 C 353.722656 189.117188 353.152344 189.636719 352.558594 190.125 C 351.964844 190.613281 351.347656 191.070312 350.707031 191.5 C 350.066406 191.925781 349.40625 192.320312 348.726562 192.683594 C 348.046875 193.046875 347.351562 193.375 346.640625 193.671875 C 345.929688 193.964844 345.207031 194.222656 344.46875 194.449219 C 343.730469 194.671875 342.984375 194.859375 342.230469 195.007812 C 341.476562 195.160156 340.714844 195.273438 339.949219 195.347656 C 339.183594 195.421875 338.414062 195.460938 337.644531 195.460938 C 336.875 195.460938 336.105469 195.421875 335.339844 195.347656 C 334.574219 195.273438 333.8125 195.160156 333.058594 195.007812 C 332.300781 194.859375 331.554688 194.671875 330.820312 194.449219 C 330.082031 194.226562 329.359375 193.964844 328.648438 193.671875 C 327.933594 193.375 327.238281 193.046875 326.5625 192.683594 C 325.882812 192.320312 325.222656 191.925781 324.582031 191.5 C 323.941406 191.070312 323.324219 190.613281 322.730469 190.125 C 322.132812 189.636719 321.5625 189.121094 321.019531 188.574219 C 320.476562 188.03125 319.957031 187.460938 319.46875 186.867188 C 318.980469 186.269531 318.523438 185.652344 318.09375 185.011719 C 317.667969 184.371094 317.273438 183.710938 316.910156 183.035156 C 316.546875 182.355469 316.21875 181.660156 315.921875 180.949219 C 315.628906 180.234375 315.367188 179.511719 315.144531 178.773438 C 314.921875 178.039062 314.734375 177.292969 314.585938 176.539062 C 314.433594 175.78125 314.320312 175.019531 314.246094 174.253906 C 314.171875 173.488281 314.132812 172.71875 314.132812 171.949219 C 314.132812 171.179688 314.171875 170.414062 314.246094 169.644531 C 314.320312 168.878906 314.433594 168.117188 314.585938 167.363281 C 314.734375 166.609375 314.921875 165.863281 315.144531 165.125 C 315.367188 164.390625 315.628906 163.664062 315.921875 162.953125 C 316.21875 162.242188 316.546875 161.546875 316.910156 160.867188 C 317.273438 160.1875 317.667969 159.527344 318.09375 158.886719 C 318.523438 158.25 318.980469 157.628906 319.46875 157.035156 C 319.957031 156.441406 320.472656 155.871094 321.019531 155.324219 C 321.5625 154.78125 322.132812 154.265625 322.726562 153.777344 C 323.324219 153.289062 323.941406 152.828125 324.582031 152.402344 C 325.222656 151.972656 325.882812 151.578125 326.558594 151.214844 C 327.238281 150.851562 327.933594 150.523438 328.644531 150.230469 C 329.359375 149.933594 330.082031 149.675781 330.820312 149.453125 C 331.554688 149.226562 332.300781 149.042969 333.054688 148.890625 C 333.8125 148.742188 334.574219 148.628906 335.339844 148.554688 C 336.105469 148.476562 336.875 148.441406 337.644531 148.441406 C 338.414062 148.441406 339.179688 148.476562 339.949219 148.550781 C 340.714844 148.628906 341.476562 148.742188 342.230469 148.890625 C 342.984375 149.042969 343.730469 149.226562 344.46875 149.453125 C 345.203125 149.675781 345.929688 149.933594 346.640625 150.230469 C 347.351562 150.523438 348.046875 150.851562 348.726562 151.214844 C 349.40625 151.578125 350.066406 151.972656 350.703125 152.402344 C 351.34375 152.828125 351.964844 153.289062 352.558594 153.777344 C 353.152344 154.265625 353.722656 154.78125 354.269531 155.324219 Z M 354.269531 155.324219 " fill-opacity="1" fill-rule="nonzero"/><path fill="#252525" d="M 337.648438 197.246094 C 323.699219 197.246094 312.351562 185.898438 312.351562 171.949219 C 312.351562 158 323.699219 146.652344 337.648438 146.652344 C 351.597656 146.652344 362.949219 158 362.949219 171.949219 C 362.949219 185.898438 351.597656 197.246094 337.648438 197.246094 Z M 337.648438 150.226562 C 325.671875 150.226562 315.925781 159.972656 315.925781 171.949219 C 315.925781 183.925781 325.671875 193.671875 337.648438 193.671875 C 349.625 193.671875 359.371094 183.925781 359.371094 171.949219 C 359.371094 159.972656 349.625 150.226562 337.648438 150.226562 Z M 337.648438 150.226562 " fill-opacity="1" fill-rule="nonzero"/><path fill="#252525" d="M 143.273438 207.695312 L 109.050781 207.695312 C 108.0625 207.695312 107.261719 206.894531 107.261719 205.910156 C 107.261719 204.921875 108.0625 204.121094 109.050781 204.121094 L 141.484375 204.121094 L 141.484375 154.265625 C 141.484375 153.277344 142.285156 152.476562 143.273438 152.476562 C 144.261719 152.476562 145.0625 153.277344 145.0625 154.265625 L 145.0625 205.910156 C 145.0625 206.894531 144.261719 207.695312 143.273438 207.695312 Z M 143.273438 207.695312 " fill-opacity="1" fill-rule="nonzero"/><path fill="#252525" d="M 160.027344 172.804688 C 159.570312 172.804688 159.113281 172.632812 158.761719 172.28125 L 143.273438 156.792969 L 127.785156 172.28125 C 127.085938 172.980469 125.953125 172.980469 125.253906 172.28125 C 124.558594 171.585938 124.558594 170.453125 125.253906 169.753906 L 142.007812 153 C 142.707031 152.300781 143.839844 152.300781 144.539062 153 L 161.292969 169.753906 C 161.988281 170.453125 161.988281 171.585938 161.292969 172.28125 C 160.941406 172.632812 160.484375 172.804688 160.027344 172.804688 Z M 160.027344 172.804688 " fill-opacity="1" fill-rule="nonzero"/><path fill="#252525" d="M 39.285156 144.359375 C 38.8125 144.359375 38.355469 144.171875 38.019531 143.835938 L 21.265625 127.082031 C 20.570312 126.386719 20.570312 125.253906 21.265625 124.554688 C 21.964844 123.855469 23.097656 123.855469 23.796875 124.554688 L 39.285156 140.042969 L 54.773438 124.554688 C 55.472656 123.855469 56.605469 123.855469 57.304688 124.554688 C 58 125.253906 58 126.386719 57.304688 127.082031 L 40.550781 143.835938 C 40.214844 144.171875 39.757812 144.359375 39.285156 144.359375 Z M 39.285156 144.359375 " fill-opacity="1" fill-rule="nonzero"/><path fill="#252525" d="M 39.285156 143.851562 C 38.296875 143.851562 37.496094 143.050781 37.496094 142.0625 L 37.496094 89.609375 C 37.496094 88.621094 38.296875 87.820312 39.285156 87.820312 L 69.558594 87.820312 C 70.546875 87.820312 71.347656 88.621094 71.347656 89.609375 C 71.347656 90.59375 70.546875 91.394531 69.558594 91.394531 L 41.074219 91.394531 L 41.074219 142.0625 C 41.074219 143.050781 40.273438 143.851562 39.285156 143.851562 Z M 39.285156 143.851562 " fill-opacity="1" fill-rule="nonzero"/><path fill="#ffffff" d="M 109.050781 189.136719 L 109.050781 248.527344 C 109.050781 253.527344 104.996094 257.582031 99.996094 257.582031 L 12.804688 257.582031 C 7.804688 257.582031 3.75 253.53125 3.746094 248.527344 L 3.738281 223.355469 L 3.75 223.355469 L 3.75 189.136719 Z M 109.050781 189.136719 " fill-opacity="1" fill-rule="nonzero"/><g clip-path="url(#a37f2f4054)"><path fill="#252525" d="M 99.996094 259.371094 L 12.804688 259.371094 C 6.824219 259.371094 1.960938 254.507812 1.960938 248.53125 L 1.949219 223.355469 C 1.949219 223.289062 1.953125 223.222656 1.960938 223.15625 L 1.960938 189.136719 C 1.960938 188.148438 2.761719 187.347656 3.75 187.347656 L 109.050781 187.347656 C 110.039062 187.347656 110.839844 188.148438 110.839844 189.136719 L 110.839844 248.527344 C 110.839844 254.503906 105.976562 259.371094 99.996094 259.371094 Z M 5.527344 223.554688 L 5.535156 248.527344 C 5.535156 252.535156 8.796875 255.792969 12.804688 255.792969 L 99.996094 255.792969 C 104.003906 255.792969 107.265625 252.535156 107.265625 248.527344 L 107.265625 190.921875 L 5.539062 190.921875 L 5.539062 223.355469 C 5.539062 223.421875 5.535156 223.488281 5.527344 223.554688 Z M 5.527344 223.554688 " fill-opacity="1" fill-rule="nonzero"/></g><path fill="#998066" d="M 3.746094 189.132812 L 109.050781 189.132812 L 109.050781 166.597656 C 109.050781 161.59375 104.996094 157.539062 99.992188 157.539062 L 12.800781 157.539062 C 7.800781 157.539062 3.746094 161.59375 3.746094 166.597656 Z M 3.746094 189.132812 " fill-opacity="1" fill-rule="nonzero"/><g clip-path="url(#db5e0f4857)"><path fill="#252525" d="M 109.050781 190.921875 L 3.746094 190.921875 C 2.757812 190.921875 1.957031 190.121094 1.957031 189.132812 L 1.957031 166.597656 C 1.957031 160.617188 6.820312 155.753906 12.800781 155.753906 L 99.992188 155.753906 C 105.972656 155.753906 110.835938 160.617188 110.835938 166.597656 L 110.835938 189.132812 C 110.835938 190.121094 110.035156 190.921875 109.050781 190.921875 Z M 5.53125 187.34375 L 107.261719 187.34375 L 107.261719 166.597656 C 107.261719 162.589844 104 159.328125 99.992188 159.328125 L 12.800781 159.328125 C 8.792969 159.328125 5.53125 162.589844 5.53125 166.597656 Z M 5.53125 187.34375 " fill-opacity="1" fill-rule="nonzero"/></g><path fill="#ffffff" d="M 176.449219 71.171875 L 176.449219 130.5625 C 176.449219 135.5625 172.394531 139.617188 167.394531 139.617188 L 80.199219 139.617188 C 75.199219 139.617188 71.144531 135.5625 71.144531 130.5625 L 71.136719 105.390625 L 71.148438 105.390625 L 71.148438 71.171875 Z M 176.449219 71.171875 " fill-opacity="1" fill-rule="nonzero"/><path fill="#252525" d="M 167.394531 141.40625 L 80.199219 141.40625 C 74.222656 141.40625 69.359375 136.542969 69.355469 130.5625 L 69.347656 105.390625 C 69.347656 105.324219 69.351562 105.257812 69.359375 105.191406 L 69.359375 71.171875 C 69.359375 70.183594 70.160156 69.382812 71.148438 69.382812 L 176.449219 69.382812 C 177.4375 69.382812 178.238281 70.183594 178.238281 71.171875 L 178.238281 130.5625 C 178.238281 136.539062 173.371094 141.40625 167.394531 141.40625 Z M 72.925781 105.589844 L 72.933594 130.5625 C 72.933594 134.570312 76.195312 137.828125 80.199219 137.828125 L 167.394531 137.828125 C 171.402344 137.828125 174.660156 134.570312 174.660156 130.5625 L 174.660156 72.957031 L 72.933594 72.957031 L 72.933594 105.390625 C 72.933594 105.457031 72.929688 105.523438 72.925781 105.589844 Z M 72.925781 105.589844 " fill-opacity="1" fill-rule="nonzero"/><path fill="#5c7a8a" d="M 71.140625 71.167969 L 176.445312 71.167969 L 176.445312 48.632812 C 176.445312 43.628906 172.390625 39.574219 167.390625 39.574219 L 80.199219 39.574219 C 75.195312 39.574219 71.140625 43.628906 71.140625 48.632812 Z M 71.140625 71.167969 " fill-opacity="1" fill-rule="nonzero"/><path fill="#252525" d="M 176.445312 72.953125 L 71.140625 72.953125 C 70.15625 72.953125 69.355469 72.15625 69.355469 71.167969 L 69.355469 48.632812 C 69.355469 42.652344 74.21875 37.789062 80.199219 37.789062 L 167.390625 37.789062 C 173.371094 37.789062 178.234375 42.652344 178.234375 48.632812 L 178.234375 71.167969 C 178.234375 72.15625 177.433594 72.953125 176.445312 72.953125 Z M 72.929688 69.378906 L 174.660156 69.378906 L 174.660156 48.632812 C 174.660156 44.625 171.398438 41.363281 167.390625 41.363281 L 80.199219 41.363281 C 76.191406 41.363281 72.929688 44.625 72.929688 48.632812 Z M 72.929688 69.378906 " fill-opacity="1" fill-rule="nonzero"/><path fill="#252525" d="M 119.199219 96.636719 L 88.28125 96.636719 C 87.296875 96.636719 86.496094 95.835938 86.496094 94.847656 C 86.496094 93.859375 87.296875 93.058594 88.28125 93.058594 L 119.199219 93.058594 C 120.183594 93.058594 120.984375 93.859375 120.984375 94.847656 C 120.984375 95.835938 120.183594 96.636719 119.199219 96.636719 Z M 119.199219 96.636719 " fill-opacity="1" fill-rule="nonzero"/><path fill="#252525" d="M 141.890625 114.726562 L 88.28125 114.726562 C 87.296875 114.726562 86.496094 113.925781 86.496094 112.9375 C 86.496094 111.949219 87.296875 111.148438 88.28125 111.148438 L 141.890625 111.148438 C 142.878906 111.148438 143.679688 111.949219 143.679688 112.9375 C 143.679688 113.925781 142.878906 114.726562 141.890625 114.726562 Z M 141.890625 114.726562 " fill-opacity="1" fill-rule="nonzero"/><path fill="#252525" d="M 52.984375 216.101562 L 22.066406 216.101562 C 21.082031 216.101562 20.28125 215.300781 20.28125 214.316406 C 20.28125 213.328125 21.082031 212.527344 22.066406 212.527344 L 52.984375 212.527344 C 53.96875 212.527344 54.769531 213.328125 54.769531 214.316406 C 54.769531 215.300781 53.96875 216.101562 52.984375 216.101562 Z M 52.984375 216.101562 " fill-opacity="1" fill-rule="nonzero"/><path fill="#252525" d="M 75.675781 234.191406 L 22.066406 234.191406 C 21.082031 234.191406 20.28125 233.390625 20.28125 232.402344 C 20.28125 231.414062 21.082031 230.613281 22.066406 230.613281 L 75.675781 230.613281 C 76.664062 230.613281 77.464844 231.414062 77.464844 232.402344 C 77.464844 233.390625 76.664062 234.191406 75.675781 234.191406 Z M 75.675781 234.191406 " fill-opacity="1" fill-rule="nonzero"/><path fill="#ffffff" d="M 299.429688 363.636719 L 272.6875 333.878906 L 288.734375 295.820312 L 293.761719 265.515625 C 294.148438 263.542969 292.933594 261.613281 290.992188 261.117188 L 290.835938 261.078125 C 285.265625 259.660156 279.566406 262.898438 277.90625 268.425781 L 268.351562 299.039062 L 268.5625 299.042969 L 268.5625 231.359375 C 268.5625 226.933594 264.988281 223.339844 260.578125 223.339844 C 256.167969 223.339844 252.589844 226.933594 252.589844 231.359375 L 252.589844 271.453125 L 252.589844 220.382812 C 252.589844 215.953125 249.015625 212.363281 244.605469 212.363281 C 240.195312 212.363281 236.617188 215.953125 236.617188 220.382812 L 236.617188 261.289062 L 236.617188 224.988281 C 236.617188 220.152344 232.71875 216.238281 227.90625 216.238281 C 223.09375 216.238281 219.191406 220.152344 219.191406 224.988281 L 219.191406 243.863281 L 219.191406 238.074219 C 219.191406 233.265625 215.308594 229.363281 210.519531 229.363281 C 205.730469 229.363281 201.847656 233.265625 201.847656 238.074219 L 201.847656 324.9375 L 230.746094 357.796875 L 246.78125 377.453125 Z M 299.429688 363.636719 " fill-opacity="1" fill-rule="nonzero"/><g clip-path="url(#e76733becd)"><path fill="#252525" d="M 246.785156 379.242188 C 246.265625 379.242188 245.75 379.019531 245.398438 378.585938 L 229.382812 358.953125 L 200.503906 326.117188 C 200.21875 325.792969 200.058594 325.371094 200.058594 324.9375 L 200.058594 238.074219 C 200.058594 232.285156 204.753906 227.578125 210.519531 227.578125 C 213.152344 227.578125 215.5625 228.558594 217.40625 230.175781 L 217.40625 224.988281 C 217.40625 219.175781 222.113281 214.449219 227.90625 214.449219 C 230.769531 214.449219 233.371094 215.605469 235.265625 217.480469 C 236.503906 213.484375 240.222656 210.574219 244.605469 210.574219 C 249.992188 210.574219 254.378906 214.972656 254.378906 220.382812 L 254.378906 223.78125 C 256.066406 222.390625 258.226562 221.554688 260.578125 221.554688 C 265.964844 221.554688 270.351562 225.953125 270.351562 231.359375 L 270.351562 286.632812 L 276.195312 267.902344 C 278.140625 261.445312 284.761719 257.6875 291.277344 259.347656 L 291.433594 259.386719 C 294.285156 260.109375 296.074219 262.941406 295.523438 265.832031 L 290.5 296.113281 C 290.476562 296.25 290.4375 296.382812 290.382812 296.511719 L 274.777344 333.527344 L 300.761719 362.441406 C 301.421875 363.175781 301.359375 364.304688 300.625 364.964844 C 299.890625 365.625 298.761719 365.566406 298.101562 364.832031 L 271.359375 335.074219 C 270.894531 334.558594 270.773438 333.820312 271.042969 333.183594 L 287.003906 295.320312 L 292 265.222656 C 292 265.207031 292.003906 265.1875 292.007812 265.171875 C 292.210938 264.128906 291.570312 263.109375 290.550781 262.851562 L 290.394531 262.8125 C 285.742188 261.625 281.003906 264.316406 279.617188 268.9375 C 279.617188 268.945312 279.613281 268.949219 279.613281 268.957031 L 270.351562 298.636719 L 270.351562 299.042969 C 270.351562 299.519531 270.160156 299.976562 269.820312 300.3125 C 269.484375 300.648438 269.027344 300.839844 268.546875 300.832031 L 268.335938 300.828125 C 267.769531 300.824219 267.242188 300.550781 266.90625 300.09375 C 266.574219 299.636719 266.476562 299.046875 266.644531 298.507812 L 266.773438 298.09375 L 266.773438 231.359375 C 266.773438 227.925781 263.996094 225.128906 260.578125 225.128906 C 257.160156 225.128906 254.378906 227.925781 254.378906 231.359375 L 254.378906 271.453125 C 254.378906 272.441406 253.578125 273.242188 252.589844 273.242188 C 251.601562 273.242188 250.800781 272.441406 250.800781 271.453125 L 250.800781 220.382812 C 250.800781 216.945312 248.023438 214.148438 244.605469 214.148438 C 241.1875 214.148438 238.40625 216.945312 238.40625 220.382812 L 238.40625 261.289062 C 238.40625 262.277344 237.605469 263.078125 236.617188 263.078125 C 235.628906 263.078125 234.828125 262.277344 234.828125 261.289062 L 234.828125 224.988281 C 234.828125 221.148438 231.722656 218.023438 227.90625 218.023438 C 224.085938 218.023438 220.980469 221.148438 220.980469 224.988281 L 220.980469 243.863281 C 220.980469 244.851562 220.179688 245.652344 219.191406 245.652344 C 218.207031 245.652344 217.40625 244.851562 217.40625 243.863281 L 217.40625 238.074219 C 217.40625 234.257812 214.316406 231.152344 210.519531 231.152344 C 206.722656 231.152344 203.636719 234.257812 203.636719 238.074219 L 203.636719 324.265625 L 232.089844 356.617188 C 232.101562 356.632812 232.117188 356.648438 232.132812 356.667969 L 248.167969 376.324219 C 248.792969 377.089844 248.675781 378.214844 247.914062 378.839844 C 247.582031 379.109375 247.179688 379.242188 246.785156 379.242188 Z M 246.785156 379.242188 " fill-opacity="1" fill-rule="nonzero"/></g><path fill="#ffffff" d="M 215.0625 377.453125 C 215.8125 377.453125 216.5 377.027344 216.835938 376.355469 L 220.367188 369.238281 C 228.964844 359.5 233.714844 346.9375 233.714844 333.921875 L 233.714844 280.441406 C 233.714844 276.011719 230.136719 272.421875 225.726562 272.421875 C 221.316406 272.421875 217.742188 276.011719 217.742188 280.441406 L 217.742188 312.113281 L 217.742188 259.554688 C 217.742188 255.144531 214.179688 251.570312 209.789062 251.570312 C 205.394531 251.570312 201.835938 255.144531 201.835938 259.554688 L 201.769531 307.753906 L 201.769531 254.898438 C 201.769531 250.46875 198.191406 246.875 193.78125 246.875 C 189.371094 246.875 185.796875 250.46875 185.796875 254.898438 L 185.796875 307.753906 L 185.796875 267.960938 C 185.796875 263.53125 182.21875 259.9375 177.808594 259.9375 C 173.398438 259.9375 169.824219 263.53125 169.824219 267.960938 L 169.824219 332.441406 L 170.0625 332.425781 L 161.011719 304.65625 C 159.386719 299.253906 153.816406 296.089844 148.371094 297.476562 L 148.21875 297.515625 C 146.320312 297.996094 145.492188 299.039062 145.511719 301.8125 L 149.828125 330.976562 L 162.75 361.503906 L 156.753906 377.453125 Z M 215.0625 377.453125 " fill-opacity="1" fill-rule="nonzero"/><g clip-path="url(#e8b21fc5bf)"><path fill="#252525" d="M 156.753906 379.242188 C 156.542969 379.242188 156.332031 379.207031 156.125 379.128906 C 155.199219 378.78125 154.734375 377.75 155.078125 376.824219 L 160.824219 361.542969 L 148.179688 331.671875 C 148.121094 331.535156 148.078125 331.386719 148.058594 331.238281 L 143.742188 302.074219 C 143.730469 301.992188 143.722656 301.910156 143.722656 301.828125 C 143.707031 299.496094 144.152344 296.703125 147.777344 295.78125 L 147.929688 295.742188 C 154.3125 294.117188 160.804688 297.796875 162.714844 304.121094 L 168.035156 320.433594 L 168.035156 267.960938 C 168.035156 262.550781 172.417969 258.152344 177.808594 258.152344 C 180.160156 258.152344 182.320312 258.988281 184.007812 260.382812 L 184.007812 254.898438 C 184.007812 249.488281 188.390625 245.089844 193.78125 245.089844 C 198.289062 245.089844 202.097656 248.167969 203.21875 252.34375 C 204.953125 250.753906 207.257812 249.78125 209.789062 249.78125 C 215.160156 249.78125 219.527344 254.164062 219.527344 259.554688 L 219.527344 272.863281 C 221.214844 271.46875 223.375 270.632812 225.726562 270.632812 C 231.117188 270.632812 235.5 275.03125 235.5 280.441406 L 235.5 333.921875 C 235.5 347.308594 230.660156 360.195312 221.863281 370.242188 L 218.433594 377.148438 C 217.796875 378.441406 216.503906 379.242188 215.0625 379.242188 C 214.074219 379.242188 213.273438 378.441406 213.273438 377.453125 C 213.273438 376.46875 214.074219 375.667969 215.0625 375.667969 C 215.132812 375.667969 215.199219 375.625 215.230469 375.5625 L 218.761719 368.445312 C 218.832031 368.304688 218.921875 368.171875 219.023438 368.054688 C 227.34375 358.636719 231.925781 346.515625 231.925781 333.921875 L 231.925781 280.441406 C 231.925781 277.003906 229.144531 274.210938 225.726562 274.210938 C 222.308594 274.210938 219.527344 277.003906 219.527344 280.441406 L 219.527344 312.113281 C 219.527344 313.097656 218.726562 313.898438 217.742188 313.898438 C 216.753906 313.898438 215.953125 313.097656 215.953125 312.113281 L 215.953125 259.554688 C 215.953125 256.136719 213.1875 253.355469 209.789062 253.355469 C 206.386719 253.355469 203.625 256.136719 203.625 259.554688 L 203.554688 307.757812 C 203.554688 308.746094 202.753906 309.542969 201.769531 309.542969 C 201.765625 309.542969 201.765625 309.542969 201.765625 309.542969 C 200.78125 309.542969 199.980469 308.742188 199.980469 307.753906 L 199.980469 254.898438 C 199.980469 251.460938 197.199219 248.664062 193.78125 248.664062 C 190.363281 248.664062 187.582031 251.460938 187.582031 254.898438 L 187.582031 307.753906 C 187.582031 308.742188 186.78125 309.542969 185.796875 309.542969 C 184.808594 309.542969 184.007812 308.742188 184.007812 307.753906 L 184.007812 267.960938 C 184.007812 264.523438 181.226562 261.726562 177.808594 261.726562 C 174.390625 261.726562 171.609375 264.523438 171.609375 267.960938 L 171.609375 331.40625 L 171.761719 331.871094 C 171.933594 332.402344 171.851562 332.980469 171.539062 333.4375 C 171.222656 333.894531 170.714844 334.183594 170.160156 334.210938 L 169.921875 334.226562 C 169.429688 334.25 168.949219 334.078125 168.59375 333.738281 C 168.234375 333.402344 168.035156 332.929688 168.035156 332.441406 L 168.035156 331.972656 L 159.3125 305.210938 C 159.304688 305.195312 159.300781 305.183594 159.296875 305.171875 C 157.949219 300.675781 153.339844 298.054688 148.8125 299.207031 L 148.660156 299.246094 C 147.816406 299.460938 147.300781 299.59375 147.296875 301.679688 L 151.5625 330.488281 L 164.394531 360.808594 C 164.574219 361.230469 164.582031 361.707031 164.421875 362.132812 L 158.425781 378.082031 C 158.15625 378.800781 157.476562 379.242188 156.753906 379.242188 Z M 156.753906 379.242188 " fill-opacity="1" fill-rule="nonzero"/></g><path fill="#252525" d="M 180.179688 235.507812 C 179.722656 235.507812 179.261719 235.332031 178.914062 234.980469 L 161.566406 217.5625 C 160.871094 216.863281 160.875 215.730469 161.574219 215.035156 C 162.273438 214.335938 163.40625 214.339844 164.101562 215.039062 L 181.449219 232.457031 C 182.144531 233.15625 182.140625 234.289062 181.441406 234.988281 C 181.09375 235.332031 180.636719 235.507812 180.179688 235.507812 Z M 180.179688 235.507812 " fill-opacity="1" fill-rule="nonzero"/><path fill="#252525" d="M 190.152344 228.226562 C 189.164062 228.226562 188.363281 227.425781 188.363281 226.4375 L 188.363281 209.015625 C 188.363281 208.027344 189.164062 207.226562 190.152344 207.226562 C 191.136719 207.226562 191.9375 208.027344 191.9375 209.015625 L 191.9375 226.4375 C 191.9375 227.425781 191.136719 228.226562 190.152344 228.226562 Z M 190.152344 228.226562 " fill-opacity="1" fill-rule="nonzero"/><path fill="#252525" d="M 174.179688 245.652344 L 156.753906 245.652344 C 155.765625 245.652344 154.964844 244.851562 154.964844 243.863281 C 154.964844 242.875 155.765625 242.074219 156.753906 242.074219 L 174.179688 242.074219 C 175.164062 242.074219 175.964844 242.875 175.964844 243.863281 C 175.964844 244.851562 175.164062 245.652344 174.179688 245.652344 Z M 174.179688 245.652344 " fill-opacity="1" fill-rule="nonzero"/></svg>