<svg xmlns="http://www.w3.org/2000/svg" xmlns:xlink="http://www.w3.org/1999/xlink" width="525" zoomAndPan="magnify" viewBox="0 0 393.75 393.74999" height="525" preserveAspectRatio="xMidYMid meet" version="1.0"><defs><clipPath id="8586064f01"><path d="M 15.492188 115 L 109 115 L 109 347 L 15.492188 347 Z M 15.492188 115 " clip-rule="nonzero"/></clipPath><clipPath id="81f9aab6ad"><path d="M 198 8 L 378.265625 8 L 378.265625 235 L 198 235 Z M 198 8 " clip-rule="nonzero"/></clipPath><clipPath id="1bcdb5b6e7"><path d="M 115 229 L 250 229 L 250 387.105469 L 115 387.105469 Z M 115 229 " clip-rule="nonzero"/></clipPath></defs><g clip-path="url(#8586064f01)"><path fill="#252525" d="M 106.519531 346.394531 C 106.199219 346.394531 105.871094 346.3125 105.574219 346.136719 C 99.757812 342.746094 94.0625 338.988281 88.652344 334.964844 C 87.816406 334.347656 87.644531 333.167969 88.261719 332.332031 C 88.882812 331.5 90.0625 331.324219 90.898438 331.945312 C 96.195312 335.886719 101.773438 339.566406 107.46875 342.882812 C 108.367188 343.40625 108.671875 344.558594 108.148438 345.457031 C 107.800781 346.058594 107.167969 346.394531 106.519531 346.394531 Z M 74.359375 322.488281 C 73.902344 322.488281 73.441406 322.320312 73.078125 321.984375 C 68.148438 317.386719 63.425781 312.464844 59.042969 307.351562 C 58.363281 306.5625 58.457031 305.375 59.246094 304.699219 C 60.035156 304.023438 61.222656 304.113281 61.898438 304.902344 C 66.195312 309.910156 70.820312 314.730469 75.644531 319.230469 C 76.40625 319.9375 76.445312 321.128906 75.738281 321.890625 C 75.367188 322.289062 74.863281 322.488281 74.359375 322.488281 Z M 48.277344 292.078125 C 47.675781 292.078125 47.082031 291.789062 46.71875 291.253906 C 42.925781 285.679688 39.410156 279.835938 36.265625 273.886719 C 35.78125 272.964844 36.132812 271.828125 37.054688 271.339844 C 37.972656 270.855469 39.113281 271.207031 39.597656 272.128906 C 42.671875 277.957031 46.117188 283.679688 49.832031 289.136719 C 50.417969 289.996094 50.195312 291.167969 49.335938 291.75 C 49.011719 291.972656 48.640625 292.078125 48.277344 292.078125 Z M 29.578125 256.652344 C 28.828125 256.652344 28.117188 256.199219 27.828125 255.457031 C 25.371094 249.183594 23.246094 242.707031 21.511719 236.199219 C 21.242188 235.195312 21.839844 234.164062 22.84375 233.894531 C 23.847656 233.628906 24.878906 234.226562 25.148438 235.230469 C 26.847656 241.601562 28.925781 247.941406 31.332031 254.082031 C 31.710938 255.050781 31.234375 256.144531 30.265625 256.523438 C 30.039062 256.609375 29.808594 256.652344 29.578125 256.652344 Z M 19.257812 217.949219 C 18.339844 217.949219 17.539062 217.277344 17.398438 216.34375 C 16.40625 209.699219 15.777344 202.90625 15.53125 196.160156 C 15.492188 195.121094 16.300781 194.246094 17.339844 194.207031 C 18.378906 194.167969 19.253906 194.980469 19.292969 196.019531 C 19.535156 202.628906 20.152344 209.28125 21.121094 215.789062 C 21.273438 216.816406 20.566406 217.777344 19.539062 217.929688 C 19.441406 217.941406 19.351562 217.949219 19.257812 217.949219 Z M 17.777344 177.90625 C 17.730469 177.90625 17.683594 177.90625 17.636719 177.902344 C 16.601562 177.824219 15.824219 176.921875 15.898438 175.886719 C 16.394531 169.152344 17.273438 162.386719 18.511719 155.777344 C 18.703125 154.753906 19.6875 154.082031 20.707031 154.273438 C 21.730469 154.464844 22.402344 155.445312 22.210938 156.46875 C 21 162.941406 20.136719 169.566406 19.652344 176.160156 C 19.582031 177.152344 18.753906 177.90625 17.777344 177.90625 Z M 25.164062 138.519531 C 24.980469 138.519531 24.792969 138.492188 24.609375 138.4375 C 23.617188 138.132812 23.058594 137.078125 23.363281 136.085938 C 25.339844 129.644531 27.707031 123.246094 30.398438 117.066406 C 30.8125 116.113281 31.921875 115.675781 32.875 116.089844 C 33.828125 116.503906 34.265625 117.613281 33.847656 118.566406 C 31.214844 124.617188 28.898438 130.882812 26.960938 137.1875 C 26.710938 138 25.96875 138.519531 25.164062 138.519531 Z M 25.164062 138.519531 " fill-opacity="1" fill-rule="nonzero"/></g><path fill="#252525" d="M 269.109375 355.460938 C 268.386719 355.460938 267.699219 355.042969 267.386719 354.339844 C 266.96875 353.386719 267.398438 352.277344 268.351562 351.855469 C 275.511719 348.695312 282.539062 345.015625 289.230469 340.917969 C 290.117188 340.375 291.277344 340.65625 291.820312 341.542969 C 292.363281 342.429688 292.082031 343.585938 291.195312 344.128906 C 284.363281 348.3125 277.1875 352.070312 269.871094 355.300781 C 269.625 355.410156 269.363281 355.460938 269.109375 355.460938 Z M 309.667969 330.652344 C 309.121094 330.652344 308.578125 330.414062 308.207031 329.957031 C 307.550781 329.148438 307.675781 327.964844 308.480469 327.308594 C 314.566406 322.371094 320.382812 316.976562 325.769531 311.277344 C 326.484375 310.523438 327.675781 310.488281 328.429688 311.203125 C 329.183594 311.917969 329.21875 313.109375 328.503906 313.863281 C 323.007812 319.683594 317.066406 325.191406 310.851562 330.234375 C 310.503906 330.515625 310.085938 330.652344 309.667969 330.652344 Z M 309.667969 330.652344 " fill-opacity="1" fill-rule="nonzero"/><g clip-path="url(#81f9aab6ad)"><path fill="#252525" d="M 370.816406 234.753906 C 370.664062 234.753906 370.511719 234.734375 370.359375 234.695312 C 369.351562 234.445312 368.734375 233.425781 368.988281 232.414062 C 370.6875 225.582031 371.996094 218.5625 372.867188 211.554688 C 372.996094 210.523438 373.9375 209.789062 374.96875 209.917969 C 376 210.046875 376.734375 210.988281 376.605469 212.019531 C 375.710938 219.175781 374.378906 226.347656 372.640625 233.324219 C 372.425781 234.179688 371.660156 234.753906 370.816406 234.753906 Z M 376.121094 192.269531 C 376.117188 192.269531 376.113281 192.269531 376.109375 192.269531 C 375.070312 192.261719 374.230469 191.417969 374.238281 190.375 C 374.238281 190.042969 374.242188 189.707031 374.242188 189.371094 C 374.242188 182.632812 373.859375 175.84375 373.105469 169.1875 C 372.988281 168.15625 373.730469 167.222656 374.765625 167.109375 C 375.796875 166.992188 376.730469 167.734375 376.847656 168.765625 C 377.617188 175.558594 378.003906 182.492188 378.003906 189.371094 C 378.003906 189.714844 378.003906 190.054688 378.003906 190.398438 C 377.996094 191.433594 377.15625 192.269531 376.121094 192.269531 Z M 371.292969 149.742188 C 370.441406 149.742188 369.667969 149.15625 369.464844 148.292969 C 367.839844 141.429688 365.78125 134.597656 363.34375 127.980469 C 362.980469 127.007812 363.480469 125.925781 364.457031 125.566406 C 365.433594 125.207031 366.515625 125.703125 366.875 126.679688 C 369.363281 133.4375 371.46875 140.417969 373.128906 147.425781 C 373.367188 148.433594 372.742188 149.449219 371.730469 149.6875 C 371.585938 149.722656 371.4375 149.742188 371.292969 149.742188 Z M 356.5 109.578125 C 355.816406 109.578125 355.15625 109.203125 354.824219 108.554688 C 351.613281 102.285156 347.984375 96.140625 344.042969 90.292969 C 343.464844 89.429688 343.691406 88.257812 344.554688 87.679688 C 345.414062 87.097656 346.585938 87.324219 347.164062 88.1875 C 351.191406 94.160156 354.894531 100.4375 358.171875 106.835938 C 358.648438 107.761719 358.28125 108.898438 357.355469 109.371094 C 357.082031 109.511719 356.789062 109.578125 356.5 109.578125 Z M 332.589844 74.089844 C 332.0625 74.089844 331.535156 73.867188 331.164062 73.4375 C 326.558594 68.097656 321.582031 62.980469 316.375 58.226562 C 315.605469 57.527344 315.550781 56.335938 316.253906 55.566406 C 316.953125 54.800781 318.144531 54.746094 318.910156 55.445312 C 324.230469 60.300781 329.3125 65.527344 334.015625 70.976562 C 334.695312 71.765625 334.605469 72.953125 333.820312 73.632812 C 333.464844 73.9375 333.027344 74.089844 332.589844 74.089844 Z M 300.972656 45.226562 C 300.59375 45.226562 300.210938 45.113281 299.878906 44.875 C 294.140625 40.769531 288.09375 36.96875 281.914062 33.582031 C 281.003906 33.082031 280.667969 31.9375 281.167969 31.027344 C 281.667969 30.113281 282.8125 29.78125 283.722656 30.28125 C 290.035156 33.738281 296.207031 37.621094 302.070312 41.8125 C 302.917969 42.417969 303.113281 43.59375 302.507812 44.441406 C 302.140625 44.953125 301.5625 45.226562 300.972656 45.226562 Z M 263.425781 24.652344 C 263.191406 24.652344 262.957031 24.609375 262.726562 24.515625 C 256.175781 21.890625 249.398438 19.636719 242.585938 17.820312 C 241.582031 17.550781 240.984375 16.519531 241.25 15.515625 C 241.519531 14.511719 242.550781 13.914062 243.554688 14.183594 C 250.515625 16.039062 257.4375 18.339844 264.125 21.023438 C 265.089844 21.410156 265.558594 22.503906 265.171875 23.46875 C 264.878906 24.203125 264.171875 24.652344 263.425781 24.652344 Z M 222.0625 13.613281 C 221.976562 13.613281 221.886719 13.605469 221.796875 13.59375 C 214.835938 12.609375 207.722656 12.03125 200.652344 11.878906 C 199.613281 11.855469 198.789062 10.992188 198.8125 9.953125 C 198.835938 8.914062 199.699219 8.089844 200.734375 8.113281 C 207.953125 8.269531 215.21875 8.859375 222.324219 9.867188 C 223.355469 10.011719 224.070312 10.964844 223.925781 11.992188 C 223.792969 12.933594 222.984375 13.613281 222.0625 13.613281 Z M 222.0625 13.613281 " fill-opacity="1" fill-rule="nonzero"/></g><path fill="#ffe88d" d="M 328.4375 189.371094 C 328.4375 191.527344 328.382812 193.679688 328.277344 195.835938 C 328.171875 197.988281 328.015625 200.136719 327.800781 202.28125 C 327.589844 204.429688 327.328125 206.566406 327.011719 208.699219 C 326.695312 210.832031 326.324219 212.957031 325.90625 215.070312 C 325.484375 217.183594 325.011719 219.289062 324.488281 221.378906 C 323.964844 223.46875 323.390625 225.546875 322.765625 227.609375 C 322.136719 229.671875 321.460938 231.71875 320.734375 233.75 C 320.011719 235.78125 319.234375 237.789062 318.410156 239.78125 C 317.585938 241.773438 316.710938 243.742188 315.789062 245.691406 C 314.867188 247.640625 313.898438 249.566406 312.882812 251.46875 C 311.867188 253.371094 310.804688 255.246094 309.695312 257.09375 C 308.585938 258.941406 307.433594 260.765625 306.234375 262.554688 C 305.039062 264.347656 303.796875 266.109375 302.511719 267.84375 C 301.230469 269.574219 299.902344 271.273438 298.535156 272.941406 C 297.167969 274.605469 295.757812 276.238281 294.3125 277.835938 C 292.863281 279.433594 291.378906 280.996094 289.851562 282.519531 C 288.328125 284.042969 286.769531 285.53125 285.171875 286.976562 C 283.574219 288.425781 281.941406 289.832031 280.273438 291.199219 C 278.609375 292.566406 276.910156 293.894531 275.175781 295.179688 C 273.445312 296.460938 271.683594 297.703125 269.890625 298.902344 C 268.097656 300.097656 266.277344 301.253906 264.429688 302.359375 C 262.578125 303.46875 260.703125 304.53125 258.804688 305.546875 C 256.902344 306.5625 254.976562 307.53125 253.027344 308.453125 C 251.078125 309.375 249.109375 310.25 247.117188 311.074219 C 245.125 311.898438 243.113281 312.675781 241.085938 313.402344 C 239.054688 314.128906 237.007812 314.804688 234.945312 315.429688 C 232.882812 316.054688 230.804688 316.628906 228.714844 317.152344 C 226.621094 317.679688 224.519531 318.148438 222.40625 318.570312 C 220.289062 318.992188 218.167969 319.359375 216.035156 319.675781 C 213.902344 319.992188 211.761719 320.257812 209.617188 320.46875 C 207.472656 320.679688 205.320312 320.835938 203.167969 320.945312 C 201.015625 321.050781 198.859375 321.101562 196.707031 321.101562 C 194.550781 321.101562 192.394531 321.050781 190.242188 320.941406 C 188.089844 320.835938 185.9375 320.679688 183.792969 320.46875 C 181.648438 320.257812 179.507812 319.992188 177.375 319.675781 C 175.242188 319.359375 173.121094 318.992188 171.003906 318.570312 C 168.890625 318.148438 166.789062 317.679688 164.695312 317.152344 C 162.605469 316.628906 160.527344 316.054688 158.464844 315.429688 C 156.402344 314.804688 154.355469 314.128906 152.324219 313.402344 C 150.296875 312.675781 148.285156 311.898438 146.292969 311.074219 C 144.300781 310.25 142.332031 309.375 140.382812 308.453125 C 138.433594 307.53125 136.507812 306.5625 134.605469 305.546875 C 132.707031 304.53125 130.832031 303.46875 128.980469 302.359375 C 127.132812 301.253906 125.3125 300.097656 123.519531 298.902344 C 121.726562 297.703125 119.964844 296.460938 118.234375 295.179688 C 116.5 293.894531 114.800781 292.566406 113.136719 291.199219 C 111.46875 289.832031 109.835938 288.425781 108.238281 286.976562 C 106.640625 285.53125 105.082031 284.042969 103.558594 282.519531 C 102.03125 280.996094 100.546875 279.433594 99.097656 277.835938 C 97.652344 276.238281 96.242188 274.605469 94.875 272.941406 C 93.507812 271.273438 92.179688 269.574219 90.898438 267.84375 C 89.613281 266.109375 88.371094 264.347656 87.175781 262.554688 C 85.976562 260.765625 84.824219 258.941406 83.714844 257.09375 C 82.605469 255.246094 81.542969 253.371094 80.527344 251.46875 C 79.511719 249.566406 78.542969 247.640625 77.621094 245.691406 C 76.699219 243.742188 75.824219 241.773438 75 239.78125 C 74.175781 237.789062 73.398438 235.78125 72.675781 233.75 C 71.949219 231.71875 71.273438 229.671875 70.644531 227.609375 C 70.019531 225.546875 69.445312 223.46875 68.921875 221.378906 C 68.398438 219.289062 67.925781 217.183594 67.503906 215.070312 C 67.085938 212.957031 66.714844 210.832031 66.398438 208.699219 C 66.082031 206.566406 65.820312 204.429688 65.609375 202.28125 C 65.398438 200.136719 65.238281 197.988281 65.132812 195.835938 C 65.027344 193.679688 64.972656 191.527344 64.972656 189.371094 C 64.972656 187.214844 65.027344 185.058594 65.132812 182.90625 C 65.238281 180.753906 65.398438 178.605469 65.609375 176.457031 C 65.820312 174.3125 66.082031 172.175781 66.398438 170.042969 C 66.714844 167.910156 67.085938 165.785156 67.503906 163.671875 C 67.925781 161.554688 68.398438 159.453125 68.921875 157.363281 C 69.445312 155.269531 70.019531 153.195312 70.644531 151.128906 C 71.273438 149.066406 71.949219 147.019531 72.675781 144.992188 C 73.398438 142.960938 74.175781 140.949219 75 138.957031 C 75.824219 136.96875 76.699219 134.996094 77.621094 133.046875 C 78.542969 131.097656 79.511719 129.175781 80.527344 127.273438 C 81.542969 125.371094 82.605469 123.496094 83.714844 121.648438 C 84.824219 119.796875 85.976562 117.976562 87.175781 116.183594 C 88.371094 114.390625 89.613281 112.628906 90.898438 110.898438 C 92.179688 109.167969 93.507812 107.46875 94.875 105.800781 C 96.242188 104.132812 97.652344 102.503906 99.097656 100.90625 C 100.546875 99.308594 102.03125 97.746094 103.558594 96.222656 C 105.082031 94.699219 106.640625 93.210938 108.238281 91.765625 C 109.835938 90.316406 111.46875 88.910156 113.136719 87.539062 C 114.800781 86.171875 116.5 84.847656 118.234375 83.5625 C 119.964844 82.277344 121.726562 81.039062 123.519531 79.839844 C 125.3125 78.640625 127.132812 77.488281 128.980469 76.378906 C 130.832031 75.273438 132.707031 74.210938 134.605469 73.195312 C 136.507812 72.175781 138.433594 71.207031 140.382812 70.285156 C 142.332031 69.363281 144.300781 68.492188 146.292969 67.667969 C 148.285156 66.839844 150.296875 66.066406 152.324219 65.339844 C 154.355469 64.613281 156.402344 63.9375 158.464844 63.3125 C 160.527344 62.683594 162.605469 62.109375 164.695312 61.585938 C 166.789062 61.0625 168.890625 60.589844 171.003906 60.171875 C 173.121094 59.75 175.242188 59.382812 177.375 59.066406 C 179.507812 58.75 181.648438 58.484375 183.792969 58.273438 C 185.9375 58.0625 188.089844 57.902344 190.242188 57.796875 C 192.394531 57.691406 194.550781 57.640625 196.707031 57.640625 C 198.859375 57.640625 201.015625 57.691406 203.167969 57.796875 C 205.320312 57.902344 207.472656 58.0625 209.617188 58.273438 C 211.761719 58.484375 213.902344 58.75 216.035156 59.066406 C 218.167969 59.382812 220.289062 59.75 222.40625 60.171875 C 224.519531 60.589844 226.621094 61.0625 228.714844 61.585938 C 230.804688 62.109375 232.882812 62.683594 234.945312 63.3125 C 237.007812 63.9375 239.054688 64.613281 241.085938 65.339844 C 243.113281 66.066406 245.125 66.839844 247.117188 67.667969 C 249.109375 68.492188 251.078125 69.363281 253.027344 70.285156 C 254.976562 71.207031 256.902344 72.175781 258.804688 73.195312 C 260.703125 74.210938 262.578125 75.273438 264.429688 76.378906 C 266.277344 77.488281 268.097656 78.640625 269.890625 79.839844 C 271.683594 81.039062 273.445312 82.277344 275.175781 83.5625 C 276.910156 84.847656 278.609375 86.171875 280.273438 87.539062 C 281.941406 88.910156 283.574219 90.316406 285.171875 91.765625 C 286.769531 93.210938 288.328125 94.699219 289.851562 96.222656 C 291.378906 97.746094 292.863281 99.308594 294.3125 100.90625 C 295.757812 102.503906 297.167969 104.132812 298.535156 105.800781 C 299.902344 107.46875 301.230469 109.167969 302.511719 110.898438 C 303.796875 112.628906 305.039062 114.390625 306.234375 116.183594 C 307.433594 117.976562 308.585938 119.796875 309.695312 121.648438 C 310.804688 123.496094 311.867188 125.371094 312.882812 127.273438 C 313.898438 129.175781 314.867188 131.097656 315.789062 133.046875 C 316.710938 134.996094 317.585938 136.96875 318.410156 138.957031 C 319.234375 140.949219 320.011719 142.960938 320.734375 144.992188 C 321.460938 147.019531 322.136719 149.066406 322.765625 151.128906 C 323.390625 153.195312 323.964844 155.269531 324.488281 157.363281 C 325.011719 159.453125 325.484375 161.554688 325.90625 163.671875 C 326.324219 165.785156 326.695312 167.910156 327.011719 170.042969 C 327.328125 172.175781 327.589844 174.3125 327.800781 176.457031 C 328.015625 178.605469 328.171875 180.753906 328.277344 182.90625 C 328.382812 185.058594 328.4375 187.214844 328.4375 189.371094 Z M 328.4375 189.371094 " fill-opacity="1" fill-rule="nonzero"/><path fill="#609f85" d="M 339.863281 162.203125 C 339.863281 159.121094 339.542969 156.117188 339 153.195312 L 351.363281 143.175781 C 349.992188 138.839844 348.179688 134.578125 345.8125 130.476562 C 343.445312 126.378906 340.664062 122.675781 337.589844 119.324219 L 322.726562 125.023438 C 318.175781 121.121094 312.902344 118.0625 307.132812 116.027344 L 304.632812 100.296875 C 300.195312 99.3125 295.597656 98.753906 290.863281 98.753906 C 286.128906 98.753906 281.53125 99.3125 277.09375 100.296875 L 274.597656 116.027344 C 268.828125 118.0625 263.554688 121.121094 259.003906 125.023438 L 244.136719 119.324219 C 241.066406 122.675781 238.285156 126.378906 235.917969 130.476562 C 233.550781 134.578125 231.734375 138.839844 230.367188 143.175781 L 242.730469 153.195312 C 242.1875 156.117188 241.867188 159.121094 241.867188 162.203125 C 241.867188 165.285156 242.1875 168.285156 242.730469 171.210938 L 230.367188 181.230469 C 231.734375 185.566406 233.550781 189.824219 235.917969 193.925781 C 238.285156 198.027344 241.066406 201.726562 244.136719 205.082031 L 259.003906 199.378906 C 263.554688 203.28125 268.828125 206.339844 274.597656 208.375 L 277.09375 224.109375 C 281.53125 225.089844 286.128906 225.648438 290.863281 225.648438 C 295.597656 225.648438 300.195312 225.089844 304.636719 224.109375 L 307.132812 208.375 C 312.902344 206.339844 318.175781 203.28125 322.726562 199.378906 L 337.589844 205.082031 C 340.664062 201.726562 343.445312 198.027344 345.8125 193.925781 C 348.179688 189.824219 349.996094 185.566406 351.363281 181.230469 L 339 171.210938 C 339.542969 168.285156 339.863281 165.28125 339.863281 162.203125 Z M 339.863281 162.203125 " fill-opacity="1" fill-rule="nonzero"/><path fill="#252525" d="M 290.863281 227.53125 C 286.207031 227.53125 281.4375 227 276.6875 225.945312 C 275.933594 225.777344 275.355469 225.167969 275.234375 224.402344 L 272.910156 209.765625 C 267.707031 207.800781 262.917969 205.039062 258.644531 201.535156 L 244.8125 206.835938 C 244.089844 207.113281 243.273438 206.921875 242.75 206.351562 C 239.464844 202.765625 236.617188 198.902344 234.285156 194.867188 C 231.957031 190.832031 230.035156 186.4375 228.570312 181.796875 C 228.339844 181.058594 228.582031 180.253906 229.183594 179.765625 L 240.683594 170.445312 C 240.21875 167.632812 239.984375 164.867188 239.984375 162.203125 C 239.984375 159.539062 240.21875 156.769531 240.683594 153.957031 L 229.183594 144.636719 C 228.582031 144.148438 228.339844 143.34375 228.570312 142.609375 C 230.035156 137.96875 231.957031 133.570312 234.285156 129.535156 C 236.617188 125.503906 239.464844 121.640625 242.75 118.050781 C 243.273438 117.480469 244.089844 117.289062 244.8125 117.566406 L 258.644531 122.871094 C 262.917969 119.367188 267.707031 116.601562 272.910156 114.640625 L 275.234375 100 C 275.355469 99.238281 275.933594 98.625 276.6875 98.457031 C 281.4375 97.40625 286.207031 96.871094 290.863281 96.871094 C 295.519531 96.871094 300.289062 97.40625 305.042969 98.457031 C 305.796875 98.625 306.371094 99.238281 306.492188 100 L 308.816406 114.640625 C 314.023438 116.601562 318.8125 119.367188 323.085938 122.871094 L 336.917969 117.566406 C 337.640625 117.289062 338.457031 117.480469 338.980469 118.050781 C 342.265625 121.640625 345.113281 125.503906 347.441406 129.535156 C 349.769531 133.570312 351.691406 137.96875 353.15625 142.609375 C 353.390625 143.34375 353.148438 144.148438 352.546875 144.636719 L 341.042969 153.957031 C 341.507812 156.769531 341.746094 159.539062 341.746094 162.203125 C 341.746094 164.867188 341.507812 167.632812 341.042969 170.445312 L 352.546875 179.765625 C 353.148438 180.253906 353.390625 181.058594 353.15625 181.796875 C 351.691406 186.4375 349.769531 190.832031 347.441406 194.867188 C 345.113281 198.898438 342.265625 202.765625 338.980469 206.351562 C 338.457031 206.921875 337.640625 207.113281 336.917969 206.835938 L 323.085938 201.535156 C 318.8125 205.039062 314.023438 207.800781 308.816406 209.761719 L 306.492188 224.402344 C 306.371094 225.167969 305.796875 225.777344 305.042969 225.945312 C 300.289062 226.996094 295.519531 227.53125 290.863281 227.53125 Z M 278.75 222.535156 C 282.820312 223.351562 286.886719 223.765625 290.863281 223.765625 C 294.839844 223.765625 298.910156 223.351562 302.976562 222.535156 L 305.273438 208.078125 C 305.382812 207.398438 305.855469 206.828125 306.507812 206.597656 C 312.039062 204.648438 317.082031 201.738281 321.5 197.953125 C 322.023438 197.5 322.753906 197.375 323.398438 197.621094 L 337.058594 202.859375 C 339.800781 199.746094 342.191406 196.429688 344.183594 192.984375 C 346.167969 189.539062 347.84375 185.808594 349.171875 181.875 L 337.8125 172.671875 C 337.277344 172.238281 337.023438 171.542969 337.148438 170.867188 C 337.707031 167.859375 337.980469 165.023438 337.980469 162.203125 C 337.980469 159.378906 337.707031 156.542969 337.148438 153.539062 C 337.023438 152.859375 337.277344 152.164062 337.8125 151.730469 L 349.171875 142.527344 C 347.84375 138.59375 346.167969 134.863281 344.183594 131.417969 C 342.191406 127.976562 339.800781 124.660156 337.054688 121.542969 L 323.398438 126.78125 C 322.753906 127.027344 322.023438 126.902344 321.5 126.453125 C 317.082031 122.664062 312.039062 119.753906 306.507812 117.804688 C 305.855469 117.574219 305.382812 117.007812 305.273438 116.324219 L 302.976562 101.871094 C 298.910156 101.050781 294.839844 100.636719 290.863281 100.636719 C 286.886719 100.636719 282.820312 101.050781 278.75 101.871094 L 276.457031 116.324219 C 276.347656 117.007812 275.875 117.574219 275.222656 117.804688 C 269.691406 119.753906 264.648438 122.664062 260.230469 126.453125 C 259.703125 126.902344 258.976562 127.027344 258.332031 126.78125 L 244.671875 121.542969 C 241.929688 124.660156 239.535156 127.976562 237.546875 131.417969 C 235.558594 134.863281 233.882812 138.59375 232.558594 142.527344 L 243.914062 151.730469 C 244.453125 152.164062 244.707031 152.859375 244.582031 153.539062 C 244.019531 156.546875 243.75 159.378906 243.75 162.203125 C 243.75 165.023438 244.023438 167.859375 244.582031 170.867188 C 244.707031 171.542969 244.453125 172.238281 243.914062 172.671875 L 232.558594 181.875 C 233.882812 185.808594 235.558594 189.539062 237.546875 192.984375 C 239.535156 196.429688 241.929688 199.746094 244.671875 202.859375 L 258.332031 197.621094 C 258.976562 197.375 259.707031 197.5 260.230469 197.953125 C 264.648438 201.738281 269.691406 204.648438 275.222656 206.597656 C 275.875 206.828125 276.347656 207.398438 276.457031 208.078125 Z M 278.75 222.535156 " fill-opacity="1" fill-rule="nonzero"/><path fill="#252525" d="M 274.472656 178.957031 C 273.828125 178.957031 273.214844 178.625 272.867188 178.054688 L 259.753906 156.617188 L 259.753906 177.074219 C 259.753906 178.113281 258.910156 178.957031 257.871094 178.957031 C 256.832031 178.957031 255.988281 178.113281 255.988281 177.074219 L 255.988281 149.933594 C 255.988281 149.089844 256.550781 148.351562 257.359375 148.121094 C 258.171875 147.894531 259.035156 148.234375 259.476562 148.953125 L 272.589844 170.390625 L 272.589844 149.933594 C 272.589844 148.894531 273.433594 148.050781 274.472656 148.050781 C 275.511719 148.050781 276.355469 148.894531 276.355469 149.933594 L 276.355469 177.074219 C 276.355469 177.914062 275.792969 178.65625 274.984375 178.882812 C 274.816406 178.933594 274.644531 178.957031 274.472656 178.957031 Z M 274.472656 178.957031 " fill-opacity="1" fill-rule="nonzero"/><path fill="#252525" d="M 295.425781 178.957031 L 281.851562 178.957031 C 280.8125 178.957031 279.96875 178.113281 279.96875 177.074219 L 279.96875 149.933594 C 279.96875 148.894531 280.8125 148.050781 281.851562 148.050781 L 295.425781 148.050781 C 296.464844 148.050781 297.308594 148.894531 297.308594 149.933594 C 297.308594 150.972656 296.464844 151.816406 295.425781 151.816406 L 283.734375 151.816406 L 283.734375 175.191406 L 295.425781 175.191406 C 296.464844 175.191406 297.308594 176.035156 297.308594 177.074219 C 297.308594 178.113281 296.464844 178.957031 295.425781 178.957031 Z M 295.425781 178.957031 " fill-opacity="1" fill-rule="nonzero"/><path fill="#252525" d="M 288.410156 165.386719 L 281.851562 165.386719 C 280.8125 165.386719 279.96875 164.542969 279.96875 163.503906 C 279.96875 162.464844 280.8125 161.621094 281.851562 161.621094 L 288.410156 161.621094 C 289.449219 161.621094 290.289062 162.464844 290.289062 163.503906 C 290.289062 164.542969 289.449219 165.386719 288.410156 165.386719 Z M 288.410156 165.386719 " fill-opacity="1" fill-rule="nonzero"/><path fill="#252525" d="M 306.457031 178.957031 C 306.378906 178.957031 306.304688 178.949219 306.226562 178.941406 C 305.390625 178.839844 304.722656 178.191406 304.597656 177.359375 L 300.417969 150.21875 C 300.257812 149.191406 300.964844 148.230469 301.992188 148.074219 C 303.019531 147.914062 303.980469 148.621094 304.136719 149.648438 L 307.300781 170.191406 L 312.402344 158.027344 C 312.695312 157.328125 313.378906 156.871094 314.136719 156.871094 C 314.894531 156.871094 315.578125 157.328125 315.871094 158.027344 L 320.972656 170.191406 L 324.136719 149.648438 C 324.292969 148.621094 325.253906 147.914062 326.28125 148.074219 C 327.308594 148.230469 328.015625 149.191406 327.855469 150.21875 L 323.675781 177.359375 C 323.546875 178.191406 322.882812 178.839844 322.046875 178.941406 C 321.210938 179.042969 320.40625 178.578125 320.082031 177.800781 L 314.136719 163.625 L 308.191406 177.800781 C 307.894531 178.507812 307.207031 178.957031 306.457031 178.957031 Z M 306.457031 178.957031 " fill-opacity="1" fill-rule="nonzero"/><path fill="#ffffff" d="M 371.78125 264.714844 L 350.023438 242.957031 C 345.894531 238.832031 340.296875 236.511719 334.457031 236.511719 L 317.90625 236.511719 C 313.199219 236.511719 308.683594 238.382812 305.355469 241.710938 C 302.519531 244.546875 298.667969 246.140625 294.65625 246.140625 L 276.847656 246.140625 C 273.226562 246.140625 270.113281 248.289062 268.703125 251.382812 L 268.199219 251.335938 L 237.171875 225.371094 C 233.539062 222.332031 228.1875 222.566406 224.835938 225.917969 C 221.265625 229.488281 221.265625 235.277344 224.835938 238.847656 L 270.753906 284.765625 C 273.332031 287.34375 276.832031 288.792969 280.480469 288.792969 L 327.773438 288.792969 C 329.960938 288.792969 332.0625 289.664062 333.609375 291.210938 L 338.761719 296.359375 Z M 371.78125 264.714844 " fill-opacity="1" fill-rule="nonzero"/><path fill="#252525" d="M 338.761719 298.242188 C 338.277344 298.242188 337.796875 298.058594 337.429688 297.691406 L 332.28125 292.542969 C 331.074219 291.339844 329.476562 290.675781 327.773438 290.675781 L 280.480469 290.675781 C 276.304688 290.675781 272.375 289.050781 269.421875 286.09375 L 223.507812 240.179688 C 219.207031 235.882812 219.207031 228.886719 223.507812 224.585938 C 225.460938 222.632812 228.054688 221.492188 230.816406 221.367188 C 233.574219 221.246094 236.261719 222.15625 238.378906 223.929688 L 268.058594 248.765625 C 270.070312 245.976562 273.332031 244.261719 276.847656 244.261719 L 294.65625 244.261719 C 298.195312 244.261719 301.523438 242.882812 304.027344 240.378906 C 307.734375 236.671875 312.664062 234.628906 317.90625 234.628906 L 334.457031 234.628906 C 340.839844 234.628906 346.839844 237.113281 351.355469 241.628906 L 373.113281 263.386719 C 373.847656 264.121094 373.847656 265.3125 373.113281 266.046875 C 372.375 266.78125 371.183594 266.78125 370.449219 266.046875 L 348.691406 244.289062 C 344.890625 240.488281 339.835938 238.394531 334.457031 238.394531 L 317.90625 238.394531 C 313.667969 238.394531 309.683594 240.042969 306.6875 243.039062 C 303.472656 246.253906 299.199219 248.023438 294.65625 248.023438 L 276.847656 248.023438 C 274.085938 248.023438 271.5625 249.648438 270.417969 252.160156 C 270.085938 252.886719 269.332031 253.324219 268.539062 253.257812 L 268.03125 253.210938 C 267.648438 253.175781 267.285156 253.027344 266.992188 252.78125 L 235.964844 226.8125 C 233.058594 224.382812 228.847656 224.570312 226.167969 227.25 C 223.335938 230.078125 223.335938 234.6875 226.167969 237.519531 L 272.082031 283.433594 C 274.328125 285.675781 277.308594 286.910156 280.480469 286.910156 L 327.773438 286.910156 C 330.480469 286.910156 333.027344 287.964844 334.941406 289.878906 L 340.089844 295.03125 C 340.824219 295.765625 340.824219 296.957031 340.089844 297.691406 C 339.722656 298.058594 339.242188 298.242188 338.761719 298.242188 Z M 338.761719 298.242188 " fill-opacity="1" fill-rule="nonzero"/><path fill="#252525" d="M 314.683594 265.910156 L 276.847656 265.910156 C 270.878906 265.910156 266.019531 261.054688 266.019531 255.085938 C 266.019531 253.75 266.261719 252.445312 266.738281 251.207031 C 267.109375 250.238281 268.199219 249.75 269.167969 250.125 C 270.136719 250.496094 270.625 251.585938 270.25 252.554688 C 269.941406 253.363281 269.785156 254.210938 269.785156 255.085938 C 269.785156 258.980469 272.953125 262.144531 276.847656 262.144531 L 314.683594 262.144531 C 315.722656 262.144531 316.566406 262.988281 316.566406 264.027344 C 316.566406 265.066406 315.722656 265.910156 314.683594 265.910156 Z M 314.683594 265.910156 " fill-opacity="1" fill-rule="nonzero"/><path fill="#ffffff" d="M 185.625 385.1875 L 179.527344 385.1875 C 166.804688 380.296875 155.101562 372.484375 144.671875 363.746094 L 123.128906 345.8125 C 118.964844 341.675781 119.179688 335.027344 123.34375 330.890625 C 127.511719 326.75 134.207031 326.53125 138.371094 330.667969 L 129.226562 321.582031 L 129.476562 322.222656 C 125.074219 317.851562 125.074219 310.761719 129.476562 306.386719 C 133.875 302.015625 141.59375 302.066406 145.992188 306.4375 L 139.007812 299.496094 C 134.757812 295.277344 134.757812 288.40625 139.007812 284.1875 C 143.570312 279.652344 151.042969 279.652344 155.605469 284.1875 L 158.1875 286.75 L 120.046875 248.988281 C 116.003906 244.96875 116.003906 238.457031 120.046875 234.441406 C 124.089844 230.425781 130.648438 230.425781 134.691406 234.441406 L 200.867188 295.835938 C 200.867188 295.835938 206.1875 268.179688 206.195312 268.078125 C 206.808594 258.714844 220 256.839844 223.589844 265.519531 L 226.78125 318.554688 L 247.1875 362.765625 Z M 185.625 385.1875 " fill-opacity="1" fill-rule="nonzero"/><g clip-path="url(#1bcdb5b6e7)"><path fill="#252525" d="M 185.625 387.066406 L 179.527344 387.066406 C 179.296875 387.066406 179.070312 387.027344 178.851562 386.941406 C 167.296875 382.5 155.390625 375.183594 143.464844 365.1875 L 121.925781 347.257812 C 121.882812 347.222656 121.84375 347.1875 121.804688 347.148438 C 119.5 344.859375 118.230469 341.808594 118.230469 338.558594 C 118.230469 335.179688 119.574219 331.980469 122.019531 329.554688 C 124.386719 327.203125 127.503906 325.867188 130.796875 325.792969 L 129.046875 324.058594 C 128.714844 323.980469 128.402344 323.8125 128.148438 323.558594 C 125.660156 321.089844 124.292969 317.800781 124.292969 314.304688 C 124.292969 310.808594 125.660156 307.523438 128.148438 305.054688 C 130.59375 302.621094 134.085938 301.238281 137.742188 301.25 C 137.863281 301.25 137.988281 301.253906 138.109375 301.257812 L 137.679688 300.832031 C 135.265625 298.433594 133.9375 295.242188 133.9375 291.839844 C 133.9375 288.441406 135.265625 285.25 137.679688 282.851562 C 140.402344 280.144531 144.007812 278.828125 147.582031 278.898438 L 118.722656 250.324219 C 116.40625 248.023438 115.132812 244.964844 115.132812 241.714844 C 115.132812 238.460938 116.40625 235.402344 118.722656 233.105469 C 123.480469 228.375 131.222656 228.371094 135.992188 233.082031 L 199.660156 292.148438 C 201.46875 282.734375 204.09375 269.085938 204.324219 267.84375 C 204.515625 265.269531 205.53125 262.992188 207.261719 261.246094 C 208.832031 259.664062 210.96875 258.585938 213.28125 258.203125 C 217.621094 257.488281 223.03125 259.25 225.328125 264.800781 C 225.410156 264.992188 225.457031 265.199219 225.46875 265.40625 L 228.636719 318.085938 L 248.894531 361.980469 C 249.332031 362.921875 248.917969 364.039062 247.976562 364.476562 C 247.03125 364.910156 245.914062 364.5 245.476562 363.554688 L 225.070312 319.339844 C 224.972656 319.128906 224.917969 318.898438 224.902344 318.664062 L 221.730469 265.964844 C 220.0625 262.304688 216.492188 261.488281 213.890625 261.917969 C 211.25 262.355469 208.332031 264.234375 208.070312 268.199219 C 208.0625 268.359375 208.058594 268.421875 202.714844 296.191406 C 202.585938 296.863281 202.105469 297.414062 201.453125 297.625 C 200.804688 297.839844 200.089844 297.683594 199.585938 297.21875 L 133.410156 235.820312 C 133.394531 235.804688 133.378906 235.789062 133.363281 235.777344 C 130.058594 232.492188 124.679688 232.492188 121.375 235.777344 C 119.777344 237.363281 118.898438 239.472656 118.898438 241.714844 C 118.898438 243.957031 119.777344 246.0625 121.375 247.652344 L 156.621094 282.550781 C 156.726562 282.648438 156.832031 282.75 156.933594 282.851562 L 159.515625 285.414062 C 160.25 286.148438 160.257812 287.339844 159.523438 288.078125 C 158.792969 288.8125 157.601562 288.820312 156.863281 288.089844 L 154.015625 285.269531 C 150.152344 281.703125 144.089844 281.789062 140.332031 285.523438 C 138.636719 287.207031 137.703125 289.449219 137.703125 291.839844 C 137.703125 294.230469 138.636719 296.476562 140.332031 298.160156 L 147.320312 305.101562 C 148.058594 305.835938 148.0625 307.027344 147.328125 307.765625 C 146.597656 308.503906 145.40625 308.507812 144.667969 307.773438 C 140.960938 304.089844 134.480469 304.066406 130.800781 307.722656 C 129.03125 309.484375 128.054688 311.820312 128.054688 314.304688 C 128.054688 316.3125 128.691406 318.226562 129.867188 319.8125 C 130.121094 319.902344 130.355469 320.050781 130.554688 320.246094 L 139.699219 329.332031 C 140.4375 330.066406 140.441406 331.257812 139.707031 331.996094 C 138.972656 332.730469 137.78125 332.734375 137.046875 332.003906 C 133.695312 328.675781 128.144531 328.773438 124.671875 332.222656 C 122.945312 333.941406 121.992188 336.191406 121.992188 338.558594 C 121.992188 340.769531 122.847656 342.847656 124.398438 344.421875 L 145.875 362.300781 C 157.375 371.933594 168.8125 379 179.878906 383.304688 L 185.625 383.304688 C 186.664062 383.304688 187.507812 384.144531 187.507812 385.1875 C 187.507812 386.226562 186.664062 387.066406 185.625 387.066406 Z M 185.625 387.066406 " fill-opacity="1" fill-rule="nonzero"/></g><path fill="#ffffff" d="M 165.808594 227.265625 L 176.480469 248.578125 Z M 165.808594 227.265625 " fill-opacity="1" fill-rule="nonzero"/><path fill="#252525" d="M 176.480469 250.460938 C 175.792969 250.460938 175.125 250.082031 174.796875 249.421875 L 164.125 228.109375 C 163.660156 227.179688 164.039062 226.046875 164.96875 225.582031 C 165.898438 225.117188 167.027344 225.492188 167.492188 226.421875 L 178.164062 247.734375 C 178.628906 248.664062 178.253906 249.796875 177.324219 250.261719 C 177.050781 250.398438 176.765625 250.460938 176.480469 250.460938 Z M 176.480469 250.460938 " fill-opacity="1" fill-rule="nonzero"/><path fill="#ffffff" d="M 210.015625 227.265625 L 199.34375 248.578125 Z M 210.015625 227.265625 " fill-opacity="1" fill-rule="nonzero"/><path fill="#252525" d="M 199.34375 250.460938 C 199.058594 250.460938 198.773438 250.398438 198.5 250.261719 C 197.570312 249.796875 197.195312 248.667969 197.660156 247.738281 L 208.332031 226.421875 C 208.796875 225.492188 209.925781 225.117188 210.855469 225.582031 C 211.785156 226.046875 212.164062 227.179688 211.699219 228.109375 L 201.027344 249.421875 C 200.699219 250.082031 200.03125 250.460938 199.34375 250.460938 Z M 199.34375 250.460938 " fill-opacity="1" fill-rule="nonzero"/><path fill="#252525" d="M 187.148438 235.238281 C 186.109375 235.238281 185.265625 234.394531 185.265625 233.355469 L 185.265625 204.429688 C 185.265625 203.390625 186.109375 202.546875 187.148438 202.546875 C 188.1875 202.546875 189.03125 203.390625 189.03125 204.429688 L 189.03125 233.355469 C 189.03125 234.394531 188.1875 235.238281 187.148438 235.238281 Z M 187.148438 235.238281 " fill-opacity="1" fill-rule="nonzero"/><path fill="#ffffff" d="M 102.898438 52.863281 C 111.878906 37.726562 125.253906 30.390625 127.289062 29.308594 C 130.136719 27.792969 162.304688 11.351562 192.648438 29.304688 C 197.445312 32.144531 215.90625 43.953125 220.996094 66.097656 C 227.296875 93.488281 210.855469 126.742188 191.496094 133.761719 C 187.324219 135.277344 176.6875 137.867188 175.074219 144.769531 C 174.496094 147.25 175.371094 149.035156 175.914062 151.347656 C 177.925781 159.957031 173.417969 168 169.542969 174.921875 C 162.429688 187.621094 144.355469 202.519531 120.722656 204.542969 C 116.660156 204.894531 91.703125 206.613281 71.550781 187.828125 C 66.324219 182.953125 52.589844 168.464844 51.75 146.859375 C 50.824219 122.960938 66.136719 102.082031 82.132812 92.417969 C 94.265625 85.085938 109.78125 82.394531 109.246094 79.152344 C 108.867188 76.867188 101.179688 78.214844 98.039062 73.503906 C 94.132812 67.640625 100.390625 57.09375 102.898438 52.863281 Z M 102.898438 52.863281 " fill-opacity="1" fill-rule="nonzero"/><path fill="#5c7a8a" d="M 180.585938 158.839844 C 171.421875 157.269531 144.597656 161.972656 154.953125 144.769531 C 158.253906 138.835938 161.996094 131.867188 165.511719 126.054688 C 171.007812 119.035156 181.050781 124.847656 176.539062 134.039062 C 246.800781 104.101562 212.335938 5.070312 138.617188 32.03125 C 126.144531 37.050781 115.304688 46.21875 108.089844 57.851562 C 106.960938 59.65625 105.230469 60.707031 103.207031 60.8125 C 99.992188 61.128906 97.769531 58.226562 96.628906 55.644531 C 94.296875 50.476562 99.929688 46.066406 102.484375 42.15625 C 139.246094 -6.367188 225.78125 9.984375 228.753906 75.027344 C 230.515625 105.511719 211.863281 133.855469 183.917969 145.769531 C 191.859375 148.792969 188.617188 159.5625 180.585938 158.839844 Z M 180.585938 158.839844 " fill-opacity="1" fill-rule="nonzero"/><path fill="#252525" d="M 181.390625 160.757812 C 181.074219 160.757812 180.75 160.742188 180.417969 160.714844 C 180.367188 160.710938 180.316406 160.703125 180.269531 160.695312 C 178.355469 160.367188 175.425781 160.332031 172.328125 160.292969 C 163.984375 160.191406 154.527344 160.078125 151.582031 154.792969 C 150.011719 151.976562 150.582031 148.390625 153.324219 143.828125 C 154.097656 142.441406 154.890625 140.996094 155.703125 139.523438 C 158.402344 134.625 161.195312 129.554688 163.898438 125.082031 C 163.9375 125.015625 163.980469 124.953125 164.027344 124.894531 C 167.601562 120.335938 172.570312 120.359375 175.679688 122.308594 C 178.132812 123.847656 179.910156 126.820312 179.511719 130.609375 C 211.058594 115.171875 218.496094 84.253906 209.214844 60.785156 C 200.175781 37.933594 175.050781 20.726562 139.292969 33.789062 C 127.203125 38.660156 116.691406 47.558594 109.6875 58.84375 C 108.230469 61.179688 105.980469 62.539062 103.347656 62.6875 C 103.144531 62.707031 102.941406 62.714844 102.742188 62.714844 C 99.566406 62.714844 96.671875 60.402344 94.90625 56.402344 C 92.65625 51.417969 96.082031 47.214844 98.835938 43.839844 C 99.621094 42.878906 100.359375 41.972656 100.910156 41.128906 C 100.933594 41.089844 100.960938 41.054688 100.984375 41.019531 C 110.546875 28.402344 123.871094 19.421875 139.519531 15.046875 C 154.027344 10.992188 169.890625 11.207031 184.1875 15.652344 C 197.078125 19.65625 208.140625 26.859375 216.1875 36.480469 C 220.46875 41.597656 223.863281 47.363281 226.277344 53.621094 C 228.820312 60.214844 230.289062 67.382812 230.632812 74.929688 C 231.511719 90.167969 227.511719 105.191406 219.0625 118.378906 C 214.976562 124.753906 209.96875 130.484375 204.179688 135.410156 C 199.199219 139.652344 193.726562 143.214844 187.875 146.039062 C 190.160156 148.234375 190.742188 151.273438 190.148438 153.847656 C 189.355469 157.28125 186.300781 160.757812 181.390625 160.757812 Z M 180.824219 156.96875 C 184.019531 157.222656 185.996094 155.101562 186.480469 153 C 186.914062 151.117188 186.292969 148.6875 183.246094 147.527344 C 182.53125 147.253906 182.050781 146.574219 182.035156 145.804688 C 182.019531 145.039062 182.472656 144.335938 183.179688 144.035156 C 211.011719 132.175781 228.570312 104.484375 226.875 75.136719 C 226.875 75.128906 226.871094 75.121094 226.871094 75.113281 C 225.644531 48.273438 209.273438 27.390625 183.070312 19.246094 C 158.5625 11.628906 124.625 16.097656 104.023438 43.242188 C 103.371094 44.234375 102.585938 45.199219 101.753906 46.21875 C 98.910156 49.703125 97.136719 52.191406 98.34375 54.867188 C 98.796875 55.898438 100.460938 59.191406 103.023438 58.9375 C 103.050781 58.933594 103.082031 58.933594 103.113281 58.929688 C 104.519531 58.859375 105.691406 58.140625 106.492188 56.855469 C 113.914062 44.890625 125.074219 35.453125 137.914062 30.285156 C 137.933594 30.277344 137.953125 30.269531 137.96875 30.261719 C 155.175781 23.972656 171.609375 23.980469 185.496094 30.296875 C 197.84375 35.914062 207.511719 46.25 212.714844 59.402344 C 215.339844 66.039062 216.695312 73.03125 216.742188 80.179688 C 216.792969 87.558594 215.4375 94.746094 212.714844 101.539062 C 206.664062 116.632812 194.40625 128.46875 177.273438 135.769531 C 176.550781 136.078125 175.710938 135.902344 175.171875 135.332031 C 174.628906 134.761719 174.5 133.914062 174.847656 133.207031 C 176.78125 129.273438 175.425781 126.59375 173.675781 125.496094 C 171.914062 124.390625 169.195312 124.472656 167.058594 127.128906 C 164.410156 131.515625 161.660156 136.507812 159 141.339844 C 158.179688 142.828125 157.378906 144.285156 156.597656 145.6875 C 156.589844 145.703125 156.578125 145.722656 156.566406 145.742188 C 155.210938 147.992188 153.816406 151.070312 154.871094 152.957031 C 156.753906 156.339844 165.78125 156.449219 172.375 156.53125 C 175.585938 156.570312 178.621094 156.605469 180.824219 156.96875 Z M 180.824219 156.96875 " fill-opacity="1" fill-rule="nonzero"/><path fill="#609f85" d="M 113.191406 211.488281 C 35.652344 210.929688 22.925781 107.910156 91.238281 79.230469 C 84.289062 76.652344 85.585938 67.078125 92.8125 66.253906 C 95.539062 65.921875 98.476562 66.546875 101.183594 66.570312 C 106.78125 67.527344 119.40625 65.140625 121.949219 71.433594 C 124.84375 76.675781 112.367188 92.886719 109.648438 98.941406 C 104.144531 105.964844 94.105469 100.152344 98.617188 90.960938 C 42.125 112.832031 49.421875 196.628906 113.464844 197.46875 C 135.007812 197.597656 155.722656 185.609375 167.066406 167.144531 C 168.152344 165.386719 169.976562 164.28125 171.945312 164.1875 C 175.949219 163.90625 178.730469 168.253906 179.125 171.757812 C 178.882812 176.117188 174.964844 179.445312 172.671875 182.839844 C 158.089844 200.707031 135.789062 211.480469 113.191406 211.488281 Z M 113.191406 211.488281 " fill-opacity="1" fill-rule="nonzero"/><path fill="#252525" d="M 113.195312 213.367188 C 113.1875 213.367188 113.183594 213.367188 113.179688 213.367188 C 103.964844 213.304688 95.304688 211.808594 87.433594 208.925781 C 80.023438 206.207031 73.320312 202.269531 67.515625 197.214844 C 62.007812 192.417969 57.371094 186.679688 53.730469 180.15625 C 50.214844 173.859375 47.703125 166.976562 46.265625 159.691406 C 43.125 143.820312 45.320312 127.128906 52.4375 112.695312 C 59.757812 97.851562 71.765625 86.234375 87.292969 78.925781 C 85.449219 77.113281 84.511719 74.582031 84.835938 71.898438 C 85.324219 67.878906 88.441406 64.859375 92.597656 64.382812 C 94.464844 64.15625 96.347656 64.328125 98.164062 64.492188 C 99.230469 64.589844 100.238281 64.679688 101.199219 64.6875 C 101.300781 64.6875 101.402344 64.695312 101.5 64.714844 C 102.90625 64.953125 104.960938 64.960938 107.136719 64.96875 C 113.449219 64.988281 121.296875 65.015625 123.652344 70.632812 C 124.824219 72.878906 124.308594 76.191406 122.042969 81.035156 C 120.269531 84.816406 117.707031 88.976562 115.445312 92.644531 C 113.726562 95.4375 112.101562 98.074219 111.367188 99.710938 C 111.304688 99.851562 111.226562 99.980469 111.132812 100.101562 C 107.554688 104.664062 102.585938 104.640625 99.476562 102.691406 C 96.992188 101.128906 95.203125 98.105469 95.660156 94.25 C 68.121094 106.847656 59.429688 134.261719 63.203125 155.214844 C 66.667969 174.457031 81.699219 195.171875 113.488281 195.589844 C 133.996094 195.710938 154.40625 184.15625 165.464844 166.160156 C 166.875 163.875 169.253906 162.4375 171.832031 162.308594 C 174.253906 162.144531 176.558594 163.226562 178.332031 165.347656 C 179.753906 167.046875 180.75 169.367188 180.996094 171.546875 C 181.007812 171.652344 181.011719 171.757812 181.007812 171.863281 C 180.796875 175.648438 178.382812 178.625 176.253906 181.253906 C 175.507812 182.171875 174.804688 183.039062 174.230469 183.894531 C 174.199219 183.941406 174.164062 183.984375 174.128906 184.03125 C 159.136719 202.394531 136.359375 213.363281 113.195312 213.367188 Z M 94.542969 68.039062 C 94.027344 68.039062 93.527344 68.0625 93.039062 68.121094 C 90.078125 68.460938 88.785156 70.613281 88.574219 72.351562 C 88.355469 74.148438 89.113281 76.433594 91.894531 77.464844 C 92.617188 77.734375 93.105469 78.417969 93.121094 79.1875 C 93.136719 79.960938 92.679688 80.664062 91.96875 80.964844 C 55.535156 96.261719 44.652344 132.121094 49.957031 158.960938 C 54.761719 183.257812 73.894531 209.320312 113.199219 209.605469 C 135.21875 209.597656 156.878906 199.171875 171.160156 181.714844 C 171.816406 180.75 172.585938 179.800781 173.328125 178.882812 C 175.148438 176.640625 177.027344 174.320312 177.238281 171.8125 C 176.886719 169.28125 174.894531 165.867188 172.074219 166.066406 C 172.0625 166.066406 172.046875 166.066406 172.035156 166.066406 C 170.6875 166.132812 169.429688 166.902344 168.667969 168.132812 C 162.910156 177.507812 154.734375 185.386719 145.023438 190.914062 C 135.320312 196.4375 124.53125 199.355469 113.800781 199.355469 C 113.683594 199.355469 113.570312 199.355469 113.453125 199.351562 C 98.746094 199.160156 85.886719 194.597656 76.25 186.15625 C 71.824219 182.273438 68.121094 177.636719 65.253906 172.371094 C 62.492188 167.296875 60.554688 161.75 59.5 155.878906 C 57.15625 142.867188 59.304688 129.214844 65.550781 117.433594 C 72.402344 104.519531 83.601562 94.757812 97.9375 89.203125 C 98.660156 88.925781 99.480469 89.117188 100.003906 89.6875 C 100.527344 90.257812 100.648438 91.09375 100.308594 91.789062 C 98.375 95.726562 99.730469 98.402344 101.480469 99.5 C 103.222656 100.597656 105.90625 100.523438 108.035156 97.945312 C 108.898438 96.101562 110.453125 93.574219 112.242188 90.671875 C 114.449219 87.085938 116.953125 83.027344 118.632812 79.4375 C 120.945312 74.5 120.570312 72.832031 120.300781 72.34375 C 120.265625 72.277344 120.230469 72.210938 120.203125 72.140625 C 118.84375 68.773438 112.347656 68.75 107.125 68.734375 C 104.855469 68.726562 102.710938 68.71875 101.019531 68.449219 C 99.953125 68.433594 98.871094 68.335938 97.824219 68.242188 C 96.6875 68.136719 95.589844 68.039062 94.542969 68.039062 Z M 94.542969 68.039062 " fill-opacity="1" fill-rule="nonzero"/><path fill="#5c7a8a" d="M 108.464844 112.785156 L 99.292969 114.761719 C 97.976562 115.042969 97.085938 116.351562 97.300781 117.679688 L 98.109375 122.640625 C 98.199219 123.207031 97.910156 123.773438 97.40625 124.058594 C 96.066406 124.8125 94.800781 125.675781 93.617188 126.632812 C 93.164062 127 92.546875 127.050781 92.085938 126.734375 L 88.039062 123.976562 C 86.957031 123.238281 85.449219 123.5625 84.671875 124.699219 L 79.25 132.648438 C 78.472656 133.789062 78.722656 135.308594 79.804688 136.046875 L 83.851562 138.808594 C 84.3125 139.121094 84.492188 139.714844 84.316406 140.269531 C 83.855469 141.722656 83.515625 143.214844 83.296875 144.738281 C 83.214844 145.308594 82.796875 145.789062 82.234375 145.910156 L 77.320312 146.96875 C 76.003906 147.25 75.113281 148.558594 75.332031 149.882812 L 76.835938 159.148438 C 77.054688 160.476562 78.292969 161.324219 79.609375 161.039062 L 84.523438 159.980469 C 85.082031 159.859375 85.625 160.128906 85.882812 160.628906 C 86.5625 161.957031 87.351562 163.207031 88.234375 164.371094 C 88.574219 164.816406 88.59375 165.441406 88.261719 165.925781 L 85.355469 170.183594 C 84.578125 171.324219 84.828125 172.847656 85.910156 173.585938 L 93.460938 178.738281 C 94.542969 179.476562 96.050781 179.152344 96.828125 178.011719 L 99.734375 173.753906 C 100.066406 173.269531 100.652344 173.058594 101.195312 173.210938 C 102.597656 173.609375 104.050781 173.886719 105.53125 174.035156 C 106.09375 174.09375 106.542969 174.5 106.632812 175.0625 L 107.441406 180.027344 C 107.65625 181.355469 108.898438 182.203125 110.214844 181.917969 L 119.386719 179.941406 C 120.703125 179.660156 121.59375 178.351562 121.378906 177.023438 L 120.570312 172.0625 C 120.480469 171.496094 120.769531 170.929688 121.273438 170.644531 C 122.609375 169.886719 123.878906 169.027344 125.0625 168.070312 C 125.515625 167.703125 126.132812 167.652344 126.59375 167.964844 L 130.640625 170.726562 C 131.722656 171.464844 133.230469 171.140625 134.007812 170.003906 L 139.429688 162.054688 C 140.203125 160.917969 139.957031 159.394531 138.875 158.65625 L 134.828125 155.894531 C 134.367188 155.582031 134.1875 154.988281 134.363281 154.433594 C 134.824219 152.980469 135.164062 151.484375 135.382812 149.964844 C 135.464844 149.390625 135.886719 148.914062 136.445312 148.792969 L 141.359375 147.734375 C 142.675781 147.453125 143.566406 146.144531 143.347656 144.816406 L 141.84375 135.554688 C 141.628906 134.226562 140.386719 133.378906 139.070312 133.664062 L 134.15625 134.722656 C 133.597656 134.84375 133.054688 134.574219 132.796875 134.074219 C 132.117188 132.746094 131.328125 131.496094 130.445312 130.332031 C 130.105469 129.886719 130.085938 129.261719 130.417969 128.777344 L 133.324219 124.519531 C 134.101562 123.378906 133.851562 121.855469 132.769531 121.117188 L 125.21875 115.964844 C 124.132812 115.226562 122.628906 115.550781 121.851562 116.691406 L 118.945312 120.949219 C 118.613281 121.433594 118.023438 121.644531 117.484375 121.492188 C 116.082031 121.09375 114.628906 120.816406 113.144531 120.667969 C 112.585938 120.609375 112.136719 120.203125 112.042969 119.640625 L 111.238281 114.675781 C 111.023438 113.347656 109.78125 112.5 108.464844 112.785156 Z M 108.464844 112.785156 " fill-opacity="1" fill-rule="nonzero"/><path fill="#252525" d="M 109.695312 183.855469 C 108.863281 183.855469 108.054688 183.609375 107.355469 183.132812 C 106.402344 182.480469 105.773438 181.484375 105.585938 180.328125 L 104.855469 175.855469 C 103.578125 175.703125 102.308594 175.460938 101.074219 175.128906 L 98.382812 179.074219 C 97.023438 181.066406 94.339844 181.613281 92.402344 180.292969 L 84.847656 175.140625 C 82.910156 173.816406 82.441406 171.121094 83.800781 169.125 L 86.492188 165.183594 C 85.734375 164.152344 85.042969 163.058594 84.433594 161.925781 L 80.003906 162.878906 C 78.859375 163.125 77.703125 162.902344 76.75 162.253906 C 75.796875 161.601562 75.167969 160.605469 74.980469 159.449219 L 73.472656 150.1875 C 73.097656 147.886719 74.648438 145.617188 76.921875 145.128906 L 81.484375 144.144531 C 81.691406 142.785156 82 141.425781 82.398438 140.09375 L 78.746094 137.601562 C 76.804688 136.28125 76.335938 133.582031 77.695312 131.585938 L 83.117188 123.640625 C 84.480469 121.644531 87.164062 121.097656 89.101562 122.421875 L 92.757812 124.914062 C 93.84375 124.058594 95 123.277344 96.191406 122.582031 L 95.441406 117.980469 C 95.070312 115.679688 96.621094 113.410156 98.894531 112.921875 L 108.070312 110.945312 C 109.214844 110.699219 110.371094 110.921875 111.324219 111.570312 C 112.277344 112.222656 112.90625 113.21875 113.09375 114.375 L 113.820312 118.847656 C 115.101562 119 116.371094 119.242188 117.605469 119.570312 L 120.296875 115.628906 C 121.65625 113.636719 124.339844 113.089844 126.277344 114.410156 L 133.832031 119.5625 C 135.769531 120.886719 136.238281 123.582031 134.878906 125.578125 L 132.1875 129.519531 C 132.949219 130.550781 133.636719 131.644531 134.246094 132.777344 L 138.675781 131.824219 C 139.820312 131.578125 140.976562 131.800781 141.929688 132.449219 C 142.882812 133.101562 143.511719 134.097656 143.699219 135.253906 L 145.207031 144.515625 C 145.582031 146.8125 144.035156 149.085938 141.753906 149.574219 L 137.199219 150.558594 C 136.988281 151.921875 136.679688 153.28125 136.28125 154.605469 L 139.9375 157.101562 C 140.890625 157.75 141.519531 158.746094 141.707031 159.902344 C 141.890625 161.023438 141.632812 162.164062 140.984375 163.117188 L 135.5625 171.0625 C 134.914062 172.015625 133.945312 172.671875 132.832031 172.910156 C 131.6875 173.15625 130.53125 172.933594 129.578125 172.28125 L 125.921875 169.789062 C 124.835938 170.644531 123.683594 171.425781 122.488281 172.121094 L 123.234375 176.722656 C 123.609375 179.023438 122.0625 181.292969 119.785156 181.78125 L 110.609375 183.757812 C 110.304688 183.824219 110 183.855469 109.695312 183.855469 Z M 100.839844 171.28125 C 101.128906 171.28125 101.417969 171.320312 101.707031 171.398438 C 103.011719 171.769531 104.359375 172.027344 105.71875 172.164062 C 107.128906 172.304688 108.265625 173.371094 108.492188 174.761719 L 109.300781 179.722656 C 109.328125 179.890625 109.410156 179.976562 109.476562 180.023438 C 109.542969 180.066406 109.65625 180.113281 109.816406 180.078125 L 118.992188 178.101562 C 119.328125 178.027344 119.574219 177.667969 119.519531 177.328125 L 118.714844 172.363281 C 118.496094 171.03125 119.152344 169.679688 120.347656 169.007812 C 121.585938 168.308594 122.773438 167.5 123.878906 166.605469 C 124.992188 165.707031 126.507812 165.628906 127.652344 166.410156 L 131.699219 169.171875 C 131.820312 169.253906 131.953125 169.25 132.042969 169.230469 C 132.136719 169.207031 132.3125 169.144531 132.449219 168.941406 L 137.871094 160.996094 C 138.011719 160.792969 138.007812 160.601562 137.992188 160.507812 C 137.976562 160.417969 137.933594 160.292969 137.8125 160.210938 L 133.765625 157.449219 C 132.621094 156.667969 132.140625 155.226562 132.570312 153.867188 C 133 152.507812 133.316406 151.105469 133.519531 149.699219 C 133.710938 148.34375 134.726562 147.238281 136.046875 146.953125 L 140.960938 145.894531 C 141.300781 145.824219 141.546875 145.460938 141.492188 145.121094 L 139.984375 135.859375 C 139.957031 135.691406 139.875 135.605469 139.808594 135.558594 C 139.742188 135.515625 139.628906 135.46875 139.46875 135.503906 L 134.550781 136.5625 C 133.175781 136.859375 131.765625 136.1875 131.121094 134.929688 C 130.5 133.714844 129.765625 132.550781 128.945312 131.472656 C 128.113281 130.375 128.078125 128.867188 128.863281 127.714844 L 131.769531 123.457031 C 131.957031 123.183594 131.929688 122.824219 131.707031 122.671875 L 124.15625 117.519531 C 123.9375 117.371094 123.59375 117.476562 123.40625 117.753906 L 120.5 122.011719 C 119.714844 123.160156 118.296875 123.679688 116.96875 123.300781 C 115.667969 122.933594 114.320312 122.675781 112.957031 122.539062 C 111.554688 122.398438 110.414062 121.332031 110.1875 119.945312 L 109.378906 114.976562 C 109.351562 114.8125 109.269531 114.726562 109.203125 114.679688 C 109.136719 114.636719 109.023438 114.589844 108.863281 114.625 L 99.6875 116.601562 C 99.351562 116.675781 99.105469 117.035156 99.160156 117.378906 L 99.964844 122.339844 C 100.183594 123.671875 99.527344 125.019531 98.332031 125.695312 C 97.097656 126.394531 95.910156 127.203125 94.800781 128.097656 C 93.6875 128.996094 92.171875 129.074219 91.027344 128.292969 L 86.980469 125.53125 C 86.761719 125.378906 86.414062 125.488281 86.226562 125.761719 L 80.804688 133.710938 C 80.617188 133.984375 80.644531 134.34375 80.867188 134.492188 L 84.914062 137.253906 C 86.058594 138.035156 86.539062 139.476562 86.109375 140.835938 C 85.679688 142.199219 85.359375 143.597656 85.160156 145 C 84.96875 146.359375 83.953125 147.464844 82.632812 147.75 L 77.714844 148.808594 C 77.378906 148.878906 77.132812 149.242188 77.1875 149.582031 L 78.695312 158.84375 C 78.722656 159.007812 78.804688 159.097656 78.871094 159.144531 C 78.9375 159.1875 79.050781 159.234375 79.210938 159.199219 L 84.128906 158.140625 C 85.503906 157.84375 86.914062 158.515625 87.558594 159.773438 C 88.179688 160.988281 88.914062 162.152344 89.734375 163.230469 C 90.566406 164.332031 90.601562 165.839844 89.816406 166.988281 L 86.910156 171.246094 C 86.722656 171.519531 86.75 171.878906 86.96875 172.03125 L 94.523438 177.183594 C 94.742188 177.332031 95.085938 177.226562 95.273438 176.953125 L 98.179688 172.691406 C 98.792969 171.792969 99.796875 171.28125 100.839844 171.28125 Z M 108.464844 112.785156 L 108.46875 112.785156 Z M 108.464844 112.785156 " fill-opacity="1" fill-rule="nonzero"/><path fill="#ffffff" d="M 122.324219 144.554688 C 123.503906 151.796875 118.644531 158.917969 111.472656 160.460938 C 104.300781 162.007812 97.53125 157.390625 96.355469 150.148438 C 95.175781 142.90625 100.035156 135.785156 107.207031 134.238281 C 114.378906 132.695312 121.148438 137.3125 122.324219 144.554688 Z M 122.324219 144.554688 " fill-opacity="1" fill-rule="nonzero"/><path fill="#252525" d="M 108.683594 162.644531 C 105.800781 162.644531 103.011719 161.796875 100.605469 160.15625 C 97.320312 157.914062 95.148438 154.46875 94.496094 150.449219 C 93.160156 142.246094 98.683594 134.148438 106.8125 132.398438 C 110.789062 131.542969 114.789062 132.304688 118.074219 134.546875 C 121.359375 136.789062 123.53125 140.234375 124.183594 144.25 C 125.519531 152.457031 119.992188 160.554688 111.867188 162.300781 C 110.804688 162.53125 109.738281 162.644531 108.683594 162.644531 Z M 109.984375 135.824219 C 109.199219 135.824219 108.398438 135.910156 107.601562 136.082031 C 101.40625 137.414062 97.195312 143.589844 98.210938 149.847656 C 98.699219 152.835938 100.300781 155.390625 102.726562 157.046875 C 105.152344 158.699219 108.117188 159.261719 111.074219 158.621094 C 117.273438 157.289062 121.484375 151.113281 120.46875 144.855469 C 119.980469 141.867188 118.378906 139.3125 115.953125 137.65625 C 114.179688 136.449219 112.121094 135.824219 109.984375 135.824219 Z M 109.984375 135.824219 " fill-opacity="1" fill-rule="nonzero"/><path fill="#609f85" d="M 165.242188 42.234375 L 155.929688 44.242188 C 154.59375 44.53125 153.6875 45.855469 153.90625 47.203125 L 154.726562 52.242188 C 154.820312 52.816406 154.527344 53.390625 154.015625 53.683594 C 152.65625 54.449219 151.371094 55.324219 150.167969 56.296875 C 149.707031 56.667969 149.082031 56.71875 148.613281 56.402344 L 144.503906 53.597656 C 143.40625 52.847656 141.875 53.179688 141.085938 54.335938 L 135.582031 62.402344 C 134.792969 63.5625 135.042969 65.105469 136.144531 65.855469 L 140.253906 68.660156 C 140.71875 68.976562 140.902344 69.578125 140.722656 70.144531 C 140.257812 71.617188 139.910156 73.132812 139.691406 74.679688 C 139.605469 75.261719 139.179688 75.746094 138.613281 75.867188 L 133.621094 76.941406 C 132.285156 77.230469 131.378906 78.558594 131.597656 79.90625 L 133.128906 89.308594 C 133.347656 90.660156 134.609375 91.519531 135.945312 91.230469 L 140.933594 90.152344 C 141.503906 90.03125 142.054688 90.304688 142.3125 90.816406 C 143.003906 92.164062 143.804688 93.433594 144.703125 94.613281 C 145.046875 95.066406 145.066406 95.699219 144.730469 96.191406 L 141.78125 100.515625 C 140.992188 101.671875 141.242188 103.21875 142.339844 103.96875 L 150.007812 109.199219 C 151.109375 109.949219 152.640625 109.621094 153.429688 108.464844 L 156.378906 104.136719 C 156.714844 103.648438 157.3125 103.433594 157.859375 103.589844 C 159.285156 103.992188 160.757812 104.277344 162.265625 104.425781 C 162.835938 104.484375 163.289062 104.898438 163.382812 105.46875 L 164.203125 110.507812 C 164.421875 111.855469 165.683594 112.71875 167.019531 112.429688 L 176.332031 110.421875 C 177.667969 110.136719 178.574219 108.808594 178.351562 107.460938 L 177.535156 102.421875 C 177.441406 101.847656 177.734375 101.273438 178.25 100.984375 C 179.605469 100.214844 180.890625 99.339844 182.09375 98.367188 C 182.554688 97.996094 183.179688 97.945312 183.648438 98.261719 L 187.757812 101.066406 C 188.855469 101.816406 190.386719 101.488281 191.175781 100.332031 L 196.679688 92.261719 C 197.46875 91.105469 197.21875 89.558594 196.117188 88.808594 L 192.007812 86.007812 C 191.542969 85.6875 191.359375 85.085938 191.539062 84.523438 C 192.007812 83.046875 192.351562 81.53125 192.574219 79.988281 C 192.65625 79.40625 193.082031 78.921875 193.652344 78.796875 L 198.640625 77.722656 C 199.976562 77.433594 200.882812 76.109375 200.660156 74.761719 L 199.132812 65.355469 C 198.914062 64.007812 197.652344 63.148438 196.316406 63.4375 L 191.324219 64.511719 C 190.757812 64.632812 190.207031 64.359375 189.949219 63.851562 C 189.257812 62.503906 188.457031 61.234375 187.558594 60.054688 C 187.214844 59.601562 187.195312 58.964844 187.53125 58.472656 L 190.480469 54.148438 C 191.269531 52.992188 191.019531 51.445312 189.921875 50.699219 L 182.25 45.464844 C 181.152344 44.714844 179.621094 45.046875 178.832031 46.203125 L 175.882812 50.527344 C 175.546875 51.019531 174.949219 51.230469 174.402344 51.074219 C 172.976562 50.671875 171.503906 50.390625 169.996094 50.238281 C 169.425781 50.183594 168.96875 49.769531 168.875 49.195312 L 168.058594 44.15625 C 167.839844 42.808594 166.578125 41.949219 165.242188 42.234375 Z M 165.242188 42.234375 " fill-opacity="1" fill-rule="nonzero"/><path fill="#252525" d="M 166.492188 114.367188 C 165.652344 114.367188 164.839844 114.121094 164.132812 113.636719 C 163.167969 112.980469 162.535156 111.976562 162.347656 110.808594 L 161.605469 106.246094 C 160.292969 106.09375 158.992188 105.84375 157.726562 105.503906 L 154.984375 109.523438 C 154.328125 110.484375 153.351562 111.144531 152.230469 111.386719 C 151.078125 111.636719 149.910156 111.410156 148.949219 110.753906 L 141.28125 105.523438 C 139.324219 104.191406 138.851562 101.46875 140.226562 99.457031 L 142.96875 95.4375 C 142.1875 94.382812 141.480469 93.261719 140.859375 92.09375 L 136.339844 93.070312 C 135.1875 93.320312 134.019531 93.09375 133.058594 92.4375 C 132.097656 91.78125 131.460938 90.777344 131.273438 89.613281 L 129.742188 80.207031 C 129.363281 77.886719 130.925781 75.597656 133.222656 75.101562 L 137.871094 74.101562 C 138.085938 72.707031 138.398438 71.3125 138.808594 69.953125 L 135.082031 67.410156 C 134.121094 66.753906 133.484375 65.75 133.296875 64.585938 C 133.113281 63.453125 133.371094 62.304688 134.027344 61.34375 L 139.53125 53.273438 C 140.902344 51.261719 143.613281 50.710938 145.566406 52.042969 L 149.292969 54.585938 C 150.410156 53.710938 151.589844 52.90625 152.8125 52.199219 L 152.050781 47.507812 C 151.671875 45.1875 153.234375 42.898438 155.53125 42.402344 L 164.847656 40.394531 C 166.003906 40.148438 167.167969 40.371094 168.132812 41.027344 C 169.09375 41.683594 169.726562 42.6875 169.914062 43.855469 L 170.65625 48.417969 C 171.96875 48.570312 173.269531 48.820312 174.535156 49.160156 L 177.277344 45.140625 C 177.933594 44.183594 178.910156 43.519531 180.03125 43.277344 C 181.183594 43.03125 182.351562 43.253906 183.3125 43.910156 L 190.980469 49.140625 C 192.9375 50.476562 193.410156 53.199219 192.035156 55.210938 L 189.292969 59.230469 C 190.074219 60.285156 190.78125 61.40625 191.402344 62.570312 L 195.921875 61.597656 C 197.074219 61.347656 198.242188 61.570312 199.203125 62.226562 C 200.167969 62.882812 200.800781 63.886719 200.988281 65.054688 L 202.519531 74.457031 C 202.898438 76.777344 201.335938 79.066406 199.039062 79.5625 L 194.390625 80.5625 C 194.175781 81.960938 193.859375 83.355469 193.453125 84.710938 L 197.179688 87.253906 C 199.136719 88.589844 199.609375 91.3125 198.234375 93.324219 L 192.730469 101.390625 C 192.074219 102.351562 191.097656 103.011719 189.980469 103.253906 C 188.824219 103.503906 187.660156 103.277344 186.695312 102.621094 L 182.96875 100.078125 C 181.855469 100.953125 180.671875 101.753906 179.449219 102.464844 L 180.210938 107.160156 C 180.589844 109.476562 179.027344 111.769531 176.730469 112.261719 L 167.414062 114.269531 C 167.105469 114.335938 166.800781 114.367188 166.492188 114.367188 Z M 157.5 101.65625 C 157.789062 101.65625 158.082031 101.695312 158.371094 101.777344 C 159.699219 102.15625 161.074219 102.414062 162.453125 102.554688 C 163.867188 102.695312 165.015625 103.769531 165.242188 105.167969 L 166.0625 110.207031 C 166.089844 110.382812 166.183594 110.480469 166.253906 110.527344 C 166.324219 110.578125 166.445312 110.625 166.621094 110.589844 L 175.9375 108.582031 C 176.292969 108.503906 176.554688 108.121094 176.496094 107.761719 L 175.675781 102.722656 C 175.457031 101.382812 176.121094 100.023438 177.320312 99.34375 C 178.578125 98.632812 179.785156 97.8125 180.910156 96.902344 C 182.03125 96 183.554688 95.921875 184.707031 96.707031 L 188.816406 99.511719 C 188.949219 99.601562 189.089844 99.59375 189.1875 99.574219 C 189.285156 99.550781 189.472656 99.484375 189.621094 99.269531 L 195.125 91.199219 C 195.324219 90.910156 195.292969 90.527344 195.058594 90.363281 L 190.949219 87.5625 C 189.796875 86.773438 189.3125 85.324219 189.746094 83.953125 C 190.179688 82.574219 190.503906 81.152344 190.710938 79.722656 C 190.902344 78.355469 191.925781 77.242188 193.253906 76.957031 L 198.246094 75.882812 C 198.601562 75.804688 198.863281 75.421875 198.804688 75.0625 L 197.273438 65.65625 C 197.246094 65.480469 197.15625 65.386719 197.082031 65.335938 C 197.011719 65.289062 196.890625 65.238281 196.714844 65.277344 L 191.722656 66.351562 C 190.339844 66.648438 188.921875 65.972656 188.273438 64.710938 C 187.640625 63.472656 186.894531 62.289062 186.0625 61.191406 C 185.222656 60.089844 185.1875 58.570312 185.976562 57.414062 L 188.925781 53.089844 C 189.125 52.796875 189.09375 52.414062 188.859375 52.253906 L 181.191406 47.019531 C 181.0625 46.933594 180.917969 46.9375 180.824219 46.960938 C 180.722656 46.980469 180.535156 47.050781 180.386719 47.261719 L 177.4375 51.585938 C 176.648438 52.746094 175.222656 53.265625 173.886719 52.886719 C 172.5625 52.511719 171.191406 52.25 169.808594 52.113281 C 168.394531 51.96875 167.25 50.898438 167.019531 49.5 L 166.199219 44.457031 C 166.171875 44.28125 166.082031 44.1875 166.007812 44.136719 C 165.9375 44.089844 165.816406 44.039062 165.640625 44.078125 L 156.324219 46.082031 C 155.96875 46.160156 155.707031 46.542969 155.765625 46.902344 L 156.585938 51.941406 C 156.804688 53.28125 156.144531 54.640625 154.941406 55.320312 C 153.6875 56.027344 152.480469 56.851562 151.351562 57.761719 C 150.234375 58.664062 148.707031 58.742188 147.554688 57.957031 L 143.445312 55.152344 C 143.210938 54.992188 142.839844 55.105469 142.640625 55.394531 L 137.136719 63.464844 C 136.992188 63.679688 136.996094 63.878906 137.011719 63.980469 C 137.027344 64.078125 137.074219 64.210938 137.203125 64.300781 L 141.3125 67.105469 C 142.464844 67.890625 142.949219 69.339844 142.515625 70.710938 C 142.078125 72.09375 141.757812 73.515625 141.554688 74.941406 C 141.359375 76.3125 140.335938 77.421875 139.011719 77.707031 L 134.015625 78.785156 C 133.660156 78.859375 133.398438 79.242188 133.457031 79.601562 L 134.988281 89.007812 C 135.015625 89.183594 135.109375 89.28125 135.179688 89.328125 C 135.25 89.378906 135.371094 89.425781 135.546875 89.390625 L 140.539062 88.316406 C 141.921875 88.019531 143.34375 88.695312 143.988281 89.957031 C 144.621094 91.195312 145.367188 92.375 146.199219 93.472656 C 147.039062 94.582031 147.074219 96.097656 146.285156 97.253906 L 143.335938 101.578125 C 143.136719 101.871094 143.164062 102.253906 143.402344 102.414062 L 151.070312 107.644531 C 151.199219 107.734375 151.34375 107.726562 151.4375 107.707031 C 151.539062 107.6875 151.726562 107.617188 151.875 107.402344 L 154.824219 103.078125 C 155.441406 102.171875 156.449219 101.65625 157.5 101.65625 Z M 157.5 101.65625 " fill-opacity="1" fill-rule="nonzero"/><path fill="#ffffff" d="M 179.316406 74.492188 C 180.511719 81.84375 175.578125 89.078125 168.296875 90.644531 C 161.015625 92.214844 154.140625 87.527344 152.945312 80.171875 C 151.75 72.820312 156.683594 65.589844 163.964844 64.019531 C 171.246094 62.453125 178.121094 67.140625 179.316406 74.492188 Z M 179.316406 74.492188 " fill-opacity="1" fill-rule="nonzero"/><path fill="#252525" d="M 165.464844 92.832031 C 162.542969 92.832031 159.71875 91.972656 157.277344 90.308594 C 153.949219 88.039062 151.75 84.546875 151.089844 80.476562 C 149.734375 72.160156 155.335938 63.953125 163.570312 62.179688 C 167.601562 61.3125 171.65625 62.085938 174.984375 64.355469 C 178.3125 66.628906 180.511719 70.121094 181.171875 74.191406 C 182.527344 82.503906 176.925781 90.710938 168.691406 92.484375 C 167.613281 92.71875 166.53125 92.832031 165.464844 92.832031 Z M 166.785156 65.597656 C 165.984375 65.597656 165.171875 65.6875 164.363281 65.859375 C 158.054688 67.21875 153.769531 73.503906 154.804688 79.871094 C 155.300781 82.914062 156.929688 85.515625 159.398438 87.199219 C 161.867188 88.882812 164.886719 89.453125 167.898438 88.804688 C 174.207031 87.445312 178.492188 81.160156 177.457031 74.792969 C 176.964844 71.753906 175.332031 69.152344 172.863281 67.464844 C 171.058594 66.234375 168.960938 65.597656 166.785156 65.597656 Z M 166.785156 65.597656 " fill-opacity="1" fill-rule="nonzero"/></svg>