<svg xmlns="http://www.w3.org/2000/svg" xmlns:xlink="http://www.w3.org/1999/xlink" width="525" zoomAndPan="magnify" viewBox="0 0 393.75 393.74999" height="525" preserveAspectRatio="xMidYMid meet" version="1.0"><defs><clipPath id="9b2d2f2b74"><path d="M 110 369 L 265 369 L 265 393.5 L 110 393.5 Z M 110 369 " clip-rule="nonzero"/></clipPath><clipPath id="986c56c03a"><path d="M 312 44 L 391.746094 44 L 391.746094 268 L 312 268 Z M 312 44 " clip-rule="nonzero"/></clipPath></defs><path fill="#252525" d="M 234.617188 11.683594 C 234.484375 11.683594 234.351562 11.671875 234.21875 11.644531 C 227.085938 10.222656 219.777344 9.199219 212.5 8.601562 C 211.390625 8.511719 210.558594 7.535156 210.652344 6.421875 C 210.742188 5.308594 211.71875 4.480469 212.832031 4.570312 C 220.261719 5.179688 227.722656 6.226562 235.007812 7.679688 C 236.105469 7.898438 236.816406 8.960938 236.597656 10.058594 C 236.40625 11.019531 235.558594 11.683594 234.617188 11.683594 Z M 168.4375 10.015625 C 167.453125 10.015625 166.585938 9.292969 166.441406 8.289062 C 166.277344 7.183594 167.042969 6.15625 168.148438 5.992188 C 175.488281 4.914062 182.992188 4.246094 190.449219 4.011719 C 191.570312 3.980469 192.5 4.851562 192.535156 5.96875 C 192.570312 7.085938 191.695312 8.019531 190.578125 8.054688 C 183.273438 8.285156 175.925781 8.9375 168.734375 9.996094 C 168.636719 10.007812 168.535156 10.015625 168.4375 10.015625 Z M 168.4375 10.015625 " fill-opacity="1" fill-rule="nonzero"/><path fill="#252525" d="M 17.617188 272.15625 C 16.8125 272.15625 16.054688 271.675781 15.738281 270.882812 C 12.976562 263.972656 10.59375 256.824219 8.652344 249.640625 C 8.363281 248.5625 9 247.453125 10.078125 247.160156 C 11.15625 246.871094 12.265625 247.507812 12.558594 248.585938 C 14.457031 255.617188 16.792969 262.617188 19.492188 269.382812 C 19.910156 270.421875 19.402344 271.597656 18.367188 272.011719 C 18.121094 272.109375 17.867188 272.15625 17.617188 272.15625 Z M 6.070312 229.445312 C 5.085938 229.445312 4.222656 228.726562 4.070312 227.722656 C 2.976562 220.382812 2.289062 212.882812 2.039062 205.425781 C 2 204.308594 2.875 203.375 3.988281 203.335938 C 5.105469 203.296875 6.042969 204.171875 6.078125 205.289062 C 6.328125 212.589844 6.996094 219.9375 8.070312 227.125 C 8.238281 228.230469 7.476562 229.257812 6.371094 229.421875 C 6.269531 229.4375 6.167969 229.445312 6.070312 229.445312 Z M 4.5625 185.226562 C 4.507812 185.226562 4.453125 185.226562 4.398438 185.222656 C 3.285156 185.132812 2.453125 184.160156 2.542969 183.042969 C 3.132812 175.613281 4.160156 168.152344 5.597656 160.863281 C 5.8125 159.769531 6.875 159.054688 7.96875 159.269531 C 9.066406 159.488281 9.78125 160.550781 9.5625 161.644531 C 8.160156 168.78125 7.152344 176.089844 6.574219 183.367188 C 6.492188 184.425781 5.605469 185.226562 4.5625 185.226562 Z M 13.113281 141.816406 C 12.90625 141.816406 12.699219 141.785156 12.496094 141.71875 C 11.429688 141.378906 10.84375 140.242188 11.1875 139.175781 C 13.457031 132.09375 16.167969 125.0625 19.246094 118.28125 C 19.707031 117.265625 20.90625 116.816406 21.921875 117.277344 C 22.941406 117.738281 23.390625 118.9375 22.929688 119.953125 C 19.917969 126.59375 17.261719 133.476562 15.039062 140.410156 C 14.761719 141.269531 13.96875 141.816406 13.113281 141.816406 Z M 31.394531 101.523438 C 31.039062 101.523438 30.679688 101.429688 30.351562 101.234375 C 29.394531 100.660156 29.085938 99.414062 29.660156 98.457031 C 33.492188 92.085938 37.742188 85.863281 42.285156 79.964844 C 42.964844 79.078125 44.234375 78.914062 45.121094 79.59375 C 46.003906 80.277344 46.167969 81.546875 45.488281 82.429688 C 41.039062 88.210938 36.878906 94.304688 33.128906 100.542969 C 32.75 101.175781 32.078125 101.523438 31.394531 101.523438 Z M 58.386719 66.464844 C 57.878906 66.464844 57.371094 66.273438 56.980469 65.894531 C 56.175781 65.113281 56.160156 63.835938 56.9375 63.03125 C 62.121094 57.695312 67.667969 52.597656 73.425781 47.886719 C 74.289062 47.179688 75.5625 47.304688 76.269531 48.171875 C 76.976562 49.035156 76.851562 50.308594 75.984375 51.015625 C 70.347656 55.628906 64.914062 60.621094 59.839844 65.851562 C 59.441406 66.257812 58.914062 66.464844 58.386719 66.464844 Z M 58.386719 66.464844 " fill-opacity="1" fill-rule="nonzero"/><g clip-path="url(#9b2d2f2b74)"><path fill="#252525" d="M 197.632812 393.480469 C 196.519531 393.480469 195.613281 392.582031 195.609375 391.46875 C 195.605469 390.351562 196.503906 389.441406 197.621094 389.4375 C 204.933594 389.402344 212.296875 388.949219 219.507812 388.089844 C 220.621094 387.957031 221.625 388.75 221.757812 389.859375 C 221.890625 390.96875 221.097656 391.972656 219.988281 392.105469 C 212.625 392.984375 205.105469 393.445312 197.640625 393.480469 C 197.636719 393.480469 197.632812 393.480469 197.632812 393.480469 Z M 175.5 392.328125 C 175.429688 392.328125 175.355469 392.324219 175.277344 392.316406 C 167.871094 391.507812 160.441406 390.257812 153.195312 388.605469 C 152.109375 388.355469 151.425781 387.273438 151.675781 386.183594 C 151.921875 385.09375 153.007812 384.414062 154.097656 384.660156 C 161.191406 386.28125 168.464844 387.503906 175.71875 388.296875 C 176.828125 388.417969 177.632812 389.417969 177.507812 390.527344 C 177.394531 391.5625 176.519531 392.328125 175.5 392.328125 Z M 241.5625 388.238281 C 240.648438 388.238281 239.816406 387.613281 239.597656 386.683594 C 239.335938 385.597656 240.007812 384.503906 241.09375 384.246094 C 248.183594 382.558594 255.246094 380.433594 262.089844 377.9375 C 263.140625 377.554688 264.300781 378.09375 264.683594 379.144531 C 265.066406 380.191406 264.527344 381.355469 263.476562 381.738281 C 256.488281 384.289062 249.273438 386.457031 242.03125 388.179688 C 241.875 388.21875 241.71875 388.238281 241.5625 388.238281 Z M 132.363281 382.484375 C 132.140625 382.484375 131.910156 382.445312 131.6875 382.367188 C 124.757812 379.914062 117.890625 377.03125 111.277344 373.796875 C 110.273438 373.304688 109.859375 372.09375 110.347656 371.09375 C 110.839844 370.089844 112.050781 369.671875 113.054688 370.164062 C 119.527344 373.328125 126.25 376.152344 133.039062 378.554688 C 134.089844 378.925781 134.640625 380.082031 134.269531 381.132812 C 133.976562 381.964844 133.195312 382.484375 132.363281 382.484375 Z M 132.363281 382.484375 " fill-opacity="1" fill-rule="nonzero"/></g><g clip-path="url(#986c56c03a)"><path fill="#252525" d="M 377.71875 267.152344 C 377.484375 267.152344 377.25 267.113281 377.019531 267.027344 C 375.972656 266.644531 375.433594 265.480469 375.820312 264.433594 C 378.328125 257.59375 380.464844 250.535156 382.171875 243.445312 C 382.429688 242.359375 383.523438 241.691406 384.609375 241.953125 C 385.695312 242.214844 386.363281 243.304688 386.101562 244.394531 C 384.363281 251.628906 382.179688 258.839844 379.617188 265.828125 C 379.316406 266.644531 378.539062 267.152344 377.71875 267.152344 Z M 388.066406 224.132812 C 387.984375 224.132812 387.902344 224.128906 387.820312 224.117188 C 386.710938 223.984375 385.921875 222.976562 386.054688 221.867188 C 386.929688 214.652344 387.394531 207.289062 387.445312 199.980469 C 387.449219 198.867188 388.355469 197.972656 389.464844 197.972656 C 389.46875 197.972656 389.476562 197.972656 389.480469 197.972656 C 390.597656 197.976562 391.496094 198.890625 391.488281 200.007812 C 391.4375 207.46875 390.960938 214.988281 390.070312 222.351562 C 389.945312 223.378906 389.074219 224.132812 388.066406 224.132812 Z M 388.355469 179.882812 C 387.335938 179.882812 386.457031 179.113281 386.347656 178.078125 C 385.566406 170.820312 384.359375 163.542969 382.753906 156.449219 C 382.507812 155.359375 383.191406 154.277344 384.28125 154.03125 C 385.367188 153.785156 386.453125 154.46875 386.699219 155.558594 C 388.335938 162.804688 389.570312 170.234375 390.367188 177.644531 C 390.488281 178.753906 389.683594 179.75 388.574219 179.871094 C 388.5 179.878906 388.425781 179.882812 388.355469 179.882812 Z M 378.59375 136.734375 C 377.761719 136.734375 376.980469 136.210938 376.6875 135.382812 C 374.273438 128.511719 371.425781 121.707031 368.226562 115.15625 C 367.738281 114.152344 368.15625 112.941406 369.160156 112.453125 C 370.160156 111.960938 371.371094 112.378906 371.863281 113.382812 C 375.128906 120.074219 378.035156 127.023438 380.503906 134.039062 C 380.875 135.09375 380.320312 136.246094 379.265625 136.617188 C 379.042969 136.695312 378.816406 136.734375 378.59375 136.734375 Z M 359.199219 96.972656 C 358.53125 96.972656 357.878906 96.640625 357.492188 96.039062 C 353.570312 89.90625 349.242188 83.929688 344.636719 78.277344 C 343.929688 77.410156 344.058594 76.136719 344.925781 75.433594 C 345.792969 74.726562 347.066406 74.855469 347.769531 75.722656 C 352.476562 81.492188 356.894531 87.59375 360.898438 93.859375 C 361.5 94.800781 361.226562 96.050781 360.285156 96.652344 C 359.949219 96.867188 359.570312 96.972656 359.199219 96.972656 Z M 331.246094 62.671875 C 330.734375 62.671875 330.226562 62.484375 329.832031 62.097656 C 324.613281 57.011719 319.046875 52.171875 313.28125 47.714844 C 312.398438 47.03125 312.238281 45.761719 312.917969 44.878906 C 313.601562 43.996094 314.871094 43.832031 315.757812 44.515625 C 321.640625 49.066406 327.328125 54.007812 332.65625 59.203125 C 333.457031 59.984375 333.472656 61.261719 332.695312 62.0625 C 332.296875 62.46875 331.769531 62.671875 331.246094 62.671875 Z M 331.246094 62.671875 " fill-opacity="1" fill-rule="nonzero"/></g><path fill="#818198" d="M 338.238281 198.699219 C 338.238281 201.015625 338.179688 203.328125 338.066406 205.644531 C 337.953125 207.957031 337.78125 210.265625 337.554688 212.570312 C 337.328125 214.875 337.046875 217.171875 336.707031 219.464844 C 336.367188 221.757812 335.96875 224.039062 335.515625 226.308594 C 335.066406 228.582031 334.558594 230.839844 333.996094 233.085938 C 333.433594 235.332031 332.816406 237.566406 332.144531 239.78125 C 331.46875 242 330.742188 244.195312 329.964844 246.378906 C 329.183594 248.558594 328.351562 250.71875 327.464844 252.859375 C 326.578125 255 325.640625 257.117188 324.648438 259.210938 C 323.660156 261.304688 322.617188 263.371094 321.523438 265.414062 C 320.433594 267.457031 319.292969 269.472656 318.101562 271.457031 C 316.910156 273.445312 315.671875 275.402344 314.386719 277.328125 C 313.097656 279.253906 311.765625 281.148438 310.386719 283.007812 C 309.003906 284.867188 307.582031 286.691406 306.113281 288.484375 C 304.640625 290.273438 303.128906 292.027344 301.574219 293.742188 C 300.019531 295.460938 298.421875 297.136719 296.785156 298.773438 C 295.144531 300.414062 293.46875 302.007812 291.753906 303.5625 C 290.035156 305.121094 288.285156 306.632812 286.492188 308.101562 C 284.703125 309.570312 282.878906 310.996094 281.015625 312.375 C 279.15625 313.753906 277.261719 315.089844 275.335938 316.375 C 273.410156 317.660156 271.453125 318.902344 269.46875 320.089844 C 267.480469 321.28125 265.46875 322.421875 263.425781 323.515625 C 261.382812 324.609375 259.3125 325.648438 257.21875 326.640625 C 255.125 327.628906 253.007812 328.566406 250.867188 329.453125 C 248.730469 330.339844 246.570312 331.171875 244.386719 331.953125 C 242.207031 332.734375 240.007812 333.460938 237.792969 334.132812 C 235.574219 334.804688 233.34375 335.421875 231.097656 335.984375 C 228.851562 336.546875 226.589844 337.054688 224.320312 337.507812 C 222.046875 337.960938 219.765625 338.355469 217.472656 338.695312 C 215.183594 339.035156 212.886719 339.320312 210.582031 339.546875 C 208.273438 339.773438 205.964844 339.941406 203.652344 340.058594 C 201.339844 340.171875 199.023438 340.226562 196.707031 340.226562 C 194.390625 340.226562 192.078125 340.171875 189.761719 340.058594 C 187.449219 339.941406 185.140625 339.773438 182.835938 339.546875 C 180.53125 339.320312 178.230469 339.035156 175.941406 338.695312 C 173.648438 338.355469 171.367188 337.960938 169.097656 337.507812 C 166.824219 337.054688 164.566406 336.546875 162.320312 335.984375 C 160.074219 335.421875 157.839844 334.804688 155.625 334.132812 C 153.40625 333.460938 151.207031 332.734375 149.027344 331.953125 C 146.847656 331.171875 144.6875 330.339844 142.546875 329.453125 C 140.40625 328.566406 138.289062 327.628906 136.195312 326.640625 C 134.101562 325.648438 132.035156 324.609375 129.992188 323.515625 C 127.949219 322.421875 125.933594 321.28125 123.949219 320.089844 C 121.960938 318.902344 120.003906 317.660156 118.078125 316.375 C 116.152344 315.089844 114.257812 313.753906 112.398438 312.375 C 110.539062 310.996094 108.714844 309.570312 106.921875 308.101562 C 105.132812 306.632812 103.378906 305.121094 101.664062 303.5625 C 99.945312 302.007812 98.269531 300.414062 96.632812 298.773438 C 94.992188 297.136719 93.398438 295.460938 91.839844 293.742188 C 90.285156 292.027344 88.773438 290.273438 87.304688 288.484375 C 85.835938 286.691406 84.410156 284.867188 83.03125 283.007812 C 81.652344 281.148438 80.316406 279.253906 79.03125 277.328125 C 77.742188 275.402344 76.503906 273.445312 75.3125 271.457031 C 74.125 269.472656 72.980469 267.457031 71.890625 265.414062 C 70.796875 263.371094 69.757812 261.304688 68.765625 259.210938 C 67.777344 257.117188 66.839844 255 65.953125 252.859375 C 65.066406 250.71875 64.230469 248.558594 63.453125 246.378906 C 62.671875 244.195312 61.945312 242 61.273438 239.78125 C 60.601562 237.566406 59.984375 235.332031 59.421875 233.085938 C 58.859375 230.839844 58.351562 228.582031 57.898438 226.308594 C 57.445312 224.039062 57.050781 221.757812 56.710938 219.464844 C 56.371094 217.171875 56.085938 214.875 55.859375 212.570312 C 55.632812 210.265625 55.464844 207.957031 55.347656 205.644531 C 55.234375 203.328125 55.179688 201.015625 55.179688 198.699219 C 55.179688 196.382812 55.234375 194.066406 55.347656 191.753906 C 55.464844 189.441406 55.632812 187.132812 55.859375 184.824219 C 56.085938 182.519531 56.371094 180.222656 56.710938 177.929688 C 57.050781 175.640625 57.445312 173.359375 57.898438 171.085938 C 58.351562 168.816406 58.859375 166.554688 59.421875 164.308594 C 59.984375 162.0625 60.601562 159.832031 61.273438 157.613281 C 61.945312 155.398438 62.671875 153.199219 63.453125 151.019531 C 64.230469 148.835938 65.066406 146.675781 65.953125 144.539062 C 66.839844 142.398438 67.777344 140.28125 68.765625 138.1875 C 69.757812 136.09375 70.796875 134.023438 71.890625 131.980469 C 72.980469 129.9375 74.125 127.925781 75.3125 125.9375 C 76.503906 123.949219 77.742188 121.996094 79.03125 120.070312 C 80.316406 118.144531 81.652344 116.25 83.03125 114.390625 C 84.410156 112.527344 85.835938 110.703125 87.304688 108.914062 C 88.773438 107.121094 90.285156 105.371094 91.839844 103.652344 C 93.398438 101.9375 94.992188 100.261719 96.632812 98.621094 C 98.269531 96.984375 99.945312 95.386719 101.664062 93.832031 C 103.378906 92.277344 105.132812 90.765625 106.921875 89.292969 C 108.714844 87.824219 110.539062 86.402344 112.398438 85.019531 C 114.257812 83.640625 116.152344 82.308594 118.078125 81.019531 C 120.003906 79.734375 121.960938 78.496094 123.949219 77.304688 C 125.933594 76.113281 127.949219 74.972656 129.992188 73.878906 C 132.035156 72.789062 134.101562 71.746094 136.195312 70.757812 C 138.289062 69.765625 140.40625 68.828125 142.546875 67.941406 C 144.6875 67.054688 146.847656 66.222656 149.027344 65.441406 C 151.207031 64.660156 153.40625 63.9375 155.625 63.261719 C 157.839844 62.589844 160.074219 61.972656 162.320312 61.410156 C 164.566406 60.847656 166.824219 60.339844 169.097656 59.886719 C 171.367188 59.4375 173.648438 59.039062 175.941406 58.699219 C 178.230469 58.359375 180.53125 58.078125 182.835938 57.851562 C 185.140625 57.625 187.449219 57.453125 189.761719 57.339844 C 192.078125 57.226562 194.390625 57.167969 196.707031 57.167969 C 199.023438 57.167969 201.339844 57.226562 203.652344 57.339844 C 205.964844 57.453125 208.273438 57.625 210.582031 57.851562 C 212.886719 58.078125 215.183594 58.359375 217.472656 58.699219 C 219.765625 59.039062 222.046875 59.4375 224.320312 59.886719 C 226.589844 60.339844 228.851562 60.847656 231.097656 61.410156 C 233.34375 61.972656 235.574219 62.589844 237.792969 63.261719 C 240.007812 63.9375 242.207031 64.660156 244.386719 65.441406 C 246.570312 66.222656 248.730469 67.054688 250.867188 67.941406 C 253.007812 68.828125 255.125 69.765625 257.21875 70.757812 C 259.3125 71.746094 261.382812 72.789062 263.425781 73.878906 C 265.46875 74.972656 267.480469 76.113281 269.46875 77.304688 C 271.453125 78.496094 273.410156 79.734375 275.335938 81.019531 C 277.261719 82.308594 279.15625 83.640625 281.015625 85.019531 C 282.878906 86.402344 284.703125 87.824219 286.492188 89.292969 C 288.285156 90.765625 290.035156 92.277344 291.753906 93.832031 C 293.46875 95.386719 295.144531 96.984375 296.785156 98.621094 C 298.421875 100.261719 300.019531 101.9375 301.574219 103.652344 C 303.128906 105.371094 304.640625 107.121094 306.113281 108.914062 C 307.582031 110.703125 309.003906 112.527344 310.386719 114.390625 C 311.765625 116.25 313.097656 118.144531 314.386719 120.070312 C 315.671875 121.996094 316.910156 123.949219 318.101562 125.9375 C 319.292969 127.925781 320.433594 129.9375 321.527344 131.980469 C 322.617188 134.023438 323.660156 136.09375 324.648438 138.1875 C 325.640625 140.28125 326.578125 142.398438 327.464844 144.539062 C 328.351562 146.675781 329.183594 148.835938 329.964844 151.019531 C 330.742188 153.199219 331.46875 155.398438 332.144531 157.613281 C 332.816406 159.832031 333.433594 162.0625 333.996094 164.308594 C 334.558594 166.554688 335.066406 168.816406 335.515625 171.085938 C 335.96875 173.359375 336.367188 175.640625 336.707031 177.929688 C 337.046875 180.222656 337.328125 182.519531 337.554688 184.824219 C 337.78125 187.132812 337.953125 189.441406 338.066406 191.753906 C 338.179688 194.066406 338.238281 196.382812 338.238281 198.699219 Z M 338.238281 198.699219 " fill-opacity="1" fill-rule="nonzero"/><path fill="#ffffff" d="M 95.457031 297.5625 L 161.171875 297.5625 C 178.613281 297.5625 192.753906 311.703125 192.753906 329.144531 C 192.753906 346.585938 178.617188 360.722656 161.179688 360.726562 L 95.457031 360.738281 Z M 95.457031 297.5625 " fill-opacity="1" fill-rule="nonzero"/><path fill="#252525" d="M 95.457031 362.761719 C 94.339844 362.761719 93.433594 361.855469 93.433594 360.738281 C 93.433594 359.625 94.339844 358.71875 95.457031 358.71875 L 161.179688 358.703125 C 177.476562 358.703125 190.730469 345.441406 190.730469 329.144531 C 190.730469 312.84375 177.472656 299.582031 161.171875 299.582031 L 95.457031 299.582031 C 94.339844 299.582031 93.433594 298.679688 93.433594 297.5625 C 93.433594 296.445312 94.339844 295.539062 95.457031 295.539062 L 161.171875 295.539062 C 179.703125 295.539062 194.777344 310.613281 194.777344 329.144531 C 194.777344 347.671875 179.707031 362.746094 161.179688 362.75 Z M 95.457031 362.761719 " fill-opacity="1" fill-rule="nonzero"/><path fill="#ffffff" d="M 117.558594 193.296875 L 57.769531 193.296875 C 40.328125 193.296875 26.1875 207.4375 26.1875 224.878906 C 26.1875 242.316406 40.324219 256.457031 57.765625 256.460938 L 117.558594 256.472656 Z M 117.558594 193.296875 " fill-opacity="1" fill-rule="nonzero"/><path fill="#252525" d="M 117.558594 258.496094 L 57.761719 258.484375 C 39.238281 258.480469 24.164062 243.40625 24.164062 224.878906 C 24.164062 206.347656 39.242188 191.273438 57.769531 191.273438 L 117.558594 191.273438 C 118.675781 191.273438 119.582031 192.179688 119.582031 193.296875 C 119.582031 194.414062 118.675781 195.316406 117.558594 195.316406 L 57.769531 195.316406 C 41.46875 195.316406 28.210938 208.578125 28.210938 224.878906 C 28.210938 241.175781 41.46875 254.4375 57.765625 254.4375 L 117.558594 254.453125 C 118.675781 254.453125 119.582031 255.355469 119.582031 256.472656 C 119.582031 257.589844 118.675781 258.496094 117.558594 258.496094 Z M 117.558594 258.496094 " fill-opacity="1" fill-rule="nonzero"/><path fill="#5c7a8a" d="M 191.703125 209.675781 L 174.796875 193.945312 C 174.402344 193.578125 173.789062 193.578125 173.394531 193.945312 L 156.488281 209.675781 C 155.738281 210.375 156.195312 211.695312 157.1875 211.695312 L 161.640625 211.695312 L 161.640625 228.5 C 161.640625 248.136719 145.71875 264.058594 126.082031 264.058594 L 80.992188 264.058594 C 50.445312 264.058594 25.679688 288.824219 25.679688 319.371094 L 25.679688 356.8125 C 25.679688 358.980469 27.4375 360.738281 29.605469 360.738281 L 47.511719 360.722656 C 49.679688 360.722656 51.433594 358.964844 51.433594 356.800781 L 51.433594 326.058594 C 51.433594 306.039062 67.660156 289.8125 87.679688 289.8125 L 132.078125 289.8125 C 162.628906 289.8125 187.394531 265.046875 187.394531 234.496094 L 187.394531 211.695312 L 191.003906 211.695312 C 191.996094 211.695312 192.453125 210.375 191.703125 209.675781 Z M 191.703125 209.675781 " fill-opacity="1" fill-rule="nonzero"/><path fill="#252525" d="M 29.601562 362.757812 C 28.015625 362.757812 26.523438 362.140625 25.398438 361.019531 C 24.277344 359.894531 23.65625 358.402344 23.65625 356.8125 L 23.65625 319.371094 C 23.65625 304.054688 29.621094 289.65625 40.449219 278.828125 C 51.28125 268 65.679688 262.035156 80.992188 262.035156 L 126.082031 262.035156 C 144.574219 262.035156 159.617188 246.992188 159.617188 228.5 L 159.617188 213.71875 L 157.1875 213.71875 C 155.917969 213.71875 154.792969 212.941406 154.320312 211.734375 C 153.828125 210.488281 154.140625 209.097656 155.109375 208.195312 L 172.015625 192.464844 C 173.183594 191.378906 175.007812 191.378906 176.175781 192.464844 L 193.082031 208.195312 C 194.054688 209.097656 194.363281 210.488281 193.871094 211.738281 C 193.398438 212.941406 192.273438 213.71875 191.003906 213.71875 L 189.417969 213.71875 L 189.417969 234.496094 C 189.417969 249.8125 183.453125 264.210938 172.625 275.039062 C 161.792969 285.871094 147.394531 291.832031 132.082031 291.832031 L 87.679688 291.832031 C 68.808594 291.832031 53.457031 307.1875 53.457031 326.058594 L 53.457031 356.800781 C 53.457031 360.078125 50.789062 362.742188 47.515625 362.746094 L 29.605469 362.757812 C 29.605469 362.757812 29.605469 362.757812 29.601562 362.757812 Z M 80.992188 266.078125 C 51.609375 266.078125 27.703125 289.984375 27.703125 319.371094 L 27.703125 356.8125 C 27.703125 357.320312 27.898438 357.800781 28.257812 358.160156 C 28.617188 358.515625 29.09375 358.714844 29.601562 358.714844 L 47.511719 358.703125 C 48.558594 358.699219 49.410156 357.847656 49.410156 356.800781 L 49.410156 326.058594 C 49.410156 315.835938 53.390625 306.226562 60.621094 298.996094 C 67.847656 291.769531 77.457031 287.789062 87.679688 287.789062 L 132.082031 287.789062 C 161.464844 287.789062 185.371094 263.882812 185.371094 234.496094 L 185.371094 211.695312 C 185.371094 210.582031 186.277344 209.675781 187.394531 209.675781 L 188.734375 209.675781 L 174.097656 196.054688 L 159.457031 209.675781 L 161.640625 209.675781 C 162.757812 209.675781 163.664062 210.582031 163.664062 211.695312 L 163.664062 228.5 C 163.664062 238.535156 159.753906 247.972656 152.65625 255.074219 C 145.558594 262.171875 136.121094 266.078125 126.082031 266.078125 Z M 190.324219 211.15625 C 190.324219 211.15625 190.324219 211.15625 190.328125 211.15625 Z M 190.324219 211.15625 " fill-opacity="1" fill-rule="nonzero"/><path fill="#a7b6be" d="M 124.933594 332.242188 L 124.933594 326.0625 C 124.933594 324.914062 124.003906 323.980469 122.855469 323.980469 L 118.320312 323.980469 C 117.65625 320.535156 116.367188 317.53125 114.589844 314.8125 L 117.476562 311.898438 C 118.28125 311.085938 118.277344 309.777344 117.472656 308.96875 L 112.941406 304.425781 C 112.113281 303.59375 110.761719 303.613281 109.957031 304.46875 L 107.371094 307.214844 C 104.644531 305.410156 100.8125 304.089844 98.515625 303.410156 L 98.515625 299.640625 C 98.515625 298.492188 97.582031 297.5625 96.433594 297.5625 L 89.109375 297.5625 C 87.960938 297.5625 87.027344 298.492188 87.027344 299.640625 L 87.027344 303.410156 C 83.582031 304.089844 80.820312 305.402344 78.097656 307.203125 L 75.34375 304.390625 C 74.535156 303.5625 73.203125 303.558594 72.386719 304.378906 L 67.867188 308.929688 C 67.0625 309.738281 67.058594 311.042969 67.859375 311.855469 L 70.777344 314.8125 C 69 317.53125 67.734375 320.535156 67.070312 323.980469 L 62.6875 323.980469 C 61.539062 323.980469 60.609375 324.910156 60.609375 326.0625 L 60.609375 332.238281 C 60.609375 333.390625 61.539062 334.320312 62.6875 334.320312 L 67.117188 334.320312 C 67.804688 337.765625 69.105469 340.683594 70.886719 343.375 L 67.917969 346.359375 C 67.113281 347.171875 67.113281 348.484375 67.921875 349.296875 L 72.460938 353.84375 C 73.285156 354.667969 74.625 354.65625 75.433594 353.8125 L 78.230469 350.902344 C 80.921875 352.660156 83.582031 353.945312 87.027344 354.617188 L 87.027344 358.660156 C 87.027344 359.808594 87.960938 360.738281 89.109375 360.738281 L 96.433594 360.738281 C 97.582031 360.738281 98.515625 359.808594 98.515625 358.660156 L 98.515625 354.617188 C 100.8125 353.945312 104.542969 352.667969 107.234375 350.90625 L 110.082031 353.839844 C 110.894531 354.671875 112.230469 354.679688 113.050781 353.855469 L 117.542969 349.324219 C 118.347656 348.511719 118.34375 347.203125 117.539062 346.394531 L 114.535156 343.375 C 116.320312 340.683594 117.585938 337.765625 118.277344 334.320312 L 122.855469 334.320312 C 124.003906 334.320312 124.933594 333.390625 124.933594 332.242188 Z M 124.933594 332.242188 " fill-opacity="1" fill-rule="nonzero"/><path fill="#252525" d="M 96.433594 362.761719 L 89.109375 362.761719 C 86.847656 362.761719 85.007812 360.921875 85.007812 358.660156 L 85.003906 356.230469 C 82.789062 355.648438 80.742188 354.777344 78.554688 353.484375 L 76.890625 355.214844 C 76.121094 356.015625 75.085938 356.464844 73.972656 356.476562 C 73.960938 356.476562 73.945312 356.476562 73.933594 356.476562 C 72.835938 356.476562 71.808594 356.050781 71.03125 355.273438 L 66.492188 350.722656 C 64.902344 349.132812 64.898438 346.535156 66.484375 344.933594 L 68.324219 343.085938 C 67.058594 340.929688 66.128906 338.699219 65.507812 336.34375 L 62.6875 336.34375 C 60.425781 336.34375 58.585938 334.5 58.585938 332.238281 L 58.585938 326.0625 C 58.585938 323.800781 60.425781 321.960938 62.6875 321.960938 L 65.449219 321.960938 C 66.0625 319.535156 66.980469 317.269531 68.226562 315.105469 L 66.421875 313.273438 C 64.847656 311.679688 64.855469 309.089844 66.433594 307.503906 L 70.953125 302.953125 C 71.730469 302.171875 72.765625 301.742188 73.875 301.746094 C 74.980469 301.75 76.015625 302.1875 76.789062 302.976562 L 78.402344 304.625 C 80.601562 303.3125 82.726562 302.40625 85.003906 301.800781 L 85.007812 299.640625 C 85.007812 297.378906 86.847656 295.539062 89.109375 295.539062 L 96.433594 295.539062 C 98.695312 295.539062 100.535156 297.378906 100.535156 299.640625 L 100.535156 301.921875 C 102.398438 302.535156 104.847656 303.457031 107.011719 304.644531 L 108.488281 303.082031 C 109.253906 302.265625 110.292969 301.808594 111.414062 301.792969 C 112.53125 301.769531 113.585938 302.207031 114.375 303 L 118.902344 307.539062 C 120.488281 309.128906 120.496094 311.722656 118.914062 313.320312 L 117.144531 315.105469 C 118.402344 317.285156 119.324219 319.550781 119.941406 321.960938 L 122.855469 321.960938 C 125.117188 321.960938 126.957031 323.800781 126.957031 326.0625 L 126.957031 332.238281 C 126.957031 334.5 125.117188 336.34375 122.855469 336.34375 L 119.882812 336.34375 C 119.261719 338.722656 118.339844 340.949219 117.097656 343.082031 L 118.972656 344.964844 C 120.554688 346.558594 120.558594 349.152344 118.976562 350.746094 L 114.484375 355.277344 C 113.707031 356.0625 112.675781 356.492188 111.574219 356.492188 C 111.566406 356.492188 111.558594 356.492188 111.550781 356.492188 C 110.441406 356.484375 109.40625 356.042969 108.632812 355.246094 L 106.894531 353.460938 C 104.757812 354.625 102.363281 355.515625 100.535156 356.109375 L 100.535156 358.660156 C 100.535156 360.921875 98.695312 362.761719 96.433594 362.761719 Z M 78.230469 348.878906 C 78.613281 348.878906 79 348.988281 79.339844 349.207031 C 82.167969 351.058594 84.582031 352.082031 87.414062 352.632812 C 88.363281 352.816406 89.050781 353.648438 89.050781 354.617188 L 89.050781 358.660156 C 89.050781 358.691406 89.074219 358.714844 89.109375 358.714844 L 96.433594 358.714844 C 96.464844 358.714844 96.492188 358.691406 96.492188 358.660156 L 96.492188 354.617188 C 96.492188 353.71875 97.085938 352.929688 97.945312 352.675781 C 99.515625 352.21875 103.449219 350.964844 106.128906 349.214844 C 106.9375 348.683594 108.011719 348.804688 108.6875 349.5 L 111.53125 352.429688 C 111.539062 352.4375 111.550781 352.445312 111.574219 352.445312 C 111.589844 352.445312 111.609375 352.4375 111.613281 352.429688 L 116.105469 347.898438 C 116.128906 347.878906 116.128906 347.84375 116.105469 347.820312 L 113.101562 344.800781 C 112.425781 344.121094 112.320312 343.058594 112.847656 342.257812 C 114.5625 339.675781 115.6875 336.949219 116.292969 333.921875 C 116.480469 332.976562 117.3125 332.296875 118.273438 332.296875 L 122.855469 332.296875 C 122.886719 332.296875 122.914062 332.273438 122.914062 332.238281 L 122.914062 326.0625 C 122.914062 326.027344 122.886719 326.003906 122.855469 326.003906 L 118.320312 326.003906 C 117.351562 326.003906 116.519531 325.316406 116.335938 324.363281 C 115.75 321.324219 114.625 318.5625 112.898438 315.917969 C 112.375 315.121094 112.480469 314.066406 113.152344 313.390625 L 116.039062 310.476562 C 116.0625 310.453125 116.0625 310.417969 116.039062 310.394531 L 111.511719 305.855469 C 111.503906 305.847656 111.496094 305.839844 111.46875 305.835938 C 111.445312 305.835938 111.4375 305.847656 111.429688 305.855469 L 108.839844 308.601562 C 108.164062 309.320312 107.074219 309.445312 106.253906 308.902344 C 103.667969 307.1875 99.933594 305.9375 97.9375 305.347656 C 97.082031 305.09375 96.492188 304.304688 96.492188 303.410156 L 96.492188 299.640625 C 96.492188 299.609375 96.464844 299.582031 96.433594 299.582031 L 89.109375 299.582031 C 89.078125 299.582031 89.050781 299.609375 89.050781 299.640625 L 89.050781 303.410156 C 89.050781 304.375 88.367188 305.203125 87.421875 305.390625 C 84.535156 305.964844 82.003906 307.042969 79.214844 308.890625 C 78.40625 309.425781 77.332031 309.3125 76.652344 308.621094 L 73.898438 305.804688 C 73.890625 305.800781 73.882812 305.789062 73.859375 305.789062 C 73.835938 305.789062 73.828125 305.800781 73.820312 305.804688 L 69.300781 310.355469 C 69.277344 310.375 69.277344 310.414062 69.300781 310.4375 L 72.21875 313.390625 C 72.886719 314.070312 72.992188 315.121094 72.472656 315.917969 C 70.765625 318.527344 69.648438 321.292969 69.054688 324.363281 C 68.871094 325.316406 68.039062 326.003906 67.070312 326.003906 L 62.6875 326.003906 C 62.65625 326.003906 62.628906 326.027344 62.628906 326.0625 L 62.628906 332.238281 C 62.628906 332.273438 62.65625 332.296875 62.6875 332.296875 L 67.117188 332.296875 C 68.078125 332.296875 68.910156 332.976562 69.097656 333.921875 C 69.691406 336.898438 70.828125 339.625 72.574219 342.257812 C 73.101562 343.058594 72.996094 344.121094 72.320312 344.800781 L 69.355469 347.785156 C 69.332031 347.808594 69.332031 347.84375 69.355469 347.867188 L 73.890625 352.414062 C 73.898438 352.417969 73.914062 352.425781 73.933594 352.429688 C 73.957031 352.429688 73.96875 352.421875 73.972656 352.414062 L 76.773438 349.5 C 77.167969 349.089844 77.695312 348.878906 78.230469 348.878906 Z M 78.230469 348.878906 " fill-opacity="1" fill-rule="nonzero"/><path fill="#252525" d="M 155.636719 346.855469 C 154.519531 346.855469 153.613281 345.949219 153.613281 344.832031 L 153.613281 317.96875 L 146.707031 324.09375 C 145.875 324.835938 144.59375 324.757812 143.855469 323.925781 C 143.113281 323.089844 143.1875 321.808594 144.023438 321.070312 L 154.292969 311.957031 C 154.890625 311.429688 155.738281 311.300781 156.464844 311.625 C 157.191406 311.953125 157.660156 312.675781 157.660156 313.46875 L 157.660156 344.832031 C 157.660156 345.949219 156.753906 346.855469 155.636719 346.855469 Z M 155.636719 346.855469 " fill-opacity="1" fill-rule="nonzero"/><path fill="#252525" d="M 164.472656 346.851562 L 146.800781 346.851562 C 145.683594 346.851562 144.777344 345.949219 144.777344 344.832031 C 144.777344 343.714844 145.683594 342.808594 146.800781 342.808594 L 164.472656 342.808594 C 165.589844 342.808594 166.496094 343.714844 166.496094 344.832031 C 166.496094 345.949219 165.589844 346.851562 164.472656 346.851562 Z M 164.472656 346.851562 " fill-opacity="1" fill-rule="nonzero"/><path fill="#a7b6be" d="M 88.480469 227.972656 L 88.480469 221.792969 C 88.480469 220.648438 89.410156 219.714844 90.558594 219.714844 L 95.09375 219.714844 C 95.757812 216.269531 97.046875 213.269531 98.824219 210.546875 L 95.9375 207.632812 C 95.132812 206.820312 95.136719 205.511719 95.941406 204.703125 L 100.472656 200.160156 C 101.300781 199.328125 102.652344 199.347656 103.457031 200.203125 L 106.046875 202.949219 C 108.769531 201.144531 112.601562 199.824219 114.902344 199.144531 L 114.898438 195.375 C 114.898438 194.226562 115.832031 193.296875 116.980469 193.296875 L 124.308594 193.296875 C 125.457031 193.296875 126.386719 194.226562 126.386719 195.375 L 126.386719 199.144531 C 129.832031 199.824219 132.59375 201.136719 135.316406 202.941406 L 138.070312 200.125 C 138.882812 199.300781 140.210938 199.292969 141.027344 200.113281 L 145.550781 204.664062 C 146.351562 205.472656 146.355469 206.777344 145.554688 207.589844 L 142.636719 210.546875 C 144.414062 213.269531 145.679688 216.269531 146.347656 219.714844 L 150.726562 219.714844 C 151.875 219.714844 152.808594 220.648438 152.808594 221.792969 L 152.808594 227.972656 C 152.808594 229.121094 151.875 230.054688 150.726562 230.054688 L 146.296875 230.054688 C 145.609375 233.5 144.3125 236.417969 142.527344 239.109375 L 145.496094 242.09375 C 146.300781 242.90625 146.300781 244.21875 145.492188 245.03125 L 140.953125 249.578125 C 140.128906 250.402344 138.789062 250.390625 137.980469 249.550781 L 135.183594 246.636719 C 132.492188 248.394531 129.832031 249.683594 126.386719 250.351562 L 126.386719 254.394531 C 126.386719 255.542969 125.457031 256.472656 124.308594 256.472656 L 116.980469 256.472656 C 115.832031 256.472656 114.898438 255.542969 114.898438 254.394531 L 114.898438 250.351562 C 112.601562 249.683594 108.871094 248.402344 106.179688 246.640625 L 103.332031 249.574219 C 102.523438 250.40625 101.183594 250.414062 100.363281 249.589844 L 95.875 245.058594 C 95.070312 244.246094 95.070312 242.9375 95.875 242.128906 L 98.878906 239.109375 C 97.09375 236.417969 95.828125 233.5 95.140625 230.054688 L 90.558594 230.054688 C 89.410156 230.054688 88.480469 229.121094 88.480469 227.972656 Z M 88.480469 227.972656 " fill-opacity="1" fill-rule="nonzero"/><path fill="#252525" d="M 124.308594 258.496094 L 116.980469 258.496094 C 114.71875 258.496094 112.878906 256.65625 112.878906 254.394531 L 112.878906 251.84375 C 111.054688 251.25 108.65625 250.359375 106.519531 249.195312 L 104.785156 250.980469 C 104.007812 251.777344 102.972656 252.21875 101.859375 252.226562 C 100.753906 252.226562 99.710938 251.800781 98.929688 251.011719 L 94.4375 246.480469 C 92.855469 244.886719 92.855469 242.292969 94.441406 240.699219 L 96.316406 238.816406 C 95.074219 236.683594 94.152344 234.457031 93.53125 232.074219 L 90.558594 232.074219 C 88.296875 232.074219 86.457031 230.234375 86.457031 227.972656 L 86.457031 221.792969 C 86.457031 219.53125 88.296875 217.691406 90.558594 217.691406 L 93.472656 217.691406 C 94.089844 215.285156 95.011719 213.019531 96.269531 210.839844 L 94.5 209.054688 C 92.917969 207.460938 92.921875 204.867188 94.511719 203.273438 L 99.039062 198.730469 C 99.828125 197.9375 100.886719 197.507812 102 197.527344 C 103.121094 197.542969 104.160156 198 104.925781 198.816406 L 106.402344 200.378906 C 108.566406 199.1875 111.015625 198.269531 112.878906 197.65625 L 112.878906 195.375 C 112.878906 193.113281 114.71875 191.273438 116.980469 191.273438 L 124.308594 191.273438 C 126.570312 191.273438 128.410156 193.113281 128.410156 195.375 L 128.410156 197.535156 C 130.6875 198.140625 132.8125 199.046875 135.011719 200.359375 L 136.625 198.710938 C 137.402344 197.921875 138.4375 197.484375 139.542969 197.480469 C 140.648438 197.480469 141.683594 197.90625 142.460938 198.691406 L 146.984375 203.238281 C 148.5625 204.828125 148.566406 207.414062 146.992188 209.011719 L 145.1875 210.839844 C 146.433594 213.003906 147.351562 215.269531 147.964844 217.691406 L 150.726562 217.691406 C 152.988281 217.691406 154.828125 219.53125 154.828125 221.792969 L 154.828125 227.972656 C 154.828125 230.234375 152.988281 232.074219 150.726562 232.074219 L 147.90625 232.074219 C 147.28125 234.433594 146.351562 236.664062 145.089844 238.820312 L 146.929688 240.667969 C 148.519531 242.269531 148.515625 244.867188 146.921875 246.460938 L 142.386719 251.003906 C 141.597656 251.792969 140.546875 252.214844 139.445312 252.210938 C 138.332031 252.199219 137.296875 251.75 136.523438 250.949219 L 134.859375 249.21875 C 132.671875 250.511719 130.628906 251.382812 128.410156 251.964844 L 128.410156 254.394531 C 128.410156 256.65625 126.570312 258.496094 124.308594 258.496094 Z M 106.179688 244.621094 C 106.5625 244.621094 106.949219 244.726562 107.285156 244.949219 C 109.964844 246.699219 113.898438 247.953125 115.464844 248.410156 C 116.328125 248.664062 116.921875 249.453125 116.921875 250.351562 L 116.921875 254.394531 C 116.921875 254.425781 116.949219 254.453125 116.980469 254.453125 L 124.308594 254.453125 C 124.339844 254.453125 124.363281 254.425781 124.363281 254.394531 L 124.363281 250.351562 C 124.363281 249.386719 125.050781 248.550781 126 248.367188 C 128.832031 247.816406 131.246094 246.792969 134.078125 244.941406 C 134.890625 244.410156 135.96875 244.53125 136.640625 245.234375 L 139.441406 248.148438 C 139.445312 248.152344 139.457031 248.164062 139.480469 248.164062 C 139.507812 248.164062 139.515625 248.15625 139.523438 248.148438 L 144.058594 243.601562 C 144.082031 243.578125 144.082031 243.542969 144.0625 243.519531 L 141.09375 240.535156 C 140.417969 239.855469 140.3125 238.792969 140.839844 237.992188 C 142.582031 235.363281 143.71875 232.636719 144.316406 229.65625 C 144.503906 228.710938 145.335938 228.03125 146.296875 228.03125 L 150.726562 228.03125 C 150.757812 228.03125 150.785156 228.003906 150.785156 227.972656 L 150.785156 221.792969 C 150.785156 221.765625 150.757812 221.738281 150.726562 221.738281 L 146.347656 221.738281 C 145.375 221.738281 144.542969 221.050781 144.359375 220.097656 C 143.765625 217.027344 142.648438 214.261719 140.941406 211.652344 C 140.421875 210.855469 140.527344 209.804688 141.195312 209.125 L 144.113281 206.167969 C 144.136719 206.144531 144.136719 206.109375 144.113281 206.089844 L 139.59375 201.539062 C 139.585938 201.535156 139.578125 201.523438 139.554688 201.523438 C 139.53125 201.523438 139.523438 201.535156 139.515625 201.539062 L 136.761719 204.355469 C 136.082031 205.046875 135.007812 205.160156 134.199219 204.625 C 131.410156 202.777344 128.878906 201.699219 125.992188 201.125 C 125.046875 200.9375 124.363281 200.109375 124.363281 199.140625 L 124.363281 195.375 C 124.363281 195.34375 124.339844 195.316406 124.308594 195.316406 L 116.980469 195.316406 C 116.949219 195.316406 116.921875 195.34375 116.921875 195.375 L 116.921875 199.140625 C 116.921875 200.039062 116.335938 200.828125 115.476562 201.082031 C 113.480469 201.671875 109.75 202.921875 107.164062 204.636719 C 106.339844 205.179688 105.25 205.050781 104.574219 204.335938 L 101.984375 201.589844 C 101.980469 201.582031 101.96875 201.570312 101.945312 201.570312 C 101.921875 201.570312 101.910156 201.582031 101.902344 201.589844 L 97.375 206.128906 C 97.351562 206.152344 97.351562 206.1875 97.375 206.207031 L 100.261719 209.121094 C 100.933594 209.800781 101.039062 210.855469 100.519531 211.652344 C 98.789062 214.296875 97.664062 217.058594 97.078125 220.097656 C 96.894531 221.050781 96.0625 221.738281 95.09375 221.738281 L 90.558594 221.738281 C 90.527344 221.738281 90.503906 221.761719 90.503906 221.792969 L 90.503906 227.972656 C 90.503906 228.007812 90.527344 228.03125 90.558594 228.03125 L 95.140625 228.03125 C 96.105469 228.03125 96.933594 228.710938 97.125 229.65625 C 97.726562 232.679688 98.851562 235.40625 100.566406 237.992188 C 101.09375 238.792969 100.988281 239.855469 100.3125 240.535156 L 97.308594 243.554688 C 97.289062 243.574219 97.289062 243.609375 97.308594 243.632812 L 101.800781 248.164062 C 101.808594 248.171875 101.8125 248.179688 101.839844 248.179688 C 101.867188 248.179688 101.875 248.167969 101.882812 248.164062 L 104.730469 245.234375 C 105.121094 244.828125 105.648438 244.621094 106.179688 244.621094 Z M 106.179688 244.621094 " fill-opacity="1" fill-rule="nonzero"/><path fill="#252525" d="M 72.613281 242.585938 L 53.503906 242.585938 C 52.390625 242.585938 51.484375 241.683594 51.484375 240.566406 L 51.484375 231.996094 C 51.484375 226.960938 55.582031 222.863281 60.617188 222.863281 L 65.5 222.863281 C 68.308594 222.863281 70.589844 220.578125 70.589844 217.773438 L 70.589844 216.316406 C 70.589844 213.507812 68.308594 211.226562 65.5 211.226562 L 60.617188 211.226562 C 57.8125 211.226562 55.527344 213.507812 55.527344 216.316406 C 55.527344 217.429688 54.621094 218.335938 53.503906 218.335938 C 52.390625 218.335938 51.484375 217.429688 51.484375 216.316406 C 51.484375 211.277344 55.582031 207.179688 60.617188 207.179688 L 65.5 207.179688 C 70.539062 207.179688 74.632812 211.277344 74.632812 216.316406 L 74.632812 217.773438 C 74.632812 222.808594 70.535156 226.90625 65.5 226.90625 L 60.617188 226.90625 C 57.8125 226.90625 55.527344 229.191406 55.527344 231.996094 L 55.527344 238.542969 L 72.613281 238.542969 C 73.726562 238.542969 74.632812 239.449219 74.632812 240.566406 C 74.632812 241.683594 73.726562 242.585938 72.613281 242.585938 Z M 72.613281 242.585938 " fill-opacity="1" fill-rule="nonzero"/><path fill="#252525" d="M 117.558594 235.847656 C 117.539062 235.847656 117.515625 235.847656 117.492188 235.847656 C 116.890625 235.828125 116.328125 235.539062 115.960938 235.0625 L 106.871094 223.320312 C 106.1875 222.4375 106.351562 221.167969 107.234375 220.484375 C 108.117188 219.800781 109.386719 219.960938 110.070312 220.84375 L 117.664062 230.65625 L 131.300781 215.230469 C 132.039062 214.394531 133.316406 214.316406 134.152344 215.054688 C 134.992188 215.792969 135.070312 217.070312 134.328125 217.910156 L 119.074219 235.164062 C 118.691406 235.601562 118.136719 235.847656 117.558594 235.847656 Z M 117.558594 235.847656 " fill-opacity="1" fill-rule="nonzero"/><path fill="#252525" d="M 89.6875 339.5 C 89.664062 339.5 89.644531 339.5 89.621094 339.5 C 89.019531 339.480469 88.457031 339.191406 88.089844 338.714844 L 79 326.972656 C 78.316406 326.089844 78.480469 324.816406 79.363281 324.132812 C 80.246094 323.449219 81.515625 323.613281 82.199219 324.496094 L 89.789062 334.308594 L 103.425781 318.882812 C 104.167969 318.042969 105.445312 317.964844 106.28125 318.707031 C 107.117188 319.445312 107.199219 320.722656 106.457031 321.558594 L 91.203125 338.816406 C 90.816406 339.25 90.265625 339.5 89.6875 339.5 Z M 89.6875 339.5 " fill-opacity="1" fill-rule="nonzero"/><path fill="#ffffff" d="M 355.621094 193.878906 C 359.632812 193.878906 362.882812 197.132812 362.882812 201.144531 L 362.882812 360.105469 C 362.882812 364.117188 359.632812 367.371094 355.617188 367.371094 L 235.085938 367.371094 C 229.070312 367.371094 224.191406 362.492188 224.191406 356.472656 L 224.191406 201.144531 C 224.191406 197.132812 227.441406 193.878906 231.453125 193.878906 Z M 355.621094 193.878906 " fill-opacity="1" fill-rule="nonzero"/><path fill="#252525" d="M 355.617188 369.394531 L 235.085938 369.394531 C 227.964844 369.394531 222.167969 363.597656 222.167969 356.472656 L 222.167969 201.144531 C 222.167969 196.023438 226.332031 191.855469 231.453125 191.855469 L 355.621094 191.855469 C 360.742188 191.855469 364.90625 196.023438 364.90625 201.144531 L 364.90625 360.105469 C 364.90625 365.226562 360.738281 369.394531 355.617188 369.394531 Z M 231.453125 195.902344 C 228.5625 195.902344 226.210938 198.253906 226.210938 201.144531 L 226.210938 356.472656 C 226.210938 361.367188 230.195312 365.347656 235.085938 365.347656 L 355.617188 365.347656 C 358.507812 365.347656 360.863281 362.996094 360.863281 360.105469 L 360.863281 201.144531 C 360.863281 198.253906 358.511719 195.902344 355.621094 195.902344 Z M 231.453125 195.902344 " fill-opacity="1" fill-rule="nonzero"/><path fill="#a7b6be" d="M 224.191406 201.144531 C 224.191406 197.132812 227.441406 193.878906 231.453125 193.878906 L 355.621094 193.878906 C 359.632812 193.878906 362.882812 197.132812 362.882812 201.144531 L 362.882812 247.5 L 224.191406 247.5 Z M 224.191406 201.144531 " fill-opacity="1" fill-rule="nonzero"/><path fill="#252525" d="M 362.882812 249.519531 L 224.191406 249.519531 C 223.074219 249.519531 222.167969 248.617188 222.167969 247.5 L 222.167969 201.144531 C 222.167969 196.023438 226.332031 191.855469 231.453125 191.855469 L 355.621094 191.855469 C 360.742188 191.855469 364.90625 196.023438 364.90625 201.144531 L 364.90625 247.5 C 364.90625 248.617188 364 249.519531 362.882812 249.519531 Z M 226.210938 245.476562 L 360.863281 245.476562 L 360.863281 201.144531 C 360.863281 198.253906 358.511719 195.902344 355.621094 195.902344 L 231.453125 195.902344 C 228.5625 195.902344 226.210938 198.253906 226.210938 201.144531 Z M 226.210938 245.476562 " fill-opacity="1" fill-rule="nonzero"/><path fill="#252525" d="M 321.296875 234.726562 C 320.179688 234.726562 319.273438 233.824219 319.273438 232.707031 L 319.273438 209.910156 C 319.273438 209.085938 319.578125 208.34375 320.15625 207.757812 C 320.734375 207.175781 321.503906 206.855469 322.328125 206.855469 C 323.257812 206.855469 324.089844 207.246094 324.675781 207.960938 C 324.691406 207.980469 324.710938 208.003906 324.726562 208.027344 L 338.40625 226.136719 L 338.40625 208.792969 C 338.40625 207.675781 339.308594 206.769531 340.425781 206.769531 C 341.542969 206.769531 342.449219 207.675781 342.449219 208.792969 L 342.449219 232.167969 C 342.449219 233.039062 341.894531 233.808594 341.070312 234.085938 C 340.246094 234.363281 339.335938 234.082031 338.8125 233.386719 L 323.320312 212.871094 L 323.320312 232.707031 C 323.320312 233.824219 322.414062 234.726562 321.296875 234.726562 Z M 321.296875 234.726562 " fill-opacity="1" fill-rule="nonzero"/><path fill="#252525" d="M 247.167969 234.726562 C 246.050781 234.726562 245.144531 233.824219 245.144531 232.707031 L 245.144531 209.800781 C 245.144531 208.980469 245.449219 208.238281 246.019531 207.660156 C 246.601562 207.078125 247.347656 206.769531 248.183594 206.769531 L 253.65625 206.769531 C 256.578125 206.769531 259.089844 207.792969 261.117188 209.808594 C 263.195312 211.804688 264.246094 214.277344 264.246094 217.160156 C 264.246094 220.023438 263.191406 222.503906 261.113281 224.53125 C 259.0625 226.539062 256.550781 227.554688 253.65625 227.554688 L 249.1875 227.554688 L 249.1875 232.707031 C 249.1875 233.824219 248.285156 234.726562 247.167969 234.726562 Z M 249.1875 223.507812 L 253.65625 223.507812 C 255.484375 223.507812 257 222.898438 258.289062 221.636719 C 259.578125 220.382812 260.203125 218.917969 260.203125 217.160156 C 260.203125 215.394531 259.582031 213.941406 258.304688 212.714844 C 258.292969 212.707031 258.285156 212.695312 258.273438 212.6875 C 257.011719 211.425781 255.5 210.816406 253.65625 210.816406 L 249.1875 210.816406 Z M 249.1875 223.507812 " fill-opacity="1" fill-rule="nonzero"/><path fill="#252525" d="M 292.976562 234.988281 C 292.707031 234.988281 292.429688 234.933594 292.167969 234.820312 C 291.144531 234.371094 290.675781 233.179688 291.125 232.15625 L 301.472656 208.503906 C 301.792969 207.773438 302.511719 207.300781 303.308594 207.292969 C 304.097656 207.289062 304.832031 207.746094 305.164062 208.472656 L 316.042969 232.121094 C 316.507812 233.136719 316.066406 234.335938 315.050781 234.804688 C 314.035156 235.269531 312.835938 234.824219 312.367188 233.8125 L 309.488281 227.554688 L 297.554688 227.554688 L 294.832031 233.777344 C 294.496094 234.535156 293.753906 234.988281 292.976562 234.988281 Z M 299.324219 223.507812 L 307.628906 223.507812 L 303.371094 214.253906 Z M 299.324219 223.507812 " fill-opacity="1" fill-rule="nonzero"/><path fill="#252525" d="M 285.425781 234.726562 L 271.082031 234.726562 C 269.964844 234.726562 269.058594 233.824219 269.058594 232.707031 L 269.058594 208.792969 C 269.058594 207.675781 269.964844 206.769531 271.082031 206.769531 C 272.195312 206.769531 273.101562 207.675781 273.101562 208.792969 L 273.101562 230.683594 L 285.425781 230.683594 C 286.542969 230.683594 287.449219 231.589844 287.449219 232.707031 C 287.449219 233.824219 286.542969 234.726562 285.425781 234.726562 Z M 285.425781 234.726562 " fill-opacity="1" fill-rule="nonzero"/><path fill="#252525" d="M 260.890625 299.050781 C 259.773438 299.050781 258.867188 298.144531 258.867188 297.027344 L 258.867188 275.804688 L 251.46875 284.859375 C 250.761719 285.722656 249.488281 285.851562 248.625 285.144531 C 247.757812 284.4375 247.628906 283.164062 248.335938 282.300781 L 259.324219 268.851562 C 259.867188 268.191406 260.765625 267.941406 261.570312 268.226562 C 262.375 268.515625 262.914062 269.277344 262.914062 270.132812 L 262.914062 297.027344 C 262.914062 298.144531 262.007812 299.050781 260.890625 299.050781 Z M 260.890625 299.050781 " fill-opacity="1" fill-rule="nonzero"/><path fill="#252525" d="M 269.199219 343.480469 L 253.433594 343.480469 C 252.574219 343.480469 251.808594 342.9375 251.523438 342.128906 C 251.242188 341.316406 251.5 340.417969 252.167969 339.878906 L 252.28125 339.789062 C 255.316406 337.339844 258.085938 334.636719 260.523438 331.757812 C 263.53125 328.199219 266.808594 323.660156 265.445312 320.097656 C 264.957031 318.824219 263.757812 316.675781 261.199219 316.589844 C 258.921875 316.515625 256.804688 317.546875 255.425781 318.429688 C 254.484375 319.03125 253.234375 318.757812 252.632812 317.816406 C 252.03125 316.875 252.304688 315.625 253.246094 315.023438 C 255.105469 313.832031 258.019531 312.433594 261.335938 312.546875 C 264.910156 312.667969 267.785156 314.890625 269.222656 318.652344 C 271.613281 324.90625 266.007812 331.535156 263.613281 334.367188 C 262.125 336.125 260.523438 337.820312 258.820312 339.4375 L 269.199219 339.4375 C 270.316406 339.4375 271.222656 340.34375 271.222656 341.457031 C 271.222656 342.574219 270.316406 343.480469 269.199219 343.480469 Z M 269.199219 343.480469 " fill-opacity="1" fill-rule="nonzero"/><path fill="#252525" d="M 335.425781 292.710938 L 283.660156 292.710938 C 282.542969 292.710938 281.636719 291.804688 281.636719 290.6875 C 281.636719 289.574219 282.542969 288.667969 283.660156 288.667969 L 335.425781 288.667969 C 336.542969 288.667969 337.449219 289.574219 337.449219 290.6875 C 337.449219 291.804688 336.542969 292.710938 335.425781 292.710938 Z M 335.425781 292.710938 " fill-opacity="1" fill-rule="nonzero"/><path fill="#252525" d="M 335.425781 277.144531 L 283.660156 277.144531 C 282.542969 277.144531 281.636719 276.238281 281.636719 275.121094 C 281.636719 274.003906 282.542969 273.097656 283.660156 273.097656 L 335.425781 273.097656 C 336.542969 273.097656 337.449219 274.003906 337.449219 275.121094 C 337.449219 276.238281 336.542969 277.144531 335.425781 277.144531 Z M 335.425781 277.144531 " fill-opacity="1" fill-rule="nonzero"/><path fill="#252525" d="M 335.425781 337.816406 L 283.660156 337.816406 C 282.542969 337.816406 281.636719 336.910156 281.636719 335.796875 C 281.636719 334.679688 282.542969 333.773438 283.660156 333.773438 L 335.425781 333.773438 C 336.542969 333.773438 337.449219 334.679688 337.449219 335.796875 C 337.449219 336.910156 336.542969 337.816406 335.425781 337.816406 Z M 335.425781 337.816406 " fill-opacity="1" fill-rule="nonzero"/><path fill="#252525" d="M 335.425781 322.25 L 283.660156 322.25 C 282.542969 322.25 281.636719 321.34375 281.636719 320.226562 C 281.636719 319.109375 282.542969 318.207031 283.660156 318.207031 L 335.425781 318.207031 C 336.542969 318.207031 337.449219 319.109375 337.449219 320.226562 C 337.449219 321.34375 336.542969 322.25 335.425781 322.25 Z M 335.425781 322.25 " fill-opacity="1" fill-rule="nonzero"/><path fill="#ffffff" d="M 115.359375 35.539062 L 115.0625 35.539062 L 115.0625 171.148438 L 293.9375 171.148438 L 293.9375 35.609375 C 293.9375 35.609375 111.851562 35.175781 115.359375 35.539062 Z M 115.359375 35.539062 " fill-opacity="1" fill-rule="nonzero"/><path fill="#252525" d="M 293.9375 173.171875 L 115.0625 173.171875 C 113.945312 173.171875 113.039062 172.265625 113.039062 171.148438 L 113.039062 35.539062 C 113.039062 34.421875 113.945312 33.515625 115.0625 33.515625 L 115.09375 33.515625 C 115.167969 33.503906 115.242188 33.496094 115.324219 33.492188 C 115.421875 33.488281 115.570312 33.480469 115.769531 33.476562 C 116.117188 33.464844 116.617188 33.457031 117.292969 33.449219 C 118.574219 33.433594 120.488281 33.421875 122.980469 33.410156 C 127.613281 33.390625 134.425781 33.378906 143.226562 33.371094 C 158.042969 33.367188 178.703125 33.378906 204.632812 33.417969 C 248.777344 33.480469 293.496094 33.585938 293.941406 33.585938 C 295.054688 33.589844 295.957031 34.496094 295.957031 35.609375 L 295.957031 171.148438 C 295.957031 172.265625 295.050781 173.171875 293.9375 173.171875 Z M 117.082031 169.125 L 291.914062 169.125 L 291.914062 37.625 C 252 37.53125 189.824219 37.414062 150.933594 37.414062 C 133.925781 37.414062 121.378906 37.4375 117.082031 37.496094 Z M 115.566406 33.527344 C 115.566406 33.527344 115.570312 33.527344 115.570312 33.527344 C 115.570312 33.527344 115.566406 33.527344 115.566406 33.527344 Z M 115.566406 33.527344 " fill-opacity="1" fill-rule="nonzero"/><path fill="#a7b6be" d="M 201.699219 103.667969 C 202.765625 107.191406 203.339844 110.925781 203.339844 114.792969 C 203.339844 135.941406 186.195312 153.089844 165.046875 153.089844 C 143.898438 153.089844 126.75 135.941406 126.75 114.792969 C 126.75 93.644531 143.898438 76.5 165.046875 76.5 C 176.761719 76.5 187.25 81.761719 194.273438 90.046875 Z M 201.699219 103.667969 " fill-opacity="1" fill-rule="nonzero"/><path fill="#252525" d="M 165.046875 155.113281 C 154.277344 155.113281 144.152344 150.917969 136.539062 143.300781 C 128.921875 135.6875 124.730469 125.5625 124.730469 114.792969 C 124.730469 104.023438 128.921875 93.902344 136.539062 86.285156 C 144.152344 78.671875 154.277344 74.476562 165.046875 74.476562 C 176.917969 74.476562 188.132812 79.675781 195.816406 88.742188 C 196.539062 89.59375 196.433594 90.871094 195.582031 91.589844 C 194.730469 92.3125 193.453125 92.207031 192.730469 91.355469 C 185.820312 83.199219 175.726562 78.523438 165.046875 78.523438 C 145.046875 78.523438 128.773438 94.792969 128.773438 114.792969 C 128.773438 134.796875 145.046875 151.066406 165.046875 151.066406 C 185.046875 151.066406 201.316406 134.796875 201.316406 114.792969 C 201.316406 111.199219 200.796875 107.65625 199.765625 104.257812 C 199.441406 103.1875 200.042969 102.058594 201.113281 101.734375 C 202.183594 101.410156 203.3125 102.015625 203.636719 103.082031 C 204.78125 106.863281 205.363281 110.804688 205.363281 114.792969 C 205.363281 125.5625 201.167969 135.6875 193.554688 143.300781 C 185.941406 150.917969 175.816406 155.113281 165.046875 155.113281 Z M 165.046875 155.113281 " fill-opacity="1" fill-rule="nonzero"/><path fill="#ffffff" d="M 184.195312 114.792969 C 184.195312 115.421875 184.164062 116.046875 184.101562 116.671875 C 184.039062 117.296875 183.949219 117.914062 183.824219 118.53125 C 183.703125 119.144531 183.550781 119.753906 183.371094 120.351562 C 183.1875 120.953125 182.976562 121.542969 182.734375 122.121094 C 182.496094 122.699219 182.226562 123.265625 181.933594 123.820312 C 181.636719 124.375 181.316406 124.910156 180.96875 125.433594 C 180.617188 125.953125 180.246094 126.457031 179.847656 126.941406 C 179.449219 127.425781 179.027344 127.890625 178.585938 128.332031 C 178.140625 128.777344 177.679688 129.199219 177.195312 129.59375 C 176.707031 129.992188 176.207031 130.367188 175.683594 130.714844 C 175.164062 131.0625 174.625 131.386719 174.074219 131.679688 C 173.519531 131.976562 172.953125 132.242188 172.375 132.484375 C 171.792969 132.722656 171.203125 132.933594 170.605469 133.117188 C 170.003906 133.300781 169.398438 133.453125 168.78125 133.574219 C 168.167969 133.695312 167.546875 133.789062 166.921875 133.847656 C 166.300781 133.910156 165.671875 133.941406 165.046875 133.941406 C 164.417969 133.941406 163.792969 133.910156 163.167969 133.847656 C 162.546875 133.789062 161.925781 133.695312 161.3125 133.574219 C 160.695312 133.453125 160.089844 133.300781 159.488281 133.117188 C 158.886719 132.933594 158.296875 132.722656 157.71875 132.484375 C 157.140625 132.242188 156.574219 131.976562 156.019531 131.679688 C 155.46875 131.386719 154.929688 131.0625 154.410156 130.714844 C 153.886719 130.367188 153.382812 129.992188 152.898438 129.59375 C 152.414062 129.199219 151.949219 128.777344 151.507812 128.332031 C 151.0625 127.890625 150.644531 127.425781 150.246094 126.941406 C 149.847656 126.457031 149.472656 125.953125 149.125 125.433594 C 148.777344 124.910156 148.457031 124.375 148.160156 123.820312 C 147.863281 123.265625 147.597656 122.699219 147.355469 122.121094 C 147.117188 121.542969 146.90625 120.953125 146.722656 120.351562 C 146.542969 119.753906 146.390625 119.144531 146.265625 118.53125 C 146.144531 117.914062 146.054688 117.296875 145.992188 116.671875 C 145.929688 116.046875 145.898438 115.421875 145.898438 114.792969 C 145.898438 114.167969 145.929688 113.542969 145.992188 112.917969 C 146.054688 112.292969 146.144531 111.675781 146.265625 111.058594 C 146.390625 110.445312 146.542969 109.835938 146.722656 109.234375 C 146.90625 108.636719 147.117188 108.046875 147.355469 107.46875 C 147.597656 106.886719 147.863281 106.320312 148.160156 105.769531 C 148.457031 105.214844 148.777344 104.679688 149.125 104.15625 C 149.472656 103.636719 149.847656 103.132812 150.246094 102.648438 C 150.644531 102.164062 151.0625 101.699219 151.507812 101.253906 C 151.949219 100.8125 152.414062 100.390625 152.898438 99.992188 C 153.382812 99.59375 153.886719 99.222656 154.410156 98.875 C 154.929688 98.527344 155.46875 98.203125 156.019531 97.90625 C 156.574219 97.613281 157.140625 97.34375 157.71875 97.105469 C 158.296875 96.863281 158.886719 96.652344 159.488281 96.472656 C 160.089844 96.289062 160.695312 96.136719 161.3125 96.015625 C 161.925781 95.894531 162.546875 95.800781 163.167969 95.738281 C 163.792969 95.679688 164.417969 95.648438 165.046875 95.648438 C 165.671875 95.648438 166.300781 95.679688 166.921875 95.738281 C 167.546875 95.800781 168.167969 95.894531 168.78125 96.015625 C 169.398438 96.136719 170.003906 96.289062 170.605469 96.472656 C 171.203125 96.652344 171.792969 96.863281 172.375 97.105469 C 172.953125 97.34375 173.519531 97.613281 174.074219 97.90625 C 174.625 98.203125 175.164062 98.527344 175.683594 98.875 C 176.207031 99.222656 176.707031 99.59375 177.195312 99.992188 C 177.679688 100.390625 178.140625 100.8125 178.585938 101.253906 C 179.027344 101.699219 179.449219 102.164062 179.847656 102.648438 C 180.246094 103.132812 180.617188 103.636719 180.96875 104.15625 C 181.316406 104.679688 181.636719 105.214844 181.933594 105.769531 C 182.226562 106.320312 182.496094 106.886719 182.734375 107.46875 C 182.976562 108.046875 183.1875 108.636719 183.371094 109.234375 C 183.550781 109.835938 183.703125 110.445312 183.824219 111.058594 C 183.949219 111.675781 184.039062 112.292969 184.101562 112.917969 C 184.164062 113.542969 184.195312 114.167969 184.195312 114.792969 Z M 184.195312 114.792969 " fill-opacity="1" fill-rule="nonzero"/><path fill="#252525" d="M 165.046875 135.964844 C 153.375 135.964844 143.875 126.46875 143.875 114.792969 C 143.875 103.121094 153.375 93.625 165.046875 93.625 C 176.71875 93.625 186.214844 103.121094 186.214844 114.792969 C 186.214844 126.46875 176.71875 135.964844 165.046875 135.964844 Z M 165.046875 97.667969 C 155.605469 97.667969 147.921875 105.351562 147.921875 114.792969 C 147.921875 124.238281 155.605469 131.917969 165.046875 131.917969 C 174.488281 131.917969 182.171875 124.238281 182.171875 114.792969 C 182.171875 105.351562 174.488281 97.667969 165.046875 97.667969 Z M 165.046875 97.667969 " fill-opacity="1" fill-rule="nonzero"/><path fill="#ffffff" d="M 165.046875 114.792969 L 189.523438 101.472656 Z M 165.046875 114.792969 " fill-opacity="1" fill-rule="nonzero"/><path fill="#252525" d="M 165.046875 116.816406 C 164.332031 116.816406 163.636719 116.433594 163.269531 115.761719 C 162.738281 114.78125 163.097656 113.550781 164.078125 113.019531 L 188.554688 99.695312 C 189.535156 99.160156 190.765625 99.523438 191.296875 100.503906 C 191.832031 101.484375 191.46875 102.710938 190.488281 103.246094 L 166.011719 116.570312 C 165.707031 116.738281 165.375 116.816406 165.046875 116.816406 Z M 165.046875 116.816406 " fill-opacity="1" fill-rule="nonzero"/><path fill="#ffffff" d="M 197.988281 105.679688 L 189.511719 101.464844 L 190.578125 92.054688 L 210.265625 81.351562 L 210.390625 90.109375 L 217.671875 94.976562 Z M 197.988281 105.679688 " fill-opacity="1" fill-rule="nonzero"/><path fill="#252525" d="M 197.988281 107.703125 C 197.679688 107.703125 197.371094 107.632812 197.085938 107.492188 L 188.609375 103.273438 C 187.847656 102.894531 187.40625 102.082031 187.5 101.238281 L 188.566406 91.828125 C 188.640625 91.171875 189.03125 90.59375 189.613281 90.28125 L 209.296875 79.574219 C 209.917969 79.234375 210.671875 79.246094 211.285156 79.605469 C 211.894531 79.960938 212.277344 80.613281 212.285156 81.320312 L 212.394531 89.019531 L 218.796875 93.296875 C 219.386719 93.6875 219.726562 94.363281 219.691406 95.070312 C 219.660156 95.777344 219.261719 96.414062 218.640625 96.753906 L 198.953125 107.457031 C 198.652344 107.621094 198.320312 107.703125 197.988281 107.703125 Z M 191.679688 100.285156 L 197.945312 103.402344 L 213.765625 94.800781 L 209.265625 91.792969 C 208.714844 91.421875 208.378906 90.804688 208.367188 90.140625 L 208.289062 84.726562 L 192.46875 93.332031 Z M 191.679688 100.285156 " fill-opacity="1" fill-rule="nonzero"/><path fill="#252525" d="M 263.148438 125.132812 C 262.917969 125.132812 262.679688 125.09375 262.449219 125.007812 C 261.402344 124.625 260.863281 123.460938 261.25 122.414062 C 266.035156 109.421875 264.679688 94.554688 257.628906 82.640625 C 257.058594 81.679688 257.378906 80.4375 258.339844 79.871094 C 259.300781 79.300781 260.539062 79.617188 261.109375 80.578125 C 264.847656 86.898438 267.1875 94.222656 267.875 101.757812 C 268.5625 109.292969 267.582031 116.917969 265.046875 123.808594 C 264.746094 124.628906 263.972656 125.132812 263.148438 125.132812 Z M 263.148438 125.132812 " fill-opacity="1" fill-rule="nonzero"/><path fill="#252525" d="M 256.207031 92.957031 C 255.988281 92.957031 255.769531 92.921875 255.554688 92.847656 C 254.496094 92.488281 253.929688 91.339844 254.292969 90.28125 L 257.46875 80.960938 C 257.648438 80.429688 258.039062 80 258.546875 79.769531 C 259.054688 79.539062 259.636719 79.527344 260.152344 79.742188 L 270.136719 83.867188 C 271.167969 84.292969 271.65625 85.476562 271.230469 86.507812 C 270.804688 87.539062 269.621094 88.03125 268.589844 87.605469 L 260.601562 84.304688 L 258.121094 91.585938 C 257.832031 92.425781 257.046875 92.957031 256.207031 92.957031 Z M 256.207031 92.957031 " fill-opacity="1" fill-rule="nonzero"/><path fill="#ffffff" d="M 177.65625 66.3125 C 187.4375 56.757812 202.132812 52 215.722656 53.550781 Z M 177.65625 66.3125 " fill-opacity="1" fill-rule="nonzero"/><path fill="#252525" d="M 177.65625 68.335938 C 177.128906 68.335938 176.605469 68.132812 176.207031 67.726562 C 175.429688 66.925781 175.441406 65.644531 176.242188 64.867188 C 186.339844 55.003906 201.554688 49.898438 215.953125 51.542969 C 217.0625 51.667969 217.859375 52.671875 217.734375 53.78125 C 217.605469 54.890625 216.605469 55.6875 215.496094 55.5625 C 202.277344 54.050781 188.316406 58.726562 179.070312 67.757812 C 178.675781 68.144531 178.164062 68.335938 177.65625 68.335938 Z M 177.65625 68.335938 " fill-opacity="1" fill-rule="nonzero"/><path fill="#252525" d="M 187.464844 69.199219 C 187.402344 69.199219 187.34375 69.195312 187.28125 69.191406 L 177.472656 68.3125 C 176.917969 68.265625 176.40625 67.988281 176.0625 67.546875 C 175.71875 67.105469 175.570312 66.542969 175.65625 65.992188 L 177.296875 55.316406 C 177.46875 54.214844 178.5 53.457031 179.605469 53.625 C 180.707031 53.796875 181.464844 54.828125 181.296875 55.933594 L 179.980469 64.476562 L 187.640625 65.164062 C 188.753906 65.261719 189.574219 66.246094 189.476562 67.355469 C 189.382812 68.410156 188.5 69.199219 187.464844 69.199219 Z M 187.464844 69.199219 " fill-opacity="1" fill-rule="nonzero"/><path fill="#ffffff" d="M 244.378906 63.902344 L 228.925781 79.355469 Z M 244.378906 63.902344 " fill-opacity="1" fill-rule="nonzero"/><path fill="#252525" d="M 228.925781 81.375 C 228.40625 81.375 227.890625 81.179688 227.496094 80.785156 C 226.707031 79.996094 226.707031 78.714844 227.496094 77.925781 L 242.949219 62.472656 C 243.738281 61.679688 245.019531 61.679688 245.808594 62.472656 C 246.597656 63.261719 246.597656 64.542969 245.808594 65.332031 L 230.355469 80.785156 C 229.960938 81.179688 229.441406 81.375 228.925781 81.375 Z M 228.925781 81.375 " fill-opacity="1" fill-rule="nonzero"/><path fill="#ffffff" d="M 244.378906 79.355469 L 228.925781 63.902344 Z M 244.378906 79.355469 " fill-opacity="1" fill-rule="nonzero"/><path fill="#252525" d="M 244.378906 81.378906 C 243.863281 81.378906 243.34375 81.179688 242.949219 80.785156 L 227.496094 65.332031 C 226.707031 64.542969 226.707031 63.261719 227.496094 62.472656 C 228.285156 61.679688 229.566406 61.679688 230.355469 62.472656 L 245.808594 77.925781 C 246.597656 78.714844 246.597656 79.996094 245.808594 80.785156 C 245.414062 81.179688 244.898438 81.378906 244.378906 81.378906 Z M 244.378906 81.378906 " fill-opacity="1" fill-rule="nonzero"/><path fill="#5c7a8a" d="M 258.394531 138.980469 C 258.394531 139.53125 258.367188 140.082031 258.3125 140.632812 C 258.257812 141.183594 258.175781 141.726562 258.070312 142.269531 C 257.960938 142.808594 257.828125 143.34375 257.667969 143.875 C 257.507812 144.402344 257.320312 144.921875 257.109375 145.429688 C 256.898438 145.941406 256.664062 146.441406 256.402344 146.925781 C 256.144531 147.414062 255.859375 147.886719 255.554688 148.34375 C 255.246094 148.804688 254.917969 149.246094 254.566406 149.675781 C 254.21875 150.101562 253.847656 150.507812 253.457031 150.898438 C 253.066406 151.289062 252.65625 151.660156 252.230469 152.011719 C 251.804688 152.359375 251.359375 152.691406 250.902344 152.996094 C 250.441406 153.304688 249.96875 153.585938 249.484375 153.847656 C 248.996094 154.105469 248.496094 154.34375 247.988281 154.554688 C 247.476562 154.765625 246.957031 154.953125 246.429688 155.113281 C 245.902344 155.273438 245.367188 155.40625 244.824219 155.511719 C 244.285156 155.621094 243.738281 155.703125 243.1875 155.757812 C 242.640625 155.808594 242.089844 155.835938 241.535156 155.835938 C 240.984375 155.835938 240.433594 155.808594 239.882812 155.757812 C 239.335938 155.703125 238.789062 155.621094 238.25 155.511719 C 237.707031 155.40625 237.171875 155.273438 236.644531 155.113281 C 236.113281 154.953125 235.597656 154.765625 235.085938 154.554688 C 234.574219 154.34375 234.078125 154.105469 233.589844 153.847656 C 233.101562 153.585938 232.628906 153.304688 232.171875 152.996094 C 231.710938 152.691406 231.269531 152.359375 230.84375 152.011719 C 230.417969 151.660156 230.007812 151.289062 229.617188 150.898438 C 229.226562 150.507812 228.855469 150.101562 228.507812 149.675781 C 228.15625 149.246094 227.828125 148.804688 227.519531 148.34375 C 227.214844 147.886719 226.929688 147.414062 226.671875 146.925781 C 226.410156 146.441406 226.175781 145.941406 225.964844 145.429688 C 225.75 144.921875 225.566406 144.402344 225.40625 143.875 C 225.246094 143.34375 225.113281 142.808594 225.003906 142.269531 C 224.894531 141.726562 224.816406 141.183594 224.761719 140.632812 C 224.707031 140.082031 224.679688 139.53125 224.679688 138.980469 C 224.679688 138.429688 224.707031 137.878906 224.761719 137.328125 C 224.816406 136.777344 224.894531 136.234375 225.003906 135.691406 C 225.113281 135.148438 225.246094 134.617188 225.40625 134.085938 C 225.566406 133.558594 225.75 133.039062 225.964844 132.53125 C 226.175781 132.019531 226.410156 131.519531 226.671875 131.035156 C 226.929688 130.546875 227.214844 130.074219 227.519531 129.613281 C 227.828125 129.15625 228.15625 128.714844 228.507812 128.285156 C 228.855469 127.859375 229.226562 127.449219 229.617188 127.0625 C 230.007812 126.671875 230.417969 126.300781 230.84375 125.949219 C 231.269531 125.597656 231.710938 125.269531 232.171875 124.964844 C 232.628906 124.65625 233.105469 124.375 233.589844 124.113281 C 234.078125 123.855469 234.574219 123.617188 235.085938 123.40625 C 235.597656 123.195312 236.113281 123.007812 236.644531 122.847656 C 237.171875 122.6875 237.707031 122.554688 238.25 122.445312 C 238.789062 122.339844 239.335938 122.257812 239.882812 122.203125 C 240.433594 122.152344 240.984375 122.125 241.535156 122.125 C 242.089844 122.125 242.640625 122.152344 243.1875 122.203125 C 243.738281 122.257812 244.285156 122.339844 244.824219 122.445312 C 245.367188 122.554688 245.902344 122.6875 246.429688 122.847656 C 246.957031 123.007812 247.476562 123.195312 247.988281 123.40625 C 248.496094 123.617188 248.996094 123.855469 249.484375 124.113281 C 249.96875 124.375 250.441406 124.65625 250.902344 124.964844 C 251.359375 125.269531 251.804688 125.597656 252.230469 125.949219 C 252.65625 126.300781 253.066406 126.671875 253.457031 127.0625 C 253.847656 127.449219 254.21875 127.859375 254.566406 128.285156 C 254.917969 128.714844 255.246094 129.15625 255.554688 129.613281 C 255.859375 130.074219 256.144531 130.546875 256.402344 131.035156 C 256.664062 131.519531 256.898438 132.019531 257.109375 132.53125 C 257.320312 133.039062 257.507812 133.558594 257.667969 134.085938 C 257.828125 134.617188 257.960938 135.148438 258.070312 135.691406 C 258.175781 136.234375 258.257812 136.777344 258.3125 137.328125 C 258.367188 137.878906 258.394531 138.429688 258.394531 138.980469 Z M 258.394531 138.980469 " fill-opacity="1" fill-rule="nonzero"/><path fill="#252525" d="M 241.535156 157.859375 C 231.125 157.859375 222.65625 149.390625 222.65625 138.980469 C 222.65625 128.570312 231.125 120.101562 241.535156 120.101562 C 251.945312 120.101562 260.414062 128.570312 260.414062 138.980469 C 260.414062 149.390625 251.945312 157.859375 241.535156 157.859375 Z M 241.535156 124.144531 C 233.355469 124.144531 226.703125 130.800781 226.703125 138.980469 C 226.703125 147.160156 233.355469 153.816406 241.535156 153.816406 C 249.714844 153.816406 256.371094 147.160156 256.371094 138.980469 C 256.371094 130.800781 249.714844 124.144531 241.535156 124.144531 Z M 241.535156 124.144531 " fill-opacity="1" fill-rule="nonzero"/><path fill="#a7b6be" d="M 294.363281 42.660156 L 114.632812 42.660156 C 108.753906 42.660156 103.988281 37.890625 103.988281 32.011719 C 103.988281 26.132812 108.753906 21.367188 114.632812 21.367188 L 294.363281 21.367188 C 300.242188 21.367188 305.007812 26.132812 305.007812 32.011719 C 305.007812 37.890625 300.242188 42.660156 294.363281 42.660156 Z M 294.363281 42.660156 " fill-opacity="1" fill-rule="nonzero"/><path fill="#252525" d="M 294.363281 44.679688 L 114.632812 44.679688 C 107.648438 44.679688 101.964844 39 101.964844 32.011719 C 101.964844 25.027344 107.648438 19.34375 114.632812 19.34375 L 294.363281 19.34375 C 301.347656 19.34375 307.03125 25.027344 307.03125 32.011719 C 307.03125 39 301.347656 44.679688 294.363281 44.679688 Z M 114.632812 23.386719 C 109.878906 23.386719 106.007812 27.257812 106.007812 32.011719 C 106.007812 36.769531 109.878906 40.636719 114.632812 40.636719 L 294.363281 40.636719 C 299.117188 40.636719 302.988281 36.769531 302.988281 32.011719 C 302.988281 27.257812 299.117188 23.386719 294.363281 23.386719 Z M 114.632812 23.386719 " fill-opacity="1" fill-rule="nonzero"/><path fill="#5c7a8a" d="M 299.164062 15.835938 L 292.441406 9.109375 C 290.953125 7.625 288.542969 7.625 287.058594 9.109375 L 281.8125 14.355469 L 250.746094 45.425781 L 248.054688 60.21875 L 262.851562 57.53125 L 295.800781 24.578125 L 299.164062 21.214844 C 300.648438 19.730469 300.648438 17.320312 299.164062 15.835938 Z M 299.164062 15.835938 " fill-opacity="1" fill-rule="nonzero"/><path fill="#252525" d="M 248.054688 62.242188 C 247.523438 62.242188 247.007812 62.03125 246.625 61.648438 C 246.15625 61.179688 245.949219 60.511719 246.066406 59.859375 L 248.75 45.105469 C 248.816406 44.695312 249.007812 44.304688 249.316406 43.996094 L 280.382812 12.925781 L 285.628906 7.679688 C 287.902344 5.410156 291.597656 5.410156 293.867188 7.679688 L 300.59375 14.40625 C 301.695312 15.507812 302.300781 16.96875 302.300781 18.527344 C 302.300781 20.082031 301.695312 21.546875 300.59375 22.644531 L 264.28125 58.960938 C 263.988281 59.25 263.617188 59.445312 263.210938 59.519531 L 248.417969 62.210938 C 248.296875 62.230469 248.175781 62.242188 248.054688 62.242188 Z M 252.625 46.40625 L 250.570312 57.707031 L 261.867188 55.652344 L 297.734375 19.785156 C 298.070312 19.449219 298.257812 19.003906 298.257812 18.527344 C 298.257812 18.050781 298.070312 17.601562 297.734375 17.265625 L 291.007812 10.542969 C 290.316406 9.847656 289.183594 9.847656 288.488281 10.542969 L 283.246094 15.789062 Z M 262.851562 57.53125 Z M 262.851562 57.53125 " fill-opacity="1" fill-rule="nonzero"/></svg>