<svg id="visual" viewBox="0 0 900 450" width="900" height="450" xmlns="http://www.w3.org/2000/svg" xmlns:xlink="http://www.w3.org/1999/xlink" version="1.1"><g stroke-width="1" stroke-linejoin="bevel"><path d="M510 251L511 330L628 285Z" fill="#4f6d7c" stroke="#4f6d7c"></path><path d="M511 330L614 340L628 285Z" fill="#294756" stroke="#294756"></path><path d="M628 285L591 195L510 251Z" fill="#435f6f" stroke="#435f6f"></path><path d="M668 380L678 259L628 285Z" fill="#294756" stroke="#294756"></path><path d="M628 285L678 259L591 195Z" fill="#375361" stroke="#375361"></path><path d="M589 450L668 380L614 340Z" fill="#294756" stroke="#294756"></path><path d="M614 340L668 380L628 285Z" fill="#314c5b" stroke="#314c5b"></path><path d="M591 195L502 161L510 251Z" fill="#496675" stroke="#496675"></path><path d="M510 251L384 271L511 330Z" fill="#435f6f" stroke="#435f6f"></path><path d="M511 330L589 450L614 340Z" fill="#314c5b" stroke="#314c5b"></path><path d="M386 373L503 450L511 330Z" fill="#5c7a8a" stroke="#5c7a8a"></path><path d="M511 330L503 450L589 450Z" fill="#375361" stroke="#375361"></path><path d="M391 155L384 271L510 251Z" fill="#2b4654" stroke="#2b4654"></path><path d="M805 164L702 168L678 259Z" fill="#4f6d7c" stroke="#4f6d7c"></path><path d="M678 259L702 168L591 195Z" fill="#4f6d7c" stroke="#4f6d7c"></path><path d="M591 195L621 88L502 161Z" fill="#294756" stroke="#294756"></path><path d="M384 271L386 373L511 330Z" fill="#375361" stroke="#375361"></path><path d="M675 98L621 88L591 195Z" fill="#0d1e26" stroke="#0d1e26"></path><path d="M621 88L504 84L502 161Z" fill="#2b4654" stroke="#2b4654"></path><path d="M502 161L391 155L510 251Z" fill="#435f6f" stroke="#435f6f"></path><path d="M386 373L416 450L503 450Z" fill="#294756" stroke="#294756"></path><path d="M384 125L391 155L502 161Z" fill="#375361" stroke="#375361"></path><path d="M702 168L675 98L591 195Z" fill="#294756" stroke="#294756"></path><path d="M589 450L720 450L668 380Z" fill="#0d1e26" stroke="#0d1e26"></path><path d="M668 380L790 359L678 259Z" fill="#5c7a8a" stroke="#5c7a8a"></path><path d="M384 271L335 335L386 373Z" fill="#294756" stroke="#294756"></path><path d="M386 373L291 450L416 450Z" fill="#2b4654" stroke="#2b4654"></path><path d="M286 286L335 335L384 271Z" fill="#2b4654" stroke="#2b4654"></path><path d="M720 450L790 359L668 380Z" fill="#314c5b" stroke="#314c5b"></path><path d="M702 168L807 86L675 98Z" fill="#5c7a8a" stroke="#5c7a8a"></path><path d="M504 84L384 125L502 161Z" fill="#375361" stroke="#375361"></path><path d="M278 163L286 286L384 271Z" fill="#4f6d7c" stroke="#4f6d7c"></path><path d="M790 359L829 286L678 259Z" fill="#375361" stroke="#375361"></path><path d="M829 286L805 164L678 259Z" fill="#4f6d7c" stroke="#4f6d7c"></path><path d="M278 163L384 271L391 155Z" fill="#375361" stroke="#375361"></path><path d="M335 335L291 450L386 373Z" fill="#496675" stroke="#496675"></path><path d="M702 0L616 0L675 98Z" fill="#496675" stroke="#496675"></path><path d="M675 98L616 0L621 88Z" fill="#5c7a8a" stroke="#5c7a8a"></path><path d="M621 88L616 0L504 84Z" fill="#2b4654" stroke="#2b4654"></path><path d="M504 84L468 0L384 125Z" fill="#4f6d7c" stroke="#4f6d7c"></path><path d="M616 0L468 0L504 84Z" fill="#294756" stroke="#294756"></path><path d="M720 450L827 450L790 359Z" fill="#375361" stroke="#375361"></path><path d="M900 385L900 283L829 286Z" fill="#0d1e26" stroke="#0d1e26"></path><path d="M323 77L278 163L384 125Z" fill="#294756" stroke="#294756"></path><path d="M384 125L278 163L391 155Z" fill="#25404d" stroke="#25404d"></path><path d="M291 450L335 335L191 389Z" fill="#2b4654" stroke="#2b4654"></path><path d="M224 450L291 450L191 389Z" fill="#567383" stroke="#567383"></path><path d="M900 86L807 86L805 164Z" fill="#496675" stroke="#496675"></path><path d="M805 164L807 86L702 168Z" fill="#375361" stroke="#375361"></path><path d="M390 0L323 77L384 125Z" fill="#375361" stroke="#375361"></path><path d="M807 86L702 0L675 98Z" fill="#4f6d7c" stroke="#4f6d7c"></path><path d="M829 286L900 170L805 164Z" fill="#496675" stroke="#496675"></path><path d="M900 385L829 286L790 359Z" fill="#375361" stroke="#375361"></path><path d="M468 0L390 0L384 125Z" fill="#0d1e26" stroke="#0d1e26"></path><path d="M173 192L217 261L278 163Z" fill="#25404d" stroke="#25404d"></path><path d="M278 163L217 261L286 286Z" fill="#4f6d7c" stroke="#4f6d7c"></path><path d="M827 450L900 385L790 359Z" fill="#496675" stroke="#496675"></path><path d="M900 283L900 170L829 286Z" fill="#567383" stroke="#567383"></path><path d="M827 450L900 450L900 385Z" fill="#435f6f" stroke="#435f6f"></path><path d="M191 389L335 335L286 286Z" fill="#4f6d7c" stroke="#4f6d7c"></path><path d="M807 86L804 0L702 0Z" fill="#496675" stroke="#496675"></path><path d="M900 0L804 0L807 86Z" fill="#375361" stroke="#375361"></path><path d="M217 261L191 389L286 286Z" fill="#496675" stroke="#496675"></path><path d="M900 170L900 86L805 164Z" fill="#375361" stroke="#375361"></path><path d="M184 124L173 192L278 163Z" fill="#375361" stroke="#375361"></path><path d="M217 261L111 250L191 389Z" fill="#567383" stroke="#567383"></path><path d="M184 124L278 163L323 77Z" fill="#294756" stroke="#294756"></path><path d="M390 0L279 0L323 77Z" fill="#25404d" stroke="#25404d"></path><path d="M234 0L184 124L323 77Z" fill="#4f6d7c" stroke="#4f6d7c"></path><path d="M279 0L234 0L323 77Z" fill="#4f6d7c" stroke="#4f6d7c"></path><path d="M900 86L900 0L807 86Z" fill="#2b4654" stroke="#2b4654"></path><path d="M92 198L173 192L84 120Z" fill="#314c5b" stroke="#314c5b"></path><path d="M92 198L111 250L173 192Z" fill="#294756" stroke="#294756"></path><path d="M173 192L111 250L217 261Z" fill="#314c5b" stroke="#314c5b"></path><path d="M191 389L64 450L224 450Z" fill="#25404d" stroke="#25404d"></path><path d="M84 120L173 192L184 124Z" fill="#314c5b" stroke="#314c5b"></path><path d="M0 287L73 365L111 250Z" fill="#294756" stroke="#294756"></path><path d="M111 250L73 365L191 389Z" fill="#2b4654" stroke="#2b4654"></path><path d="M123 0L84 120L184 124Z" fill="#435f6f" stroke="#435f6f"></path><path d="M0 208L0 287L111 250Z" fill="#25404d" stroke="#25404d"></path><path d="M0 450L64 450L73 365Z" fill="#0d1e26" stroke="#0d1e26"></path><path d="M73 365L64 450L191 389Z" fill="#294756" stroke="#294756"></path><path d="M234 0L123 0L184 124Z" fill="#5c7a8a" stroke="#5c7a8a"></path><path d="M0 208L92 198L84 120Z" fill="#2b4654" stroke="#2b4654"></path><path d="M0 208L111 250L92 198Z" fill="#4f6d7c" stroke="#4f6d7c"></path><path d="M0 287L0 335L73 365Z" fill="#375361" stroke="#375361"></path><path d="M0 104L0 208L84 120Z" fill="#5c7a8a" stroke="#5c7a8a"></path><path d="M0 335L0 450L73 365Z" fill="#0d1e26" stroke="#0d1e26"></path><path d="M0 0L0 104L84 120Z" fill="#567383" stroke="#567383"></path><path d="M123 0L0 0L84 120Z" fill="#294756" stroke="#294756"></path></g></svg>